<?xml version="1.0" encoding="utf-8"?>
<!-- Generator: Adobe Illustrator 23.0.2, SVG Export Plug-In . SVG Version: 6.00 Build 0)  -->
<svg version="1.1" id="Capa_1" xmlns="http://www.w3.org/2000/svg" xmlns:xlink="http://www.w3.org/1999/xlink" x="0px" y="0px"
	 width="256px" height="256px" viewBox="0 0 256 256" style="enable-background:new 0 0 256 256;" xml:space="preserve">
<g>
	<path style="fill:#604129;stroke:#000000;stroke-width:3;stroke-miterlimit:10;" d="M202.6,75.4c-0.8-2.5-2.1-4.7-5.5-6.9
		c-2.3-1.5-11.8-4.2-13.2-4.8c-2.3-0.9-3.5-1.9-4.2-2.5c-8.9-8.4-30.4-17.6-51.8-17.6s-42.8,9.2-51.8,17.6c-0.6,0.6-1.8,1.6-4.2,2.5
		c-1.3,0.5-10.9,3.3-13.2,4.8c-3.4,2.2-4.7,4.4-5.5,6.9c-0.7,2.3-1,4.2,0.7,5.3c1.5,0.9,4.2,0.2,6.1-0.4c1.8-0.6,5.8-2.6,7.3-4.9
		c-1.8,4-8.6,17.4-8.1,30c0.4,10.2,3.7,16.1,6.1,20.3c-4.1,2.8,4.7,36,7.5,40.8l1.6,15.5c-3-0.3-10.6,23.5-13.1,30.4h133
		c-2.4-6.9-10.1-30.6-13.1-30.4l1.6-15.5c2.8-4.8,11.6-38,7.5-40.8c2.4-4.2,5.7-10.2,6.1-20.3c0.5-12.6-6.3-26-8.1-30
		c1.5,2.3,5.4,4.4,7.3,4.9c2,0.6,4.7,1.3,6.1,0.4C203.6,79.6,203.3,77.7,202.6,75.4z"/>
	<path style="fill:#9A7058;stroke:#000000;stroke-width:3;stroke-miterlimit:10;" d="M179.1,138.5c-5.3-13.7-26.4-25.7-32-22.9h-38
		c-5.6-2.8-26.7,9.2-32,22.9c-5,12.9,1.2,24.9,7.4,27.9l33.9,21.5h19.6l33.9-21.5C177.9,163.4,184.1,151.4,179.1,138.5z"/>
	<g>
		<circle cx="110.6" cy="128.2" r="0.3"/>
		<circle cx="103.7" cy="127.6" r="0.3"/>
		<circle cx="109.3" cy="133.5" r="0.3"/>
		<circle cx="116.5" cy="135.3" r="0.3"/>
		<circle cx="111.9" cy="138.7" r="0.3"/>
		<circle cx="104.7" cy="135.3" r="0.3"/>
		<circle cx="100.8" cy="133.5" r="0.3"/>
		<circle cx="93.1" cy="134.4" r="0.3"/>
		<circle cx="99.1" cy="139.1" r="0.3"/>
		<circle cx="106.6" cy="140.4" r="0.3"/>
		<circle cx="110.5" cy="144.2" r="0.3"/>
		<circle cx="103.5" cy="143.4" r="0.3"/>
		<circle cx="95.8" cy="142.6" r="0.3"/>
		<circle cx="96.9" cy="147.6" r="0.3"/>
	</g>
	<path style="fill:none;stroke:#000000;stroke-width:3;stroke-miterlimit:10;" d="M109,111.1C87.1,99.7,16.5,105,0,119"/>
	<path style="fill:none;stroke:#000000;stroke-width:3;stroke-miterlimit:10;" d="M108.7,111.6c-16.8-3.2-74.2,4.3-93.3,27.8"/>
	<path style="fill:none;stroke:#000000;stroke-width:3;stroke-miterlimit:10;" d="M109,112.9c-11.3-4-78.9,24.1-89.7,46.3"/>
	<path style="fill:#FFFFFF;stroke:#000000;stroke-width:3;stroke-miterlimit:10;" d="M107.3,89.9c-1.5-1.3-1.7-5.5-6.2-7.3
		c-7.1-2.9-12.5,1.9-14.5,2.6c-0.1,5.7,1.7,9.2,6.3,11.5C98.7,99.5,105.3,95.8,107.3,89.9z"/>
	<path d="M101.2,82.6c4.5,1.8,4.7,6,6.2,7.3c-0.6,1.6-1.5,3.1-2.6,4.3c-3.6,2.5-7.1,1.7-9.6-0.2c-2.5-2-4.8-4.9-4.7-10.8v0
		C93.2,81.9,96.9,80.8,101.2,82.6z"/>
	
		<ellipse transform="matrix(0.5376 -0.8432 0.8432 0.5376 -25.7357 123.5254)" style="fill:#FFFFFF;" cx="99.8" cy="85.2" rx="1.6" ry="2.1"/>
	<path style="fill:#FF0000;stroke:#000000;stroke-width:3;stroke-miterlimit:10;" d="M117.8,180.3C105.4,168.6,81.7,166,76.3,166
		c-1.5,0-4.2,0.2-4.8,0.9c-1.1,1.4,1,8.2,1.6,10.1c0.6,1.9,2.7,7.3,4.4,8.2c0.5,0.3,1.7,0.8,3.6,1.4c-2.4-0.7-3.5-0.8-4.5-0.7
		c-1,0.1-1.7,1.5-1.8,3.2c0,1.3,0.8,6.3,0.8,8.9c0,1.7-1,2.7-0.8,4.6c0.3,3,2.5,6.4,4.6,7.5c1.7,1,3.5,0.7,5.9,0
		c5-1.4,29.3-12.3,32.5-16.5h3.2l0-13.3L117.8,180.3z"/>
	<path style="fill:none;stroke:#000000;stroke-width:3;stroke-miterlimit:10;" d="M114.6,187c-3.7-5.1-22.9-9.9-30.5-8.8"/>
	<path style="fill:none;stroke:#000000;stroke-width:3;stroke-miterlimit:10;" d="M105,187c-3.2,3-11.6,4.9-17.7,5.2"/>
	<path style="fill:none;stroke:#000000;stroke-miterlimit:10;" d="M65.6,125.7c0.5,2.3,6.9,10.7,11.1,13.6"/>
	<path style="fill:none;stroke:#000000;stroke-width:3;stroke-miterlimit:10;" d="M82.1,86.5c1.6,0,3.7-0.9,4.6-1.3"/>
	<path style="fill:none;stroke:#000000;stroke-width:3;stroke-miterlimit:10;" d="M109.5,91.1c-1-0.2-1.7-0.7-2.2-1.2"/>
	<g>
		<circle cx="145.4" cy="128.2" r="0.3"/>
		<circle cx="152.3" cy="127.6" r="0.3"/>
		<circle cx="146.7" cy="133.5" r="0.3"/>
		<circle cx="139.5" cy="135.3" r="0.3"/>
		<circle cx="144.1" cy="138.7" r="0.3"/>
		<circle cx="151.3" cy="135.3" r="0.3"/>
		<circle cx="155.2" cy="133.5" r="0.3"/>
		<circle cx="162.9" cy="134.4" r="0.3"/>
		<circle cx="156.9" cy="139.1" r="0.3"/>
		<circle cx="149.4" cy="140.4" r="0.3"/>
		<circle cx="145.5" cy="144.2" r="0.3"/>
		<circle cx="152.5" cy="143.4" r="0.3"/>
		<circle cx="160.2" cy="142.6" r="0.3"/>
		<circle cx="159.1" cy="147.6" r="0.3"/>
	</g>
	<path style="fill:none;stroke:#000000;stroke-width:3;stroke-miterlimit:10;" d="M147,111.1c21.9-11.4,92.5-6.2,109,7.8"/>
	<path style="fill:none;stroke:#000000;stroke-width:3;stroke-miterlimit:10;" d="M147.3,111.6c16.8-3.2,74.2,4.3,93.3,27.8"/>
	<path style="fill:none;stroke:#000000;stroke-width:3;stroke-miterlimit:10;" d="M147,112.9c11.3-4,78.9,24.1,89.7,46.3"/>
	<path style="fill:#5B435B;stroke:#000000;stroke-width:3;stroke-miterlimit:10;" d="M128,104.6c-10.1,0-17.5,3-19.8,7
		c1.3,10.6,17.4,20,19.8,20c2.5,0,18.5-9.3,19.8-20C145.5,107.6,138.1,104.6,128,104.6z"/>
	<path style="fill:#FFFFFF;stroke:#000000;stroke-width:3;stroke-miterlimit:10;" d="M148.7,89.9c1.5-1.3,1.7-5.5,6.2-7.3
		c7.1-2.9,12.5,1.9,14.5,2.6c0.1,5.7-1.7,9.2-6.3,11.5C157.3,99.5,150.7,95.8,148.7,89.9z"/>
	<path d="M154.8,82.6c-4.5,1.8-4.7,6-6.2,7.3c0.6,1.6,1.5,3.1,2.6,4.3c3.6,2.5,7.1,1.7,9.6-0.2c2.5-2,4.8-4.9,4.7-10.8v0
		C162.8,81.9,159.1,80.8,154.8,82.6z"/>
	
		<ellipse transform="matrix(0.8432 -0.5376 0.5376 0.8432 -21.3191 97.3569)" style="fill:#FFFFFF;" cx="156.2" cy="85.2" rx="2.1" ry="1.6"/>
	<path style="fill:#FF0000;stroke:#000000;stroke-width:3;stroke-miterlimit:10;" d="M138.2,180.3c12.4-11.8,36.1-14.3,41.5-14.3
		c1.5,0,4.2,0.2,4.8,0.9c1.1,1.4-1,8.2-1.6,10.1c-0.6,1.9-2.7,7.3-4.4,8.2c-0.5,0.3-1.7,0.7-3.6,1.4c2.4-0.6,3.5-0.8,4.5-0.7
		s1.7,1.5,1.8,3.2c0,1.3-0.8,6.3-0.8,8.9c0,1.7,1,2.7,0.8,4.6c-0.3,3-2.5,6.4-4.6,7.5c-1.7,1-3.5,0.7-5.9,0
		c-5-1.4-29.3-12.3-32.5-16.5h-3.2l0-13.3L138.2,180.3z"/>
	<path style="fill:#FF0000;stroke:#000000;stroke-width:3;stroke-miterlimit:10;" d="M137.6,189.3c-0.1-2,1.2-6.6,0.8-8.4
		c-0.6-2.8-5.3-5.1-10.4-5.1c-5.1,0-9.8,2.3-10.4,5.1c-0.4,1.8,0.9,6.4,0.8,8.4c-0.1,1.7-0.5,1.9-0.7,3.1c-0.5,2.4,5.6,5.9,10.3,5.9
		s10.8-3.5,10.3-5.9C138.1,191.2,137.7,191,137.6,189.3z"/>
	<path style="fill:none;stroke:#000000;stroke-width:3;stroke-miterlimit:10;" d="M141.4,187c3.7-5.1,22.9-9.9,30.5-8.8"/>
	<path style="fill:none;stroke:#000000;stroke-width:3;stroke-miterlimit:10;" d="M151,187c3.2,3,11.6,4.9,17.7,5.2"/>
	<path style="fill:none;stroke:#000000;stroke-width:3;stroke-miterlimit:10;" d="M160.5,156.1c-11.1,9.4-31.1-4-32.5-11.1
		c-1.4,7.1-21.4,20.4-32.5,11.1"/>
	<path style="fill:none;stroke:#000000;stroke-miterlimit:10;" d="M190.4,125.7c-0.5,2.3-6.9,10.7-11.1,13.6"/>
	<path style="fill:none;stroke:#000000;stroke-width:3;stroke-miterlimit:10;" d="M173.9,86.5c-1.6,0-3.7-0.9-4.6-1.3"/>
	<path style="fill:none;stroke:#000000;stroke-width:3;stroke-miterlimit:10;" d="M146.5,91.1c1-0.2,1.7-0.7,2.2-1.2"/>
	<line style="fill:none;stroke:#000000;stroke-width:3;stroke-miterlimit:10;" x1="128" y1="145" x2="128" y2="131.6"/>
</g>
</svg>
