<?xml version="1.0" encoding="utf-8"?>
<!-- Generator: Adobe Illustrator 22.1.0, SVG Export Plug-In . SVG Version: 6.00 Build 0)  -->
<svg version="1.1" xmlns="http://www.w3.org/2000/svg" xmlns:xlink="http://www.w3.org/1999/xlink" x="0px" y="0px"
	 width="256px" height="256"  viewBox="0 0 1367 1000" style="enable-background:new 0 0 1367 1367;" xml:space="preserve">
<style type="text/css">
	.st0{display:none;}
	.st1{fill:#604129;}
	.st2{fill:#FF0000;}
	.st3{fill:#9A7058;}
	.st4{fill:#FFFFFF;}
	.st5{fill:#5B435B;}
	.st6{display:inline;fill:#FFFFFF;}
	.st7{fill:none;}
</style>
<g id="Capa_2">
	<g>
		<path class="st1" d="M391.5,681.3c2.9-0.6,5.8-0.9,8.7-1.1c4-0.3,8-0.4,11.9-0.3c13.3,0.2,26.4,1.7,39.5,3.8
			c-5.6-3-10.8-6.6-15.6-10.7c-6.1-5.5-11.5-11.8-15.9-18.7c-4.4-7-7.9-14.4-10.6-22.2c-2.6-7.8-4.5-15.8-5.6-24
			c-1.2-8.1-1.6-16.4-1.3-24.6c0.2-8.2,1.1-16.4,2.5-24.5c0.3-2,0.8-4,1.2-6.1c0.4-2,0.9-4,1.4-6c0.5-2,1.1-4,1.6-6l0.3-1.1
			c-6-4.4-11.5-9.4-16.8-14.7c-5.5-5.5-10.8-11.4-15.8-17.5c-9.9-12.1-18.8-25.2-26.5-38.8c-0.2-0.3-0.3-0.6-0.5-0.8
			c-0.3,0.1-0.6,0.3-0.9,0.4c-0.8,1.5-1.4,3.1-1.8,4.7c-0.6,2.3-0.9,4.6-1.1,6.9c-0.4,4.6-0.4,9.3-0.2,13.9
			c0.4,9.3,1.5,18.6,2.7,27.8c2.6,18.4,6.2,36.7,10.3,54.9c4.1,18.2,8.7,36.2,13.9,54.1c2.6,8.9,5.3,17.8,8.3,26.6
			c1.5,4.4,3.1,8.7,4.8,13c0.9,2.1,1.8,4.3,2.7,6.3C389.8,678.3,390.6,679.9,391.5,681.3z"/>
		<circle cx="498.1" cy="514.1" r="1.7"/>
		<circle cx="512.3" cy="557.6" r="1.7"/>
		<circle cx="529.9" cy="539.2" r="1.7"/>
		<path class="st1" d="M931.6,360.5c-24.8,1.3-49.6,3.4-74.2,7.3c-12.3,2-24.5,4.3-36.5,7.6c-6,1.6-11.9,3.5-17.7,5.7
			c-5.5,2.1-10.9,4.7-15.9,7.9c0.7,0.9,1.4,1.8,2,2.7c21.6-3.6,43.5-4.1,65.4-3.5c22.2,0.6,44.4,2.6,66.4,5.3
			c22.1,2.8,44,6.4,65.8,10.6c17.3,3.4,34.5,7.2,51.5,11.5c0.1-0.3,0.2-0.7,0.3-1c1.1-3.8,2.2-7.5,3.1-11.3c1.9-7.6,3.5-15.3,4.5-23
			c0.9-6.8,1.4-13.7,1.6-20.5c-13.9-0.5-27.8-0.8-41.8-0.9C981.3,358.6,956.4,359.1,931.6,360.5z"/>
		<path class="st1" d="M967.7,766.8c-0.7,1.5-1.5,2.9-2.3,4.4c-1.9,3.5-4.1,6.9-6.6,10.2c-1,1.3-2,2.5-3.2,3.7
			c0.7,0.2,1.3,0.3,2,0.6c1.1,0.4,2.2,1,3.2,1.7c2,1.4,3.5,3.4,4.4,5.4c1,2,1.6,4.1,2,6.2c0.8,4.2,0.9,8.3,0.8,12.3
			c-0.1,4-0.4,8-0.8,11.9c-0.8,7.9-1.8,15.7-2.3,23.4c-0.2,3.8-0.3,7.7,0.3,11.3c0.1,0.9,0.3,1.8,0.5,2.6c0.1,0.4,0.2,0.8,0.4,1.2
			l0.5,1.5c0.4,1,0.5,2.1,0.8,3.1c0.1,1.1,0.4,2.1,0.4,3.2c0.4,4.2,0,8.4-0.8,12.4c-0.8,4-2.1,7.9-3.6,11.7
			c-3.2,7.5-7.8,14.4-13.9,20c-3.1,2.8-6.6,5.1-10.4,6.8c-3.9,1.7-8.2,2.5-12.4,2.3c-2.2-0.1-4.2-0.6-6.2-1c-2-0.5-3.9-1-5.8-1.6
			c-3.8-1.2-7.5-2.5-11.3-3.8c-7.4-2.7-14.7-5.7-22-8.7c-7.3-3.1-14.5-6.2-21.7-9.4c-14.3-6.5-28.6-13.2-42.7-20.2
			c-14.1-7-28-14.3-41.8-22c-6.9-3.9-13.7-7.8-20.3-12c-3.3-2.1-6.6-4.3-9.8-6.7c-1.6-1.2-3.1-2.4-4.6-3.7c-0.7-0.7-1.4-1.4-2.1-2.1
			c-0.5-0.6-1-1.3-1.3-2c0,0.1-0.1,0.2-0.1,0.3c-2,3.7-5.2,6.5-8.3,9c-3.2,2.5-6.8,4.6-10.3,6.6c-3.6,2-7.3,3.6-11.1,5.2
			c-7.4,2.9-15.1,5.2-23.3,6v0.1c-0.1,0-0.3,0-0.4,0c-0.1,0-0.3,0-0.4,0v-0.1c-8.2-0.8-15.9-3.1-23.3-6c-3.8-1.5-7.6-3.2-11.1-5.2
			c-3.6-1.9-7.1-4.1-10.3-6.6c-3.2-2.5-6.3-5.3-8.3-9c0-0.1-0.1-0.2-0.1-0.3c-0.3,0.8-0.8,1.4-1.3,2c-0.6,0.8-1.3,1.4-2.1,2.1
			c-1.5,1.3-3,2.5-4.6,3.7c-3.2,2.4-6.4,4.5-9.8,6.7c-6.7,4.2-13.5,8.2-20.3,12c-13.7,7.7-27.7,15-41.8,22
			c-14.1,7-28.3,13.8-42.7,20.2c-7.2,3.2-14.4,6.4-21.7,9.4c-7.3,3-14.6,6-22,8.7c-3.7,1.4-7.5,2.7-11.3,3.8
			c-1.9,0.6-3.8,1.1-5.8,1.6c-2,0.5-4,0.9-6.2,1c-4.3,0.2-8.6-0.6-12.4-2.3c-3.9-1.7-7.4-4-10.4-6.8c-6.1-5.6-10.7-12.6-13.9-20
			c-1.6-3.8-2.8-7.7-3.6-11.7c-0.8-4-1.2-8.2-0.8-12.4c0-1.1,0.3-2.1,0.4-3.2c0.3-1,0.4-2.1,0.8-3.1l0.5-1.5
			c0.1-0.4,0.3-0.8,0.4-1.2c0.2-0.8,0.4-1.7,0.5-2.6c0.5-3.6,0.5-7.4,0.3-11.3c-0.4-7.7-1.5-15.5-2.3-23.4
			c-0.4-3.9-0.7-7.9-0.8-11.9c-0.1-4,0-8.1,0.8-12.3c0.4-2.1,1-4.2,2-6.2c1-2,2.5-4,4.4-5.4c1-0.7,2.1-1.3,3.2-1.7
			c0.7-0.2,1.3-0.4,2-0.6c-1.2-1.2-2.2-2.4-3.2-3.7c-2.5-3.3-4.6-6.7-6.6-10.2c-0.8-1.4-1.6-2.9-2.3-4.4c-0.5,0.5-1.1,1.1-1.6,1.7
			c-1.2,1.4-2.3,2.8-3.3,4.3c-2.1,3-4.1,6.2-5.9,9.5c-3.7,6.5-7.1,13.3-10.3,20.2c-6.4,13.7-12.3,27.7-18,41.8
			c-5.7,14.1-11.1,28.3-16.3,42.5c-5.1,13.8-10,27.6-14.8,41.5h354h0.8h354c-4.8-13.9-9.7-27.8-14.8-41.5
			c-5.3-14.2-10.7-28.4-16.3-42.5c-5.7-14.1-11.5-28.1-18-41.8c-3.2-6.8-6.6-13.6-10.3-20.2c-1.9-3.3-3.8-6.5-5.9-9.5
			c-1.1-1.5-2.2-3-3.3-4.3C968.8,767.9,968.2,767.3,967.7,766.8z"/>
		<path class="st2" d="M735.8,781.5c0.9-3.9,1.8-7.9,2.1-11.9c0.2-2,0.2-4,0-6c-0.2-2-0.6-3.9-1.5-5.7c-1.8-3.5-4.8-6.3-8-8.7
			c-3.2-2.4-6.7-4.4-10.4-6c-3.7-1.6-7.4-3-11.3-4.1c-3.9-1.1-7.8-1.9-11.8-2.4c-3.7-0.5-7.4-0.6-11-0.5v0c-0.1,0-0.3,0-0.4,0
			c-0.1,0-0.3,0-0.4,0v0c-3.7-0.1-7.4,0-11,0.5c-4,0.5-7.9,1.3-11.8,2.4c-3.9,1.1-7.6,2.4-11.3,4.1c-3.7,1.6-7.2,3.6-10.4,6
			c-3.2,2.4-6.2,5.2-8,8.7c-0.9,1.7-1.3,3.7-1.5,5.7c-0.2,2-0.2,4,0,6c0.3,4,1.2,8,2.1,11.9c0.9,4,1.8,7.9,2.3,12
			c0.5,4,0.8,8.2,0.5,12.3c-0.3,4.1-0.9,8.3-2.6,12.2c-0.4,1-1,1.9-1.4,2.7c-0.2,0.4-0.5,0.9-0.6,1.3l-0.2,0.7
			c-0.1,0.2-0.1,0.5-0.1,0.7c-0.2,1.9,0.5,3.9,1.4,5.6c2,3.4,5.1,6.2,8.3,8.5c6.6,4.6,14,7.9,21.7,10.3c3.8,1.2,7.7,2.1,11.6,2.7
			c3.6,0.6,7.3,0.8,10.9,0.6v0c0.1,0,0.3,0,0.4,0c0.1,0,0.3,0,0.4,0v0c3.6,0.2,7.2-0.1,10.9-0.6c3.9-0.6,7.8-1.6,11.6-2.7
			c7.6-2.4,15.1-5.7,21.7-10.3c3.2-2.3,6.3-5,8.3-8.5c1-1.7,1.6-3.6,1.4-5.6c0-0.2,0-0.5-0.1-0.7l-0.2-0.7c-0.1-0.5-0.3-0.9-0.6-1.3
			c-0.4-0.9-1-1.8-1.4-2.7c-1.7-3.8-2.3-8-2.6-12.2c-0.3-4.1,0-8.3,0.5-12.3C734,789.4,734.9,785.4,735.8,781.5z"/>
		<path class="st2" d="M412.2,778.3c1.1,1.5,2.4,2.8,3.7,4c1.3,1.2,2.7,2.2,4.1,2.7l20.8,8.3l-22.1-3.4c-3.5-0.5-7.1-0.3-9.5,1.5
			c-2.4,1.7-3.8,5-4.5,8.6c-0.7,3.6-0.8,7.4-0.7,11.2c0.1,3.8,0.4,7.7,0.8,11.6c0.7,7.8,1.8,15.6,2.2,23.6c0.2,4,0.3,8.1-0.3,12.3
			c-0.2,1-0.4,2.1-0.6,3.2c-0.1,0.5-0.3,1.1-0.5,1.6l-0.4,1.3c-0.3,0.8-0.5,1.7-0.7,2.6c-0.1,0.9-0.3,1.8-0.4,2.7
			c-0.3,3.6-0.1,7.4,0.7,11.1c0.7,3.7,1.8,7.3,3.3,10.8c2.9,7,7.2,13.5,12.6,18.5c2.8,2.5,5.8,4.6,9.2,6.1c3.3,1.5,7,2.1,10.5,2
			c1.7,0,3.6-0.4,5.4-0.8c1.9-0.4,3.7-0.9,5.6-1.5c3.7-1.1,7.4-2.3,11.1-3.6c14.7-5.2,29.2-11.3,43.7-17.5
			c14.4-6.2,28.7-12.7,42.9-19.4c14.2-6.7,28.3-13.6,42.2-21c6.9-3.7,13.8-7.5,20.6-11.5c3.4-2,6.7-4.1,9.9-6.3
			c1.6-1.1,3.2-2.3,4.7-3.6c0.7-0.6,1.5-1.3,2.1-2c0.5-0.6,1-1.2,1.3-2c-0.9-1.7-1.5-3.7-1.3-5.7c0-0.3,0-0.5,0.1-0.8l0.2-0.8
			c0.1-0.5,0.3-1,0.6-1.5c0.4-1,0.9-1.8,1.2-2.7c0.6-1.9,0.9-3.9,1-5.8c0.1-2-0.1-4-0.3-5.9c-0.4-4-1-7.9-1.5-11.9
			c-1.1-8-1.4-16.2-1.7-24.3c0-2-0.1-4.1,0.1-6.1c0.2-1.9,0.6-3.9,1.4-5.7c-2.5-2.8-5.3-5.3-8.1-7.7c-3-2.5-6.1-4.9-9.3-7.1
			c-3.2-2.2-6.5-4.3-9.9-6.3c-3.4-2-6.8-3.9-10.2-5.7c-6.9-3.6-14-6.9-21.2-10c-7.2-3.1-14.5-5.9-21.8-8.5
			c-14.7-5.3-29.6-9.9-44.8-13.8c-15.1-3.9-30.4-7.3-45.8-9.8c-7.7-1.3-15.4-2.4-23.2-3.2c-7.7-0.8-15.5-1.4-23.2-1.4
			c-3.9,0-7.7,0.1-11.5,0.4c-3.8,0.3-7.6,0.8-11.1,1.9l-1.3,0.4l-1.3,0.5c-0.4,0.1-0.8,0.3-1.2,0.5l-0.6,0.3c0,0-0.1,0-0.1,0.1
			c0,0,0,0,0,0c0,0,0,0-0.1,0c-0.2,0.1-0.6,0.7-0.8,1.4c-0.2,0.7-0.4,1.5-0.5,2.4c-0.4,3.5,0,7.4,0.4,11.1c1,7.6,2.8,15.1,4.9,22.6
			c2.1,7.5,4.6,14.8,7.4,22c2.8,7.2,6,14.3,9.7,21C407.8,772.1,409.9,775.4,412.2,778.3z M551.2,801.7c-3.7,2.1-7.5,3.8-11.4,5.4
			c-7.8,3.1-15.9,5.5-24.1,7.6c-8.2,2-16.4,3.7-24.7,5c-4.2,0.6-8.3,1.2-12.5,1.6c-2.1,0.2-4.2,0.4-6.3,0.5c-2.1,0.1-4.2,0.2-6.3,0
			c2.1,0.1,4.2-0.1,6.3-0.2c2.1-0.2,4.2-0.4,6.3-0.7c4.2-0.5,8.3-1.1,12.5-1.8c8.3-1.4,16.5-3.1,24.6-5.1c8.1-2,16.2-4.4,24-7.4
			c3.9-1.5,7.8-3.2,11.5-5.2c3.7-2,7.2-4.3,10.3-7.2C558.4,797.2,554.9,799.6,551.2,801.7z M459.9,745.9c3.6-0.1,7.3-0.1,10.9,0.1
			c7.3,0.4,14.5,1.2,21.7,2.2c14.4,2.1,28.6,5.1,42.7,8.7c14,3.7,27.9,8,41.4,13.5c6.7,2.8,13.3,5.8,19.6,9.4c3.1,1.8,6.2,3.8,9,6.1
			c1.4,1.1,2.8,2.4,4,3.7c1.2,1.3,2.3,2.8,3.2,4.4c-0.9-1.6-2-3-3.3-4.3c-1.2-1.3-2.6-2.5-4-3.6c-2.8-2.2-5.9-4.2-9.1-5.9
			c-6.3-3.6-12.9-6.5-19.7-9.2c-13.5-5.3-27.4-9.6-41.4-13.2c-14-3.7-28.2-6.7-42.6-8.9c-7.2-1.1-14.4-2-21.6-2.5
			c-3.6-0.2-7.2-0.4-10.9-0.3c-3.6,0.1-7.3,0.3-10.8,1.1C452.7,746.4,456.3,746.1,459.9,745.9z"/>
		<path class="st1" d="M921,394.3c-22-2.8-44.2-4.9-66.4-5.6c-21.8-0.7-43.7-0.3-65.2,3.2c0.2,0.3,0.4,0.5,0.5,0.8l0.1,0.2l0,0.4
			c0,1.7-0.1,3.5-0.3,5.2c0.9-0.2,1.7-0.4,2.6-0.5c0.7-0.1,1.4-0.3,2.1-0.3l2.1-0.2c2.9-0.2,5.7-0.2,8.6,0c5.7,0.3,11.4,1,17.1,1.9
			c11.3,1.8,22.5,4.4,33.6,7.3c22.2,5.8,44,12.9,65.6,20.5c21.6,7.8,42.9,16.3,63.9,25.3c10.5,4.5,21,9.2,31.4,14
			c0.1,0,0.2,0.1,0.3,0.1c3.4-6.2,6.5-12.5,9.4-18.9c3.2-7.1,6.1-14.4,8.6-21.8c1.1-3,2-5.9,2.9-8.9c-17-4.3-34.1-8.2-51.4-11.7
			C965,400.8,943.1,397.1,921,394.3z"/>
		<path class="st1" d="M1016.4,468.8c-7.7,13.7-16.6,26.7-26.5,38.8c-5,6.1-10.2,11.9-15.8,17.5c-5.3,5.2-10.8,10.3-16.8,14.7
			l0.3,1.1c0.5,2,1.2,4,1.6,6c0.5,2,1,4,1.4,6c0.4,2,0.9,4,1.2,6.1c1.4,8.1,2.3,16.3,2.5,24.5c0.2,8.2-0.2,16.5-1.3,24.6
			c-1.1,8.1-3,16.2-5.6,24c-2.7,7.8-6.2,15.3-10.6,22.2c-4.4,6.9-9.8,13.3-15.9,18.7c-4.8,4.2-10,7.8-15.6,10.7
			c13-2.1,26.2-3.6,39.5-3.8c4,0,7.9,0,11.9,0.3c2.9,0.2,5.8,0.6,8.7,1.1c0.9-1.4,1.7-3,2.5-4.7c1-2.1,1.9-4.2,2.7-6.3
			c1.7-4.3,3.3-8.6,4.8-13c3-8.8,5.7-17.7,8.3-26.6c5.2-17.9,9.8-35.9,13.9-54.1c4.1-18.2,7.7-36.5,10.3-54.9
			c1.3-9.2,2.3-18.5,2.7-27.8c0.2-4.6,0.2-9.3-0.2-13.9c-0.2-2.3-0.5-4.6-1.1-6.9c-0.4-1.6-0.9-3.3-1.8-4.7
			c-0.3-0.1-0.6-0.3-0.9-0.4C1016.7,468.3,1016.5,468.5,1016.4,468.8z"/>
		<path class="st2" d="M977.6,686.5c-3.5-1-7.3-1.5-11.1-1.9c-3.8-0.3-7.7-0.4-11.5-0.4c-7.7,0.1-15.5,0.6-23.2,1.4
			c-7.7,0.8-15.5,1.9-23.2,3.2c-15.4,2.6-30.6,5.9-45.8,9.8c-15.1,3.9-30.1,8.5-44.8,13.8c-7.4,2.6-14.6,5.5-21.8,8.5
			c-7.2,3.1-14.3,6.4-21.2,10c-3.5,1.8-6.9,3.7-10.2,5.7c-3.4,2-6.6,4.1-9.9,6.3c-3.2,2.2-6.3,4.6-9.3,7.1c-2.9,2.4-5.6,5-8.1,7.7
			c0.9,1.8,1.3,3.8,1.4,5.7c0.2,2.1,0.1,4.1,0.1,6.1c-0.3,8.2-0.6,16.4-1.7,24.3c-0.5,4-1.1,7.9-1.5,11.9c-0.2,2-0.3,4-0.3,5.9
			c0.1,2,0.3,4,1,5.8c0.3,1,0.8,1.8,1.2,2.7c0.2,0.5,0.5,1,0.6,1.5l0.2,0.8c0.1,0.3,0.1,0.5,0.1,0.8c0.2,2-0.4,4-1.3,5.7
			c0.3,0.8,0.8,1.4,1.3,2c0.7,0.7,1.4,1.4,2.1,2c1.5,1.3,3.1,2.4,4.7,3.6c3.2,2.2,6.6,4.3,9.9,6.3c6.7,4,13.6,7.8,20.6,11.5
			c13.9,7.3,28,14.3,42.2,21c14.2,6.7,28.5,13.2,42.9,19.4c14.4,6.2,28.9,12.3,43.7,17.5c3.7,1.3,7.4,2.5,11.1,3.6
			c1.9,0.5,3.7,1.1,5.6,1.5c1.9,0.4,3.7,0.8,5.4,0.8c3.6,0.1,7.2-0.5,10.5-2c3.3-1.5,6.4-3.6,9.2-6.1c5.5-5.1,9.7-11.6,12.6-18.5
			c1.4-3.5,2.6-7.1,3.3-10.8c0.7-3.7,1-7.4,0.7-11.1c0-0.9-0.2-1.8-0.4-2.7c-0.2-0.9-0.4-1.8-0.7-2.6l-0.4-1.3
			c-0.2-0.5-0.4-1.1-0.5-1.6c-0.3-1.1-0.5-2.1-0.6-3.2c-0.6-4.2-0.5-8.2-0.3-12.3c0.4-8,1.5-15.8,2.2-23.6c0.4-3.9,0.7-7.8,0.8-11.6
			c0.1-3.8,0-7.6-0.7-11.2c-0.7-3.5-2.1-6.8-4.5-8.6c-2.4-1.8-5.9-2-9.5-1.5l-22.1,3.4l20.8-8.3c1.4-0.5,2.8-1.5,4.1-2.7
			c1.3-1.2,2.5-2.6,3.7-4c2.3-2.9,4.3-6.2,6.2-9.5c3.7-6.7,6.9-13.8,9.7-21c2.8-7.2,5.3-14.6,7.4-22c2.1-7.5,3.9-15,4.9-22.6
			c0.5-3.8,0.8-7.6,0.4-11.1c-0.1-0.9-0.3-1.7-0.5-2.4c-0.2-0.7-0.6-1.2-0.8-1.4c0,0-0.1,0-0.1,0c0,0,0,0,0,0c0,0-0.1,0-0.1-0.1
			l-0.6-0.3c-0.4-0.2-0.8-0.4-1.2-0.5l-1.3-0.5L977.6,686.5z M894.8,821.7c-2.1-0.1-4.2-0.3-6.3-0.5c-4.2-0.4-8.4-1-12.5-1.6
			c-8.3-1.3-16.6-3-24.7-5c-8.1-2.1-16.3-4.5-24.1-7.6c-3.9-1.6-7.7-3.3-11.4-5.4c-3.6-2.1-7.2-4.5-10.1-7.6c3,2.9,6.6,5.2,10.3,7.2
			c3.7,2,7.5,3.7,11.5,5.2c7.8,3,15.9,5.4,24,7.4c8.1,2,16.4,3.7,24.6,5.1c4.1,0.7,8.3,1.3,12.5,1.8c2.1,0.3,4.2,0.5,6.3,0.7
			c2.1,0.2,4.2,0.3,6.3,0.2C899,821.9,896.9,821.8,894.8,821.7z M907.1,746.1c-3.6-0.1-7.2,0.1-10.9,0.3c-7.2,0.5-14.4,1.4-21.6,2.5
			c-14.3,2.2-28.5,5.2-42.6,8.9c-14,3.6-27.9,7.9-41.4,13.2c-6.7,2.7-13.4,5.6-19.7,9.2c-3.2,1.8-6.2,3.7-9.1,5.9
			c-1.4,1.1-2.8,2.3-4,3.6c-1.2,1.3-2.4,2.7-3.3,4.3c0.8-1.6,2-3.1,3.2-4.4c1.2-1.3,2.6-2.6,4-3.7c2.8-2.3,5.9-4.3,9-6.1
			c6.3-3.6,12.9-6.7,19.6-9.4c13.5-5.5,27.4-9.8,41.4-13.5c14.1-3.6,28.3-6.6,42.7-8.7c7.2-1,14.4-1.8,21.7-2.2
			c3.6-0.2,7.3-0.2,10.9-0.1c3.6,0.1,7.3,0.4,10.8,1.3C914.3,746.4,910.7,746.2,907.1,746.1z"/>
		<path class="st1" d="M411.3,534.9c2.8-7.8,6.7-15.1,11.1-22.1c8.9-13.9,19.8-26.4,31.5-37.9c11.8-11.5,24.6-22,38.1-31.3
			c13.6-9.3,27.9-17.6,43.2-24c7.7-3.1,15.6-5.8,23.8-7.3c4.1-0.8,8.3-1.3,12.5-1.4c3,0,6.1,0.1,9.1,0.6c-1.7-4.1-3-8.4-3.5-12.9
			c-0.9-0.2-1.8-0.4-2.7-0.5c-0.7-0.1-1.4-0.2-2.1-0.3l-2.1-0.1c-2.9-0.1-5.7-0.1-8.6,0.1c-5.7,0.4-11.4,1.2-17,2.1
			c-11.3,1.9-22.4,4.6-33.5,7.6c-22.1,6-43.8,13.2-65.3,21.1c-21.5,7.8-42.8,16.2-63.8,25.2c-10.5,4.5-21,9.1-31.4,13.9
			c-0.1,0-0.1,0.1-0.2,0.1c0.1,0.3,0.3,0.5,0.4,0.8c7.6,13.7,16.4,26.7,26.3,38.9c4.9,6.1,10.2,11.9,15.7,17.5
			c5.2,5.3,10.7,10.3,16.7,14.8l0.1-0.4l0.5-1.5C410.6,536.9,410.9,535.9,411.3,534.9z"/>
		<path class="st3" d="M745.3,749.7c2.9-2.6,6-5.1,9.2-7.4c3.2-2.3,6.4-4.5,9.8-6.6c3.3-2.1,6.7-4.1,10.1-6
			c6.9-3.8,13.9-7.3,21.1-10.6c7.1-3.3,14.4-6.3,21.7-9.1c14.7-5.6,29.6-10.5,44.8-14.7c7.6-2.1,15.2-4,22.8-5.8
			c7.7-1.8,15.4-3.4,23.1-4.7c2.4-0.4,4.9-0.8,7.4-1.2c5.6-3,10.8-6.7,15.6-11c6-5.5,11.3-11.9,15.6-18.8c4.3-7,7.7-14.4,10.3-22.2
			c2.5-7.8,4.3-15.8,5.3-23.9c1.1-8.1,1.4-16.3,1.1-24.4c-0.3-8.2-1.3-16.3-2.8-24.3c-0.3-2-0.8-4-1.2-6c-0.4-2-1-4-1.5-5.9
			c-0.5-2-1.1-3.9-1.7-5.9l-0.4-1.5l-0.5-1.4c-0.3-1-0.7-1.9-1-2.9c-2.9-7.6-6.8-14.8-11.2-21.6c-8.9-13.6-19.8-25.9-31.6-37.2
			c-11.8-11.2-24.6-21.5-38.1-30.6c-13.5-9.1-27.8-17.1-42.8-23.2c-7.5-3-15.3-5.4-23.2-6.9c-3.9-0.7-7.9-1.2-11.9-1.2
			c-3.8,0-7.6,0.4-11.3,1.3c-2.4,4.7-5.4,9.1-8.7,13.2c-4.1,5.1-8.5,9.9-12.9,14.7c-2.2,2.4-4.4,4.7-6.7,7.1c-2.3,2.3-4.6,4.6-7,6.8
			c-9.4,8.9-19.5,17.2-30,24.8c-5.3,3.8-10.7,7.4-16.4,10.7c-2.8,1.7-5.8,3.2-8.8,4.6l-2.3,1c-0.8,0.3-1.6,0.6-2.4,0.9
			c-0.4,0.2-0.8,0.3-1.3,0.4l-1.3,0.3c-0.4,0.1-0.9,0.2-1.4,0.3l-1.1,0.1c0.3,5.4,0.5,10.8,0.7,16.2l0.3,9.1l0.3,9.1
			c0.1,3,0.2,6.1,0.4,9.1c0.1,3,0.1,6.1,0,9.1l-0.2,4.6c-0.1,1.5-0.2,3-0.4,4.6c-0.2,2.3-0.5,4.6-0.9,6.9l0,0
			c-0.1,0.6-0.2,1.2-0.3,1.8c2.4,7.6,6.6,14.3,11.6,20.3c2.7,3.3,5.6,6.4,8.7,9.3c3.1,2.9,6.3,5.7,9.7,8.3
			c6.7,5.2,13.8,9.9,21.2,14.2c7.4,4.3,15.1,8,23.1,11.1c8,3.1,16.2,5.6,24.5,7.3c8.4,1.8,16.9,2.8,25.4,2.7c8.5,0,17.1-1,25.3-3.5
			c8.2-2.5,15.9-6.5,22.5-12.1l0.3,0.3c-3.2,2.9-6.7,5.5-10.5,7.7c-3.8,2.2-7.8,3.9-11.9,5.3c-8.2,2.8-17,4.1-25.7,4.4
			c-8.7,0.2-17.4-0.6-26-2.2c-8.6-1.6-17-3.9-25.2-6.9c-16.3-6-32.2-13.9-45.7-25.1c-6.7-5.6-13-11.8-18.1-19
			c-2.6-3.6-4.8-7.4-6.6-11.4c-1.3-2.9-2.3-5.9-3-9c-0.7,3.1-1.7,6.1-3,9c-1.8,4-4,7.8-6.6,11.4c-5.1,7.2-11.4,13.4-18.1,19
			c-13.5,11.2-29.4,19.2-45.7,25.1c-8.2,2.9-16.6,5.3-25.2,6.9c-8.6,1.6-17.3,2.4-26,2.2c-8.7-0.3-17.4-1.6-25.7-4.4
			c-4.1-1.4-8.1-3.2-11.9-5.3c-3.8-2.2-7.3-4.7-10.5-7.7l0.3-0.3c6.6,5.6,14.3,9.6,22.5,12.1c8.2,2.5,16.8,3.5,25.3,3.5
			c8.5,0,17.1-1,25.4-2.7c8.4-1.8,16.6-4.2,24.5-7.3c8-3.1,15.7-6.8,23.1-11.1c7.4-4.3,14.5-8.9,21.2-14.2c3.4-2.6,6.6-5.4,9.7-8.3
			c3.1-2.9,6-6,8.7-9.3c4.9-6,9.2-12.8,11.6-20.3c-0.1-0.6-0.2-1.2-0.3-1.8l0,0c-0.4-2.3-0.6-4.6-0.9-6.9c-0.2-1.5-0.3-3-0.4-4.6
			l-0.2-4.6c-0.1-3-0.1-6.1,0-9.1c0.2-3,0.3-6.1,0.4-9.1l0.3-9.1l0.3-9.1c0.3-5.4,0.5-10.8,0.7-16.2L682,501c-0.5-0.1-1-0.1-1.4-0.3
			l-1.3-0.3c-0.4-0.1-0.9-0.2-1.3-0.4c-0.8-0.3-1.6-0.6-2.4-0.9l-2.3-1c-3-1.4-6-2.9-8.8-4.6c-5.7-3.3-11.1-6.9-16.4-10.7
			c-10.6-7.6-20.6-15.9-30-24.8c-2.4-2.2-4.7-4.5-7-6.8c-2.2-2.3-4.5-4.7-6.7-7.1c-4.4-4.8-8.8-9.5-12.9-14.7
			c-3.3-4.1-6.2-8.5-8.7-13.2c-3.6-0.9-7.4-1.3-11.3-1.3c-4,0-7.9,0.5-11.9,1.2c-7.9,1.4-15.6,3.9-23.2,6.9
			c-15,6-29.3,14.1-42.8,23.2c-13.5,9.1-26.3,19.4-38.1,30.6c-11.8,11.3-22.7,23.5-31.6,37.2c-4.4,6.8-8.3,14-11.2,21.6
			c-0.4,0.9-0.7,1.9-1,2.9l-0.5,1.4l-0.4,1.5c-0.6,2-1.2,3.9-1.7,5.9c-0.5,2-1,3.9-1.5,5.9c-0.4,2-0.9,4-1.2,6
			c-1.5,8-2.5,16.1-2.8,24.3c-0.3,8.2,0,16.3,1.1,24.4c1,8.1,2.8,16.1,5.3,23.9c2.6,7.7,6,15.2,10.3,22.2c4.3,7,9.6,13.3,15.6,18.8
			c4.7,4.2,10,7.9,15.6,11c2.5,0.4,4.9,0.8,7.4,1.2c7.7,1.4,15.4,3,23.1,4.7c7.7,1.8,15.3,3.7,22.8,5.8c15.1,4.2,30.1,9.1,44.8,14.7
			c7.3,2.8,14.6,5.8,21.7,9.1c7.2,3.2,14.2,6.7,21.1,10.6c3.4,1.9,6.8,3.9,10.1,6c3.3,2.1,6.6,4.3,9.8,6.6c3.2,2.3,6.2,4.8,9.2,7.4
			c2.8,2.5,5.4,5.2,7.9,8c0-0.1,0.1-0.2,0.1-0.3c0.9-1.9,2.2-3.5,3.6-5.1c1.4-1.5,2.9-2.9,4.6-4.1c6.5-5,14.1-8.5,21.8-11.1
			c7.5-2.5,15.3-4.1,23.4-4.6v-0.1c0.1,0,0.3,0,0.4,0c0.1,0,0.3,0,0.4,0v0.1c8,0.5,15.9,2.2,23.4,4.6c7.8,2.6,15.3,6.1,21.8,11.1
			c1.6,1.3,3.2,2.6,4.6,4.1c1.4,1.5,2.7,3.2,3.6,5.1c0,0.1,0.1,0.2,0.1,0.3C739.9,754.9,742.5,752.2,745.3,749.7z M868.9,512.4
			c0.9,0,1.7,0.7,1.7,1.7s-0.7,1.7-1.7,1.7s-1.7-0.7-1.7-1.7S868,512.4,868.9,512.4z M744.2,520.8c-0.9,0-1.7-0.7-1.7-1.7
			s0.7-1.7,1.7-1.7s1.7,0.7,1.7,1.7S745.1,520.8,744.2,520.8z M768.5,538.4c-0.9,0-1.7-0.7-1.7-1.7s0.7-1.7,1.7-1.7s1.7,0.7,1.7,1.7
			S769.4,538.4,768.5,538.4z M775.6,479.4c0.9,0,1.7,0.7,1.7,1.7s-0.7,1.7-1.7,1.7s-1.7-0.7-1.7-1.7S774.7,479.4,775.6,479.4z
			 M776,567.7c-0.9,0-1.7-0.7-1.7-1.7s0.7-1.7,1.7-1.7s1.7,0.7,1.7,1.7S776.9,567.7,776,567.7z M782.7,510.8c-0.9,0-1.7-0.7-1.7-1.7
			s0.7-1.7,1.7-1.7s1.7,0.7,1.7,1.7S783.6,510.8,782.7,510.8z M796.9,547.6c-0.9,0-1.7-0.7-1.7-1.7c0-0.9,0.7-1.7,1.7-1.7
			s1.7,0.7,1.7,1.7C798.6,546.8,797.8,547.6,796.9,547.6z M807,520.8c-0.9,0-1.7-0.7-1.7-1.7s0.7-1.7,1.7-1.7s1.7,0.7,1.7,1.7
			S807.9,520.8,807,520.8z M811.1,478.1c0-0.9,0.7-1.7,1.7-1.7s1.7,0.7,1.7,1.7c0,0.9-0.7,1.7-1.7,1.7S811.1,479,811.1,478.1z
			 M813.7,563.5c-0.9,0-1.7-0.7-1.7-1.7s0.7-1.7,1.7-1.7s1.7,0.7,1.7,1.7S814.6,563.5,813.7,563.5z M827.9,510.8
			c-0.9,0-1.7-0.7-1.7-1.7s0.7-1.7,1.7-1.7s1.7,0.7,1.7,1.7S828.8,510.8,827.9,510.8z M837.1,540.9c-0.9,0-1.7-0.7-1.7-1.7
			s0.7-1.7,1.7-1.7s1.7,0.7,1.7,1.7S838,540.9,837.1,540.9z M848.8,586.1c-0.9,0-1.7-0.7-1.7-1.7s0.7-1.7,1.7-1.7s1.7,0.7,1.7,1.7
			S849.7,586.1,848.8,586.1z M854.7,559.3c-0.9,0-1.7-0.7-1.7-1.7s0.7-1.7,1.7-1.7s1.7,0.7,1.7,1.7S855.6,559.3,854.7,559.3z
			 M622.8,517.5c0.9,0,1.7,0.7,1.7,1.7s-0.7,1.7-1.7,1.7s-1.7-0.7-1.7-1.7S621.9,517.5,622.8,517.5z M598.5,535
			c0.9,0,1.7,0.7,1.7,1.7s-0.7,1.7-1.7,1.7s-1.7-0.7-1.7-1.7S597.6,535,598.5,535z M591.4,479.4c0.9,0,1.7,0.7,1.7,1.7
			s-0.7,1.7-1.7,1.7s-1.7-0.7-1.7-1.7S590.5,479.4,591.4,479.4z M591,564.3c0.9,0,1.7,0.7,1.7,1.7s-0.7,1.7-1.7,1.7
			s-1.7-0.7-1.7-1.7S590.1,564.3,591,564.3z M584.3,507.4c0.9,0,1.7,0.7,1.7,1.7s-0.7,1.7-1.7,1.7c-0.9,0-1.7-0.7-1.7-1.7
			S583.4,507.4,584.3,507.4z M570.1,544.2c0.9,0,1.7,0.7,1.7,1.7c0,0.9-0.7,1.7-1.7,1.7s-1.7-0.7-1.7-1.7
			C568.4,545,569.2,544.2,570.1,544.2z M560,517.5c0.9,0,1.7,0.7,1.7,1.7s-0.7,1.7-1.7,1.7c-0.9,0-1.7-0.7-1.7-1.7
			S559.1,517.5,560,517.5z M554.2,476.4c0.9,0,1.7,0.7,1.7,1.7c0,0.9-0.7,1.7-1.7,1.7s-1.7-0.7-1.7-1.7
			C552.5,477.2,553.3,476.4,554.2,476.4z M553.3,560.2c0.9,0,1.7,0.7,1.7,1.7s-0.7,1.7-1.7,1.7s-1.7-0.7-1.7-1.7
			S552.4,560.2,553.3,560.2z M539.1,507.4c0.9,0,1.7,0.7,1.7,1.7s-0.7,1.7-1.7,1.7s-1.7-0.7-1.7-1.7S538.2,507.4,539.1,507.4z
			 M498.1,515.8c-0.9,0-1.7-0.7-1.7-1.7s0.7-1.7,1.7-1.7s1.7,0.7,1.7,1.7S499,515.8,498.1,515.8z M529.9,537.6
			c0.9,0,1.7,0.7,1.7,1.7s-0.7,1.7-1.7,1.7s-1.7-0.7-1.7-1.7S529,537.6,529.9,537.6z M518.2,582.8c0.9,0,1.7,0.7,1.7,1.7
			s-0.7,1.7-1.7,1.7s-1.7-0.7-1.7-1.7S517.3,582.8,518.2,582.8z M512.3,556c0.9,0,1.7,0.7,1.7,1.7s-0.7,1.7-1.7,1.7
			s-1.7-0.7-1.7-1.7S511.4,556,512.3,556z"/>
		<path class="st1" d="M350.1,466.4c10.4-4.8,20.9-9.5,31.4-14c21.1-9,42.4-17.5,63.9-25.3c21.6-7.7,43.4-14.7,65.6-20.5
			c11.1-2.9,22.3-5.4,33.6-7.3c5.7-0.9,11.4-1.6,17.1-1.9c2.9-0.1,5.7-0.2,8.6,0l2.1,0.2c0.7,0,1.4,0.2,2.1,0.3
			c0.9,0.1,1.7,0.3,2.6,0.5c-0.2-1.7-0.3-3.5-0.3-5.2l0-0.4l0.1-0.2c0.2-0.3,0.4-0.5,0.5-0.8c-21.5-3.4-43.5-3.8-65.2-3.2
			c-22.2,0.7-44.3,2.8-66.4,5.6c-22,2.8-43.9,6.5-65.7,10.9c-17.2,3.4-34.3,7.4-51.4,11.7c0.9,3,1.9,6,2.9,8.9
			c2.6,7.4,5.4,14.7,8.6,21.8c2.9,6.4,6,12.7,9.4,18.9C349.9,466.4,350,466.4,350.1,466.4z"/>
		<path class="st1" d="M989.7,507.5c9.9-12.2,18.7-25.2,26.3-38.9c0.1-0.3,0.3-0.5,0.4-0.8c-0.1,0-0.1-0.1-0.2-0.1
			c-10.4-4.8-20.9-9.4-31.4-13.9c-21-9-42.3-17.5-63.8-25.2c-21.5-7.9-43.2-15.1-65.3-21.1c-11-3-22.2-5.6-33.5-7.6
			c-5.6-1-11.3-1.8-17-2.1c-2.9-0.2-5.7-0.3-8.6-0.1l-2.1,0.1c-0.7,0-1.4,0.2-2.1,0.3c-0.9,0.1-1.8,0.3-2.7,0.5
			c-0.6,4.4-1.8,8.8-3.5,12.9c3-0.5,6.1-0.7,9.1-0.6c4.2,0.1,8.4,0.6,12.5,1.4c8.2,1.6,16.1,4.2,23.8,7.3
			c15.3,6.3,29.7,14.6,43.2,24c13.5,9.4,26.3,19.8,38.1,31.3c11.8,11.5,22.6,24,31.5,37.9c4.4,7,8.3,14.3,11.1,22.1
			c0.4,1,0.7,1.9,1,2.9l0.5,1.5l0.1,0.4c6-4.4,11.5-9.5,16.7-14.8C979.6,519.4,984.8,513.6,989.7,507.5z"/>
		<path class="st4" d="M536.3,246.7c-1.1-0.5-2.2-0.9-3.3-1.1c-1.1-0.2-2.3-0.3-3.4-0.2c-2.3,0.1-4.5,1.2-5.5,3.1
			c-1,2-0.5,4.5,0.7,6.4c1.3,2,3.2,3.6,5.3,4.7c2.1,1.1,4.5,1.7,7,1.6c1.2-0.1,2.4-0.4,3.5-1c1.1-0.6,2-1.5,2.5-2.6
			c0.5-1.1,0.6-2.4,0.3-3.5c-0.3-1.2-0.8-2.3-1.5-3.2C540.4,249,538.4,247.7,536.3,246.7z"/>
		<path class="st1" d="M445.8,393.5c22.1-2.7,44.2-4.7,66.4-5.3c21.8-0.6,43.8-0.1,65.4,3.5c0.6-0.9,1.3-1.8,2-2.7
			c-4.9-3.3-10.3-5.8-15.9-7.9c-5.8-2.2-11.7-4.1-17.7-5.7c-12-3.3-24.2-5.6-36.5-7.6c-24.6-3.9-49.4-6-74.2-7.3
			c-24.8-1.4-49.7-1.9-74.6-1.7c-13.9,0.1-27.9,0.4-41.8,0.9c0.2,6.9,0.7,13.7,1.6,20.5c1,7.8,2.6,15.4,4.5,23
			c0.9,3.8,2,7.6,3.1,11.3c0.1,0.3,0.2,0.7,0.3,1c17.1-4.3,34.3-8.1,51.5-11.5C401.8,399.8,423.8,396.2,445.8,393.5z"/>
		<path class="st1" d="M1043.5,310.2c-1.4-7.7-3.3-15.3-5.3-22.9c-4.1-15.1-9.3-29.9-15.1-44.4c-2.9-7.3-6-14.5-9.1-21.6
			c-3-6.8-6.1-13.6-9-20.5c-0.1-0.2-0.2-0.4-0.2-0.6c-0.1-0.2-0.1-0.3-0.2-0.5l0,0c0,0,0,0,0,0l1.6-0.6c0,0.1,0.1,0.1,0.1,0.2
			c0.5,1.2,1.2,2.3,2,3.3c0.8,1.1,1.8,2.2,2.8,3.1c2,2,4.3,3.8,6.6,5.5c4.7,3.4,9.7,6.3,14.8,8.9c5.2,2.6,10.5,4.8,16,6.6
			c5.5,1.7,11.1,3,16.8,3.2c2.8,0.1,5.7-0.1,8.3-1c1.3-0.4,2.6-1,3.7-1.7c1.1-0.7,2.1-1.7,2.9-2.7c0.8-1.1,1.4-2.3,1.8-3.6
			c0.1-0.3,0.2-0.6,0.3-1c0.1-0.3,0.2-0.7,0.2-1c0.1-0.7,0.2-1.4,0.3-2.1c0.2-2.8,0-5.6-0.5-8.4c-0.5-2.8-1.4-5.5-2.1-8.3l-1.5-4
			c-0.1-0.3-0.2-0.7-0.4-1l-0.5-1l-0.9-1.9c-2.5-5.1-5.7-9.9-9.5-14.2c-3.8-4.3-8.3-7.9-13.1-11c-4.8-3.2-9.9-5.8-15.2-8.1
			c-10.6-4.7-21.7-7.9-32.9-11.2c-5.6-1.6-11.2-3.3-16.7-5.1c-5.6-1.8-11.1-3.9-16.4-6.5c-2.6-1.3-5.3-2.7-7.7-4.4l-1.8-1.3
			c-0.6-0.5-1.2-0.9-1.8-1.4c-1.2-0.9-2.3-1.9-3.3-2.9c-4.4-3.8-8.9-7.4-13.5-10.9c-18.6-13.9-38.8-25.5-59.7-35.4
			c-10.5-5-21.2-9.5-32-13.6c-10.9-4.1-21.9-7.7-33-11c-5.6-1.6-11.1-3.2-16.8-4.6c-5.6-1.5-11.3-2.7-16.9-4
			c-2.8-0.7-5.7-1.2-8.5-1.8c-2.8-0.6-5.7-1.2-8.5-1.7c-5.7-1-11.4-2.1-17.2-2.9c-22.8-3.4-45.8-5.5-68.8-6.3
			c-23,0.8-46,2.9-68.8,6.3c-5.7,0.8-11.4,1.9-17.2,2.9c-2.9,0.5-5.7,1.1-8.5,1.7c-2.8,0.6-5.7,1.1-8.5,1.8
			c-5.7,1.3-11.3,2.5-16.9,4c-5.6,1.4-11.2,3-16.8,4.6c-11.1,3.3-22.1,6.9-33,11c-10.8,4.1-21.5,8.6-32,13.6
			c-20.9,9.9-41.1,21.6-59.7,35.4c-4.6,3.5-9.2,7.1-13.5,10.9c-1.1,0.9-2.1,1.9-3.3,2.9c-0.6,0.5-1.2,1-1.8,1.4l-1.8,1.3
			c-2.5,1.7-5.1,3.1-7.7,4.4c-5.3,2.6-10.8,4.6-16.4,6.5c-5.6,1.8-11.2,3.5-16.7,5.1c-11.2,3.3-22.3,6.6-32.9,11.2
			c-5.3,2.3-10.4,5-15.2,8.1c-4.8,3.1-9.3,6.8-13.1,11c-3.8,4.2-7,9-9.5,14.2l-0.9,1.9l-0.5,1c-0.1,0.3-0.3,0.7-0.4,1l-1.5,4
			c-0.8,2.8-1.7,5.5-2.1,8.3c-0.5,2.8-0.8,5.6-0.5,8.4c0,0.7,0.2,1.4,0.3,2.1c0.1,0.3,0.2,0.7,0.2,1c0.1,0.3,0.2,0.7,0.3,1
			c0.4,1.3,1,2.5,1.8,3.6c0.8,1.1,1.8,2,2.9,2.7c1.1,0.7,2.4,1.3,3.7,1.7c2.6,0.8,5.5,1,8.3,1c5.7-0.2,11.3-1.5,16.8-3.2
			c5.5-1.8,10.8-4,16-6.6c5.2-2.6,10.1-5.5,14.8-8.9c2.3-1.7,4.6-3.5,6.6-5.5c1-1,2-2,2.8-3.1c0.8-1.1,1.5-2.2,2-3.3
			c0-0.1,0.1-0.2,0.1-0.2l1.6,0.6c0,0,0,0,0,0l0,0c-0.1,0.2-0.1,0.3-0.2,0.5c-0.1,0.2-0.2,0.4-0.2,0.6c-2.9,6.9-6,13.7-9,20.5
			c-3.2,7.2-6.2,14.4-9.1,21.6c-5.8,14.5-11,29.3-15.1,44.4c-2,7.6-3.9,15.2-5.3,22.9c-1.4,7.7-2.6,15.4-3.4,23.2
			c-0.8,8.2-1.2,16.5-1,24.8c13.9-0.6,27.9-1,41.8-1.1c24.9-0.2,49.8,0.3,74.7,1.7c24.9,1.5,49.7,3.8,74.3,7.9
			c12.3,2.1,24.5,4.5,36.5,7.9c6,1.7,11.9,3.7,17.7,6c5.5,2.2,10.9,4.8,15.8,8.2c2.2-2.6,4.7-5,7.3-7.1c3.8-3.1,7.9-5.8,12.1-8.1
			c4.3-2.3,8.7-4.3,13.3-6.1c4.5-1.8,9.2-3.3,13.8-4.6c9.3-2.7,18.9-4.7,28.5-6.2c4.8-0.7,9.6-1.4,14.5-1.9c4.6-0.4,9.2-0.8,13.8-1
			v0c0.1,0,0.3,0,0.4,0c0.1,0,0.3,0,0.4,0v0c4.6,0.2,9.2,0.5,13.8,1c4.9,0.5,9.7,1.1,14.5,1.9c9.6,1.5,19.1,3.5,28.5,6.2
			c4.7,1.3,9.3,2.9,13.8,4.6c4.5,1.8,9,3.7,13.3,6.1c4.3,2.3,8.4,5,12.1,8.1c2.6,2.1,5.1,4.5,7.3,7.1c4.9-3.4,10.3-6,15.8-8.2
			c5.8-2.3,11.7-4.3,17.7-6c12-3.4,24.2-5.8,36.5-7.9c24.6-4.1,49.4-6.4,74.3-7.9c24.9-1.4,49.8-1.9,74.7-1.7
			c13.9,0.1,27.9,0.5,41.8,1.1c0.1-8.3-0.2-16.6-1-24.8C1046.1,325.6,1045,317.9,1043.5,310.2z M575.6,280.1
			c-0.2-0.2-0.4-0.3-0.6-0.5c-2.3,6.4-6,12.1-10.3,17.1c-4.8,5.5-10.4,10.1-16.4,13.8c-6.1,3.7-12.7,6.7-19.7,8.1
			c-3.5,0.7-7.1,1.1-10.6,0.9c-1.8-0.1-3.6-0.4-5.3-0.7c-1.7-0.4-3.5-0.9-5.2-1.4c-6.8-2-13.5-4.8-19.4-8.7c-3-1.9-5.8-4.1-8.4-6.6
			c-2.6-2.5-4.9-5.2-6.9-8.2c-2-3-3.7-6.2-5.1-9.5c-1.4-3.3-2.5-6.8-3.3-10.3c-0.5-1.7-0.7-3.5-1.1-5.3c-0.2-1.8-0.5-3.6-0.7-5.4
			c-0.1-0.9-0.2-1.8-0.2-2.7l-0.1-2.7c-0.1-1-0.1-2.1-0.1-3.1c-0.6,0.2-1.1,0.5-1.7,0.7c-3.4,1.3-6.8,2.5-10.4,3.3l-2.7,0.5
			l-2.7,0.4l-2.7,0.2l-2.7,0c7.2-0.6,14-3,20.3-6.2c6.4-3.1,12.5-6.9,18.9-10.3c6.4-3.5,13.1-6.5,20.2-8.4c3.6-1,7.2-1.6,10.9-2
			c3.7-0.3,7.4-0.4,11.1-0.2c3.7,0.3,7.3,0.8,11,1.5c3.6,0.8,7.2,1.9,10.6,3.4c3.4,1.6,6.7,3.5,9.6,5.9c2.9,2.4,5.5,5.1,7.7,8.1
			c2.2,3,4.1,6.1,5.8,9.3c1.7,3.2,3.3,6.4,5,9.5c1.3,2.4,2.8,4.8,4.6,6.9l0.8,0.2c-0.1,0.2-0.1,0.3-0.2,0.5c0.3,0.3,0.6,0.6,0.9,0.9
			c0.6,0.7,1.3,1.2,2,1.7c0.7,0.5,1.4,1,2.2,1.4c1.5,0.9,3.2,1.5,5,1.9C582,283.9,578.4,282.5,575.6,280.1z M925.2,260.1l-2.7-0.2
			l-2.7-0.4l-2.7-0.5c-3.6-0.8-7-2-10.4-3.3c-0.6-0.2-1.1-0.5-1.7-0.7c0,1,0,2.1-0.1,3.1l-0.1,2.7c-0.1,0.9-0.2,1.8-0.2,2.7
			c-0.1,1.8-0.4,3.6-0.7,5.4c-0.3,1.8-0.6,3.6-1.1,5.3c-0.8,3.5-1.9,7-3.3,10.3c-1.4,3.3-3.1,6.5-5.1,9.5c-2,3-4.4,5.7-6.9,8.2
			c-2.6,2.5-5.4,4.7-8.4,6.6c-6,3.9-12.6,6.7-19.4,8.7c-1.7,0.5-3.4,1-5.2,1.4c-1.7,0.4-3.5,0.7-5.3,0.7c-3.6,0.2-7.1-0.2-10.6-0.9
			c-7-1.5-13.6-4.4-19.7-8.1c-6.1-3.8-11.7-8.4-16.4-13.8c-4.4-5-8-10.7-10.3-17.1c-0.2,0.2-0.4,0.3-0.6,0.5
			c-2.8,2.4-6.4,3.8-9.9,4.2c1.7-0.5,3.4-1,5-1.9c0.8-0.4,1.5-0.9,2.2-1.4c0.7-0.6,1.4-1.1,2-1.7c0.3-0.3,0.6-0.6,0.9-0.9
			c-0.1-0.2-0.1-0.3-0.2-0.5l0.8-0.2c1.8-2.1,3.2-4.5,4.6-6.9c1.7-3.1,3.3-6.3,5-9.5c1.7-3.2,3.6-6.4,5.8-9.3c2.2-3,4.8-5.7,7.7-8.1
			c2.9-2.4,6.2-4.3,9.6-5.9c3.4-1.5,7-2.6,10.6-3.4c3.6-0.8,7.3-1.3,11-1.5c3.7-0.2,7.4-0.1,11.1,0.2c3.7,0.4,7.3,1,10.9,2
			c7.1,1.9,13.9,4.9,20.2,8.4c6.4,3.4,12.5,7.2,18.9,10.3c6.4,3.2,13.1,5.6,20.3,6.2L925.2,260.1z"/>
		<path class="st4" d="M826.5,260.3c1.1,0.6,2.3,0.9,3.5,1c2.4,0.1,4.8-0.5,7-1.6c2.1-1.1,4-2.7,5.3-4.7c1.3-2,1.7-4.5,0.7-6.4
			c-1-2-3.3-3-5.5-3.1c-1.1-0.1-2.3,0-3.4,0.2c-1.1,0.2-2.2,0.6-3.3,1.1c-2.1,1-4.1,2.3-5.6,4.2c-0.7,0.9-1.3,2-1.5,3.2
			c-0.3,1.2-0.2,2.4,0.3,3.5C824.5,258.8,825.4,259.7,826.5,260.3z"/>
		<path class="st4" d="M529,309c-4.9-0.7-9.7-2.4-14.1-4.7c-4.4-2.3-8.4-5.3-12-8.7c-3.6-3.4-6.7-7.2-9.4-11.3
			c-2.7-4.1-5-8.5-6.7-13.1c-1.8-4.6-3-9.3-3.6-14.2c-0.5-4-0.6-8.1-0.2-12.1c-1.1,0.5-2.2,1-3.3,1.6c-4.5,2.2-9,4.6-13.7,6.7
			c-0.3,3.4-0.6,6.8-0.5,10.2c0,1.7,0.1,3.5,0.2,5.2c0.2,1.7,0.3,3.5,0.7,5.2c1.1,6.9,3.5,13.6,7.2,19.6c3.7,6,8.8,11,14.6,15
			c5.9,3.9,12.4,6.8,19.2,8.8c3.4,1,6.8,1.9,10.4,2c3.5,0.1,7.1-0.2,10.5-1c6.9-1.6,13.4-4.6,19.2-8.6c2.3-1.6,4.6-3.3,6.7-5.1
			c-3.3,1.8-6.9,3.1-10.6,4C539,309.5,533.9,309.7,529,309z"/>
		<path class="st4" d="M887.2,246.4c-1.1-0.5-2.2-1-3.3-1.6c0.5,4,0.3,8.1-0.2,12.1c-0.6,4.8-1.9,9.6-3.6,14.2
			c-1.7,4.6-4,9-6.7,13.1c-2.7,4.1-5.9,7.9-9.4,11.3c-3.6,3.4-7.6,6.4-12,8.7c-4.4,2.3-9.1,4-14.1,4.7c-4.9,0.7-9.9,0.5-14.7-0.6
			c-3.7-0.9-7.3-2.2-10.6-4c2.1,1.9,4.4,3.6,6.7,5.1c5.8,3.9,12.3,6.9,19.2,8.6c3.4,0.8,7,1.2,10.5,1c3.5-0.1,7-1.1,10.4-2
			c6.8-2,13.4-4.8,19.2-8.8c5.8-4,11-9,14.6-15c3.7-6,6.1-12.7,7.2-19.6c0.3-1.7,0.5-3.5,0.7-5.2c0.1-1.7,0.3-3.5,0.2-5.2
			c0.1-3.4-0.2-6.8-0.5-10.2C896.3,251,891.8,248.6,887.2,246.4z"/>
		<path d="M837.5,306.4c4.6-0.9,9-2.6,13-4.9c4.1-2.3,7.8-5.1,11.2-8.3c3.4-3.2,6.4-6.8,9.1-10.7c2.7-3.9,5-8,6.9-12.3
			c3.5-8,5.7-16.6,5.9-25.5c-2-0.9-4-1.8-6.1-2.6c-3.3-1.3-6.6-2.4-10-3.2c-3.4-0.8-6.8-1.5-10.3-1.8c-3.5-0.3-7-0.3-10.5-0.1
			c-3.5,0.2-7,0.7-10.4,1.4c-3.4,0.7-6.7,1.7-9.9,3c-3.2,1.3-6.2,3.1-8.9,5.1c-2.7,2.1-5.2,4.5-7.4,7.2c-4.4,5.4-7.7,11.8-11.6,17.9
			c-1.2,1.8-2.5,3.6-3.9,5.2l0.8-0.2c1.3,6.6,4.5,12.9,8.7,18.5c2.3,3,4.8,5.7,7.6,8.3c3.8,1.5,7.8,2.7,11.8,3.2
			C828.2,307.4,833,307.3,837.5,306.4z M824.4,250.4c1.3-2.3,3.3-4.1,5.6-5.3c1.2-0.6,2.4-1,3.7-1.3c1.3-0.3,2.6-0.3,3.9-0.2
			c1.3,0.2,2.6,0.5,3.8,1.2c1.2,0.7,2.2,1.7,2.8,3c0.6,1.3,0.7,2.7,0.5,4c-0.2,1.3-0.8,2.5-1.5,3.6c-1.5,2.2-3.6,3.8-5.8,4.8
			c-2.3,1-4.9,1.5-7.4,1.2c-2.5-0.3-5-1.5-6.1-3.8C822.7,255.5,823.2,252.7,824.4,250.4z"/>
		<path class="st5" d="M669.5,357.8c-4.8,0.2-9.6,0.6-14.4,1.2c-9.6,1.1-19.1,2.9-28.4,5.3c-9.3,2.5-18.5,5.7-27,10.3
			c-4.2,2.3-8.3,4.9-11.9,8c-3.5,3.1-6.5,6.7-8.5,10.8c0.8,6.2,3,12,5.5,17.7c2.6,5.8,5.6,11.4,9,16.9c3.4,5.5,7.2,10.7,11.4,15.6
			c4.3,4.9,8.9,9.3,13.7,13.7c9.5,8.7,19.8,16.6,30.7,23.7c5.4,3.5,11,6.8,16.7,9.6c2.9,1.4,5.8,2.7,8.7,3.8l2.2,0.7
			c0.7,0.2,1.5,0.4,2.2,0.6c0.4,0.1,0.7,0.2,1.1,0.2l1.1,0.2c0.4,0.1,0.7,0.1,1,0.1l1,0l1,0c0.3,0,0.6,0,1-0.1l1.1-0.2
			c0.4-0.1,0.7-0.1,1.1-0.2c0.7-0.2,1.5-0.4,2.2-0.6l2.2-0.7c3-1.1,5.9-2.3,8.7-3.8c5.8-2.8,11.3-6.1,16.7-9.6
			c10.8-7,21.1-14.9,30.7-23.7c4.8-4.4,9.4-8.9,13.7-13.7c4.3-4.9,8-10.1,11.4-15.6c3.4-5.5,6.4-11.1,9-16.9
			c2.5-5.7,4.6-11.5,5.5-17.7c-2-4.1-5-7.7-8.5-10.8c-3.6-3.2-7.7-5.7-11.9-8c-8.5-4.6-17.7-7.8-27-10.3c-9.3-2.5-18.8-4.2-28.4-5.3
			c-4.8-0.6-9.6-0.9-14.4-1.2c-4.5-0.2-9.1-0.3-13.6-0.1v0c-0.1,0-0.3,0-0.4,0c-0.1,0-0.3,0-0.4,0v0
			C678.6,357.5,674,357.5,669.5,357.8z"/>
		<path d="M556.9,253.8c-2.2-2.7-4.7-5.1-7.4-7.2c-2.7-2.1-5.7-3.8-8.9-5.1c-3.2-1.3-6.5-2.3-9.9-3c-3.4-0.7-6.9-1.1-10.4-1.4
			c-3.5-0.2-7-0.2-10.5,0.1c-3.5,0.3-6.9,0.9-10.3,1.8c-3.4,0.8-6.7,1.9-10,3.2c-2,0.8-4.1,1.7-6.1,2.6c0.2,8.9,2.4,17.5,5.9,25.5
			c1.9,4.3,4.2,8.5,6.9,12.3c2.7,3.9,5.7,7.5,9.1,10.7c3.4,3.2,7.1,6.1,11.2,8.3c4,2.3,8.4,3.9,13,4.9c4.6,0.9,9.3,1.1,14,0.4
			c4-0.5,8-1.7,11.8-3.2c2.8-2.5,5.4-5.3,7.6-8.3c4.2-5.5,7.4-11.8,8.7-18.5l0.8,0.2c-1.4-1.6-2.7-3.4-3.9-5.2
			C564.6,265.6,561.3,259.2,556.9,253.8z M543.2,257.7c-1.2,2.3-3.7,3.5-6.1,3.8c-2.5,0.3-5.1-0.2-7.4-1.2c-2.3-1.1-4.4-2.7-5.8-4.8
			c-0.7-1.1-1.3-2.3-1.5-3.6c-0.2-1.3-0.1-2.7,0.5-4c0.6-1.3,1.6-2.3,2.8-3c1.2-0.7,2.5-1.1,3.8-1.2c1.3-0.1,2.7-0.1,3.9,0.2
			c1.3,0.3,2.5,0.7,3.7,1.3c2.3,1.2,4.3,3,5.6,5.3C543.8,252.7,544.3,255.5,543.2,257.7z"/>
		<path d="M896.2,746c-7.3,0.4-14.5,1.2-21.7,2.2c-14.4,2.1-28.6,5.1-42.7,8.7c-14,3.7-27.9,8-41.4,13.5c-6.7,2.8-13.3,5.8-19.6,9.4
			c-3.1,1.8-6.2,3.8-9,6.1c-1.4,1.1-2.8,2.4-4,3.7c-1.2,1.3-2.3,2.8-3.2,4.4c0.9-1.6,2-3,3.3-4.3c1.2-1.3,2.6-2.5,4-3.6
			c2.8-2.2,5.9-4.2,9.1-5.9c6.3-3.6,12.9-6.5,19.7-9.2c13.5-5.3,27.4-9.6,41.4-13.2c14-3.7,28.2-6.7,42.6-8.9
			c7.2-1.1,14.4-2,21.6-2.5c3.6-0.2,7.2-0.4,10.9-0.3c3.6,0.1,7.3,0.3,10.8,1.1c-3.5-0.9-7.2-1.2-10.8-1.3
			C903.5,745.8,899.8,745.9,896.2,746z"/>
		<path d="M894.8,821.5c-2.1-0.2-4.2-0.4-6.3-0.7c-4.2-0.5-8.3-1.1-12.5-1.8c-8.3-1.4-16.5-3.1-24.6-5.1c-8.1-2-16.2-4.4-24-7.4
			c-3.9-1.5-7.8-3.2-11.5-5.2c-3.7-2-7.2-4.3-10.3-7.2c2.9,3.1,6.4,5.5,10.1,7.6c3.7,2.1,7.5,3.8,11.4,5.4
			c7.8,3.1,15.9,5.5,24.1,7.6c8.2,2,16.4,3.7,24.7,5c4.2,0.6,8.3,1.2,12.5,1.6c2.1,0.2,4.2,0.4,6.3,0.5c2.1,0.1,4.2,0.2,6.3,0
			C899,821.8,896.9,821.7,894.8,821.5z"/>
		<path d="M888.7,243.5c-6.4-3.5-13.1-6.5-20.2-8.4c-3.6-1-7.2-1.6-10.9-2c-3.7-0.3-7.4-0.4-11.1-0.2c-3.7,0.3-7.3,0.8-11,1.5
			c-3.6,0.8-7.2,1.9-10.6,3.4c-3.4,1.6-6.7,3.5-9.6,5.9c-2.9,2.4-5.5,5.1-7.7,8.1c-2.2,3-4.1,6.1-5.8,9.3c-1.7,3.2-3.3,6.4-5,9.5
			c-1.3,2.4-2.8,4.8-4.6,6.9l-0.8,0.2c0.1,0.2,0.1,0.3,0.2,0.5c-0.3,0.3-0.6,0.6-0.9,0.9c-0.6,0.7-1.3,1.2-2,1.7
			c-0.7,0.5-1.4,1-2.2,1.4c-1.5,0.9-3.2,1.5-5,1.9c3.6-0.4,7.1-1.8,9.9-4.2c0.2-0.2,0.4-0.3,0.6-0.5c2.3,6.4,6,12.1,10.3,17.1
			c4.8,5.5,10.4,10.1,16.4,13.8c6.1,3.7,12.7,6.7,19.7,8.1c3.5,0.7,7.1,1.1,10.6,0.9c1.8-0.1,3.6-0.4,5.3-0.7
			c1.7-0.4,3.5-0.9,5.2-1.4c6.8-2,13.5-4.8,19.4-8.7c3-1.9,5.8-4.1,8.4-6.6c2.6-2.5,4.9-5.2,6.9-8.2c2-3,3.7-6.2,5.1-9.5
			c1.4-3.3,2.5-6.8,3.3-10.3c0.5-1.7,0.7-3.5,1.1-5.3c0.2-1.8,0.5-3.6,0.7-5.4c0.1-0.9,0.2-1.8,0.2-2.7l0.1-2.7
			c0.1-1,0.1-2.1,0.1-3.1c0.6,0.2,1.1,0.5,1.7,0.7c3.4,1.3,6.8,2.5,10.4,3.3l2.7,0.5l2.7,0.4l2.7,0.2l2.7,0c-7.2-0.6-14-3-20.3-6.2
			C901.2,250.7,895.1,246.9,888.7,243.5z M804.1,295.2c-4.2-5.5-7.4-11.8-8.7-18.5l-0.8,0.2c1.4-1.6,2.7-3.4,3.9-5.2
			c3.9-6.1,7.2-12.5,11.6-17.9c2.2-2.7,4.7-5.1,7.4-7.2c2.7-2.1,5.7-3.8,8.9-5.1c3.2-1.3,6.5-2.3,9.9-3c3.4-0.7,6.9-1.1,10.4-1.4
			c3.5-0.2,7-0.2,10.5,0.1c3.5,0.3,6.9,0.9,10.3,1.8c3.4,0.8,6.7,1.9,10,3.2c2,0.8,4.1,1.7,6.1,2.6c-0.2,8.9-2.4,17.5-5.9,25.5
			c-1.9,4.3-4.2,8.5-6.9,12.3c-2.7,3.9-5.7,7.5-9.1,10.7c-3.4,3.2-7.1,6.1-11.2,8.3c-4,2.3-8.4,3.9-13,4.9c-4.6,0.9-9.3,1.1-14,0.4
			c-4-0.5-8-1.7-11.8-3.2C808.9,301,806.4,298.2,804.1,295.2z M901.4,263.4c0,1.7-0.1,3.5-0.2,5.2c-0.2,1.7-0.3,3.5-0.7,5.2
			c-1.1,6.9-3.5,13.6-7.2,19.6c-3.7,6-8.8,11-14.6,15c-5.9,3.9-12.4,6.8-19.2,8.8c-3.4,1-6.8,1.9-10.4,2c-3.5,0.1-7.1-0.2-10.5-1
			c-6.9-1.6-13.4-4.6-19.2-8.6c-2.3-1.6-4.6-3.3-6.7-5.1c3.3,1.8,6.9,3.1,10.6,4c4.8,1.1,9.8,1.3,14.7,0.6c4.9-0.7,9.7-2.4,14.1-4.7
			c4.4-2.3,8.4-5.3,12-8.7c3.6-3.4,6.7-7.2,9.4-11.3c2.7-4.1,5-8.5,6.7-13.1c1.8-4.6,3-9.3,3.6-14.2c0.5-4,0.6-8.1,0.2-12.1
			c1.1,0.5,2.2,1,3.3,1.6c4.5,2.2,9,4.6,13.7,6.7C901.2,256.5,901.5,259.9,901.4,263.4z"/>
		<path d="M829.9,261.6c2.5,0.3,5.1-0.2,7.4-1.2c2.3-1.1,4.4-2.7,5.8-4.8c0.7-1.1,1.3-2.3,1.5-3.6c0.2-1.3,0.1-2.7-0.5-4
			c-0.6-1.3-1.6-2.3-2.8-3c-1.2-0.7-2.5-1.1-3.8-1.2c-1.3-0.1-2.7-0.1-3.9,0.2c-1.3,0.3-2.5,0.7-3.7,1.3c-2.3,1.2-4.3,3-5.6,5.3
			c-1.3,2.2-1.7,5-0.6,7.3C825,260,827.5,261.3,829.9,261.6z M823.6,254.1c0.3-1.2,0.8-2.3,1.5-3.2c1.4-1.9,3.4-3.3,5.6-4.2
			c1.1-0.5,2.2-0.9,3.3-1.1c1.1-0.2,2.3-0.3,3.4-0.2c2.3,0.1,4.5,1.2,5.5,3.1c1,2,0.5,4.5-0.7,6.4c-1.3,2-3.2,3.6-5.3,4.7
			c-2.1,1.1-4.5,1.7-7,1.6c-1.2-0.1-2.4-0.4-3.5-1c-1.1-0.6-2-1.5-2.5-2.6C823.5,256.6,823.4,255.3,823.6,254.1z"/>
		<path d="M1335.6,412c-11.2-5.5-22.8-10.1-34.5-14.2c-23.6-8.1-47.8-14.1-72.2-19.1c-24.4-4.9-49-8.8-73.7-11.8
			c-24.7-3.1-49.5-5.3-74.4-7c-10.6-0.7-21.3-1.2-31.9-1.7c0.2-8.3-0.2-16.6-0.9-24.9c-0.8-7.8-1.9-15.6-3.3-23.3
			c-1.4-7.7-3.2-15.4-5.2-23c-4-15.2-9.2-30.1-14.9-44.7c-2.9-7.3-5.9-14.5-9.1-21.7c-2.1-4.8-4.2-9.5-6.2-14.3
			c0.2,0.2,0.4,0.4,0.6,0.6c2.1,2.1,4.4,3.9,6.8,5.7c4.7,3.5,9.8,6.5,15,9.1c5.2,2.7,10.6,5,16.2,6.8c5.6,1.8,11.4,3.2,17.3,3.4
			c3,0.1,6-0.1,9-1c1.5-0.5,2.9-1.1,4.2-1.9c1.3-0.9,2.5-1.9,3.4-3.2c1-1.3,1.7-2.7,2.2-4.1c0.1-0.4,0.3-0.7,0.3-1.1
			c0.1-0.4,0.2-0.7,0.3-1.1c0.1-0.8,0.3-1.5,0.3-2.3c0.3-3,0-6-0.5-9c-0.5-2.9-1.4-5.8-2.2-8.6l-1.5-4.2c-0.1-0.3-0.2-0.7-0.4-1
			l-0.5-1l-0.9-2c-2.6-5.3-5.9-10.3-9.8-14.7c-3.9-4.4-8.6-8.2-13.5-11.5c-4.9-3.3-10.2-6-15.5-8.4c-10.7-4.8-22-8.1-33.1-11.5
			c-5.6-1.7-11.1-3.3-16.6-5.2c-5.5-1.8-10.9-3.9-16-6.4c-2.5-1.3-5.1-2.7-7.4-4.3l-1.7-1.2c-0.6-0.4-1.1-0.9-1.6-1.3
			c-1.1-0.9-2.2-1.9-3.3-2.8c-4.4-3.9-9-7.5-13.6-11.1c-18.7-14.1-39-25.9-60.1-36c-10.5-5-21.3-9.6-32.2-13.8
			c-10.9-4.1-22-7.9-33.2-11.2c-5.6-1.6-11.2-3.3-16.9-4.7c-5.6-1.5-11.3-2.8-17-4.1c-2.8-0.7-5.7-1.2-8.6-1.8
			c-2.9-0.6-5.7-1.2-8.6-1.7c-5.7-1-11.5-2.1-17.3-3c-22.9-3.6-45.9-5.7-69-6.6l0,0c-0.1,0-0.2,0-0.3,0c-0.1,0-0.2,0-0.3,0l0,0
			c-23.1,0.9-46.2,3.1-69,6.6c-5.8,0.8-11.5,1.9-17.3,3c-2.9,0.5-5.7,1.1-8.6,1.7c-2.9,0.6-5.7,1.1-8.6,1.8
			c-5.7,1.3-11.4,2.6-17,4.1c-5.7,1.4-11.3,3.1-16.9,4.7c-11.2,3.4-22.3,7.1-33.2,11.2c-10.9,4.2-21.7,8.8-32.2,13.8
			c-21.1,10.1-41.4,21.9-60.1,36c-4.7,3.5-9.2,7.2-13.6,11.1c-1.1,1-2.2,2-3.3,2.8c-0.5,0.4-1.1,0.9-1.6,1.3l-1.7,1.2
			c-2.3,1.6-4.8,3-7.4,4.3c-5.1,2.5-10.5,4.6-16,6.4c-5.5,1.8-11.1,3.5-16.6,5.2c-11.1,3.3-22.4,6.7-33.1,11.5
			c-5.4,2.4-10.6,5.1-15.5,8.4c-4.9,3.3-9.5,7.1-13.5,11.5c-4,4.4-7.3,9.4-9.8,14.7l-0.9,2l-0.5,1c-0.1,0.3-0.3,0.7-0.4,1l-1.5,4.2
			c-0.8,2.9-1.7,5.7-2.2,8.6c-0.5,2.9-0.8,5.9-0.5,9c0,0.8,0.2,1.5,0.3,2.3c0.1,0.4,0.2,0.7,0.3,1.1c0.1,0.4,0.2,0.7,0.3,1.1
			c0.5,1.5,1.2,2.9,2.2,4.1c1,1.3,2.1,2.3,3.4,3.2c1.3,0.8,2.8,1.5,4.2,1.9c2.9,0.9,6,1.1,9,1c6-0.2,11.8-1.6,17.3-3.4
			c5.6-1.8,11-4.1,16.2-6.8c5.2-2.7,10.3-5.7,15-9.1c2.4-1.8,4.7-3.6,6.8-5.7c0.2-0.2,0.4-0.4,0.6-0.6c-2.1,4.8-4.2,9.5-6.2,14.3
			c-3.1,7.2-6.2,14.4-9.1,21.7c-5.8,14.6-10.9,29.5-14.9,44.7c-2,7.6-3.8,15.2-5.2,23c-1.4,7.7-2.5,15.5-3.3,23.3
			c-0.7,8.3-1.1,16.6-0.9,24.9c-10.6,0.4-21.3,1-31.9,1.7c-24.8,1.6-49.7,3.9-74.4,7c-24.7,3-49.3,6.9-73.7,11.8
			c-24.4,5-48.6,11-72.2,19.1c-11.8,4.1-23.4,8.7-34.5,14.2c-5.6,2.7-11,5.8-16.3,9c-5.3,3.3-10.3,7-15.1,11l0.1,0.1
			c4.7-4,9.8-7.6,15.1-10.9c5.3-3.2,10.7-6.3,16.4-8.9c11.2-5.4,22.8-10,34.6-14c23.6-8,47.8-13.9,72.2-18.7
			c24.4-4.8,49-8.6,73.7-11.6c24.7-3,49.5-5.1,74.3-6.7c10.6-0.6,21.2-1.2,31.9-1.6c0.2,6.9,0.7,13.8,1.7,20.6
			c1,7.8,2.7,15.5,4.6,23.1c0.9,3.8,2,7.6,3.1,11.4c0.1,0.3,0.2,0.7,0.3,1c-4.3,1.1-8.5,2.2-12.8,3.3c-21.5,5.7-42.8,12.1-63.9,19.2
			c-21,7.2-41.8,15.3-62,24.5c-10.1,4.6-20.1,9.6-29.9,14.9c-9.8,5.3-19.4,11-28.6,17.2c-2.3,1.5-4.6,3.2-6.9,4.8
			c-2.3,1.6-4.5,3.3-6.7,5c-4.4,3.4-8.7,6.9-12.8,10.7c-4.2,3.7-8,7.7-11.7,11.9c-3.7,4.2-7.1,8.6-10.1,13.2l0.1,0.1
			c3.1-4.6,6.6-8.9,10.3-13c3.8-4,7.7-8,11.9-11.6c4.1-3.7,8.5-7.1,12.9-10.5c2.3-1.6,4.5-3.3,6.7-4.9c2.3-1.6,4.5-3.2,6.9-4.7
			c18.6-12.1,38.3-22.4,58.5-31.5c20.2-9.2,40.9-17.2,61.9-24.5c21-7.3,42.2-13.8,63.7-19.5c4.3-1.1,8.5-2.3,12.8-3.3
			c0.9,3,1.9,6,3,9c2.6,7.4,5.5,14.7,8.8,21.8c2.9,6.4,6.1,12.7,9.5,18.8c-10.2,4.7-20.3,9.5-30.3,14.5
			c-41,20.4-81.1,42.9-118.8,68.9c-18.8,13.1-37.1,27-53.9,42.6c-8.4,7.8-16.4,16-23.8,24.8c-7.3,8.8-14,18.2-19.3,28.3l0.1,0.1
			c5.4-10.1,12.1-19.5,19.4-28.2c7.4-8.8,15.4-16.9,23.8-24.7c16.9-15.5,35.1-29.3,54-42.3c37.8-25.9,77.9-48.2,118.9-68.4
			c9.8-4.8,19.6-9.5,29.5-14c-0.9,1.4-1.4,3.1-1.9,4.7c-0.6,2.3-1,4.6-1.2,6.9c-0.5,4.6-0.5,9.3-0.4,14c0.2,9.3,1.1,18.6,2.2,27.9
			c2.3,18.5,5.6,36.9,9.3,55.2c3.8,18.3,8,36.5,12.9,54.5c2.4,9,5,18,7.9,26.9c1.4,4.5,3,8.9,4.6,13.3c0.8,2.2,1.7,4.4,2.7,6.6
			c0.6,1.3,1.2,2.7,2,4l-0.6,0.2l-1.5,0.5c-0.5,0.2-1,0.4-1.5,0.6L383,684c-0.1,0-0.1,0-0.2,0.1l-0.3,0.2c-0.2,0.1-0.4,0.2-0.5,0.4
			c-1.4,1.1-1.9,2.4-2.3,3.5c-0.4,1.2-0.6,2.3-0.7,3.3c-0.5,4.3-0.1,8.3,0.4,12.3c1,8,2.8,15.7,5,23.3c2.1,7.6,4.6,15.1,7.5,22.5
			c1.8,4.5,3.6,9,5.7,13.4c-1,0.9-1.9,1.9-2.8,2.9c-1.3,1.5-2.4,3.1-3.5,4.8c-2.2,3.2-4.1,6.6-5.9,10c-3.6,6.8-6.8,13.7-9.9,20.6
			c-6.2,13.9-11.7,28.1-17.1,42.3c-5.3,14.2-10.4,28.5-15.4,42.9c-4.8,13.9-9.4,27.9-13.9,41.9h-3.4v0.2h3.3
			c-0.1,0.4-0.2,0.8-0.4,1.2c0.1-0.4,0.3-0.8,0.4-1.2h354.1h0.8H1038c0.1,0.4,0.3,0.8,0.4,1.2c-0.1-0.4-0.2-0.8-0.4-1.2h3.3v-0.2
			h-3.4c-4.5-14-9.1-28-13.9-41.9c-4.9-14.4-10-28.7-15.4-42.9c-5.3-14.2-10.9-28.4-17.1-42.3c-3.1-7-6.3-13.9-9.9-20.6
			c-1.8-3.4-3.7-6.7-5.9-10c-1.1-1.6-2.2-3.2-3.5-4.8c-0.8-1-1.7-2-2.8-2.9c2.1-4.4,4-8.9,5.7-13.4c2.9-7.4,5.4-14.9,7.5-22.5
			c2.1-7.6,3.9-15.3,5-23.3c0.5-4,0.8-8,0.4-12.3c-0.1-1.1-0.4-2.2-0.7-3.3c-0.4-1.1-1-2.4-2.3-3.5c-0.2-0.1-0.4-0.2-0.5-0.4
			l-0.3-0.2c-0.1,0-0.1-0.1-0.2-0.1l-0.7-0.3c-0.5-0.2-1-0.5-1.5-0.6l-1.5-0.5l-0.6-0.2c0.7-1.3,1.4-2.7,2-4c1-2.2,1.9-4.4,2.7-6.6
			c1.7-4.4,3.2-8.8,4.6-13.3c2.9-8.9,5.4-17.9,7.9-26.9c4.8-18,9.1-36.2,12.9-54.5c3.7-18.3,7-36.7,9.3-55.2
			c1.1-9.3,2-18.6,2.2-27.9c0.1-4.7,0.1-9.3-0.4-14c-0.2-2.3-0.6-4.6-1.2-6.9c-0.4-1.6-1-3.2-1.9-4.7c9.9,4.5,19.8,9.2,29.5,14
			c41.1,20.2,81.2,42.5,118.9,68.4c18.8,13,37.1,26.8,54,42.3c8.4,7.7,16.5,15.9,23.8,24.7c7.4,8.8,14.1,18.1,19.4,28.2l0.1-0.1
			c-5.3-10.1-12-19.5-19.3-28.3c-7.3-8.8-15.4-17-23.8-24.8c-16.8-15.6-35.1-29.6-53.9-42.6c-37.7-26.1-77.8-48.5-118.8-68.9
			c-10-5-20.1-9.8-30.3-14.5c3.4-6.2,6.6-12.4,9.5-18.8c3.2-7.1,6.1-14.4,8.8-21.8c1.1-3,2-6,3-9c4.3,1.1,8.6,2.2,12.8,3.3
			c21.4,5.8,42.7,12.3,63.7,19.5c21,7.2,41.7,15.3,61.9,24.5c20.2,9.1,40,19.4,58.5,31.5c2.3,1.5,4.6,3.1,6.9,4.7
			c2.3,1.6,4.5,3.2,6.7,4.9c4.4,3.4,8.8,6.8,12.9,10.5c4.2,3.6,8.1,7.5,11.9,11.6c3.7,4.1,7.2,8.5,10.3,13l0.1-0.1
			c-3.1-4.6-6.5-9.1-10.1-13.2c-3.7-4.1-7.6-8.1-11.7-11.9c-4.1-3.8-8.4-7.3-12.8-10.7c-2.2-1.7-4.4-3.4-6.7-5
			c-2.3-1.6-4.5-3.2-6.9-4.8c-9.2-6.2-18.8-11.9-28.6-17.2c-9.8-5.3-19.8-10.2-29.9-14.9c-20.3-9.2-41-17.3-62-24.5
			c-21.1-7.2-42.4-13.6-63.9-19.2c-4.3-1.1-8.5-2.2-12.8-3.3c0.1-0.3,0.2-0.7,0.3-1c1.1-3.8,2.2-7.5,3.1-11.4
			c1.9-7.6,3.6-15.3,4.6-23.1c0.9-6.8,1.5-13.7,1.7-20.6c10.6,0.4,21.2,0.9,31.9,1.6c24.8,1.6,49.6,3.7,74.3,6.7
			c24.7,3,49.3,6.7,73.7,11.6c24.4,4.8,48.6,10.8,72.2,18.7c11.8,4,23.4,8.6,34.6,14c5.6,2.7,11,5.7,16.4,8.9
			c5.3,3.3,10.3,6.9,15.1,10.9l0.1-0.1c-4.7-4-9.8-7.7-15.1-11C1346.6,417.7,1341.2,414.7,1335.6,412z M328.2,414.6
			c-1.1-3.8-2.2-7.5-3.1-11.3c-1.9-7.6-3.5-15.3-4.5-23c-0.9-6.8-1.4-13.7-1.6-20.5c13.9-0.5,27.8-0.8,41.8-0.9
			c24.9-0.2,49.7,0.3,74.6,1.7c24.8,1.3,49.6,3.4,74.2,7.3c12.3,2,24.5,4.3,36.5,7.6c6,1.6,11.9,3.5,17.7,5.7
			c5.5,2.1,10.9,4.7,15.9,7.9c-0.7,0.9-1.4,1.8-2,2.7c-21.6-3.6-43.5-4.1-65.4-3.5c-22.2,0.6-44.4,2.6-66.4,5.3
			c-22.1,2.8-44,6.4-65.8,10.6c-17.3,3.4-34.5,7.2-51.5,11.5C328.4,415.3,328.3,414.9,328.2,414.6z M683.5,357.6c0.1,0,0.3,0,0.4,0
			v0c4.5-0.1,9-0.1,13.6,0.1c4.8,0.2,9.6,0.6,14.4,1.2c9.6,1.1,19.1,2.9,28.4,5.3c9.3,2.5,18.5,5.7,27,10.3c4.2,2.3,8.3,4.9,11.9,8
			c3.5,3.1,6.5,6.7,8.5,10.8c-0.8,6.2-3,12-5.5,17.7c-2.6,5.8-5.6,11.4-9,16.9c-3.4,5.5-7.2,10.7-11.4,15.6
			c-4.3,4.9-8.9,9.3-13.7,13.7c-9.5,8.7-19.8,16.6-30.7,23.7c-5.4,3.5-11,6.8-16.7,9.6c-2.9,1.4-5.8,2.7-8.7,3.8l-2.2,0.7
			c-0.7,0.2-1.5,0.4-2.2,0.6c-0.4,0.1-0.7,0.2-1.1,0.2l-1.1,0.2c-0.4,0.1-0.7,0.1-1,0.1l-1,0l-1,0c-0.3,0-0.6,0-1-0.1l-1.1-0.2
			c-0.4-0.1-0.7-0.1-1.1-0.2c-0.7-0.2-1.5-0.4-2.2-0.6l-2.2-0.7c-3-1.1-5.9-2.3-8.7-3.8c-5.8-2.8-11.3-6.1-16.7-9.6
			c-10.8-7-21.1-14.9-30.7-23.7c-4.8-4.4-9.4-8.9-13.7-13.7c-4.3-4.9-8-10.1-11.4-15.6c-3.4-5.5-6.4-11.1-9-16.9
			c-2.5-5.7-4.6-11.5-5.5-17.7c2-4.1,5-7.7,8.5-10.8c3.6-3.2,7.7-5.7,11.9-8c8.5-4.6,17.7-7.8,27-10.3c9.3-2.5,18.8-4.2,28.4-5.3
			c4.8-0.6,9.6-0.9,14.4-1.2c4.5-0.2,9.1-0.3,13.6-0.1v0C683.2,357.6,683.4,357.6,683.5,357.6z M733,805.8c0.3,4.1,0.9,8.3,2.6,12.2
			c0.4,1,1,1.9,1.4,2.7c0.2,0.4,0.5,0.9,0.6,1.3l0.2,0.7c0.1,0.2,0.1,0.5,0.1,0.7c0.2,1.9-0.5,3.9-1.4,5.6c-2,3.4-5.1,6.2-8.3,8.5
			c-6.6,4.6-14,7.9-21.7,10.3c-3.8,1.2-7.7,2.1-11.6,2.7c-3.6,0.6-7.3,0.8-10.9,0.6v0c-0.1,0-0.3,0-0.4,0c-0.1,0-0.3,0-0.4,0v0
			c-3.6,0.2-7.2-0.1-10.9-0.6c-3.9-0.6-7.8-1.6-11.6-2.7c-7.6-2.4-15.1-5.7-21.7-10.3c-3.2-2.3-6.3-5-8.3-8.5
			c-1-1.7-1.6-3.6-1.4-5.6c0-0.2,0-0.5,0.1-0.7l0.2-0.7c0.1-0.5,0.3-0.9,0.6-1.3c0.4-0.9,1-1.8,1.4-2.7c1.7-3.8,2.3-8,2.6-12.2
			c0.3-4.1,0-8.3-0.5-12.3c-0.5-4.1-1.4-8-2.3-12c-0.9-3.9-1.8-7.9-2.1-11.9c-0.2-2-0.2-4,0-6c0.2-2,0.6-3.9,1.5-5.7
			c1.8-3.5,4.8-6.3,8-8.7c3.2-2.4,6.7-4.4,10.4-6c3.7-1.6,7.4-3,11.3-4.1c3.9-1.1,7.8-1.9,11.8-2.4c3.7-0.5,7.4-0.6,11-0.5v0
			c0.1,0,0.3,0,0.4,0c0.1,0,0.3,0,0.4,0v0c3.7-0.1,7.4,0,11,0.5c4,0.5,7.9,1.3,11.8,2.4c3.9,1.1,7.6,2.4,11.3,4.1
			c3.7,1.6,7.2,3.6,10.4,6c3.2,2.4,6.2,5.2,8,8.7c0.9,1.7,1.3,3.7,1.5,5.7c0.2,2,0.2,4,0,6c-0.3,4-1.2,8-2.1,11.9
			c-0.9,4-1.8,7.9-2.3,12C733,797.5,732.8,801.7,733,805.8z M737.3,757.5c-0.9-1.9-2.2-3.5-3.6-5.1c-1.4-1.5-2.9-2.9-4.6-4.1
			c-6.5-5-14.1-8.5-21.8-11.1c-7.5-2.5-15.3-4.1-23.4-4.6v-0.1c-0.1,0-0.3,0-0.4,0c-0.1,0-0.3,0-0.4,0v0.1c-8,0.5-15.9,2.2-23.4,4.6
			c-7.8,2.6-15.3,6.1-21.8,11.1c-1.6,1.3-3.2,2.6-4.6,4.1c-1.4,1.5-2.7,3.2-3.6,5.1c0,0.1-0.1,0.2-0.1,0.3c-2.4-2.8-5.1-5.5-7.9-8
			c-2.9-2.6-6-5.1-9.2-7.4c-3.2-2.3-6.4-4.5-9.8-6.6c-3.3-2.1-6.7-4.1-10.1-6c-6.9-3.8-13.9-7.3-21.1-10.6
			c-7.1-3.3-14.4-6.3-21.7-9.1c-14.7-5.6-29.6-10.5-44.8-14.7c-7.6-2.1-15.2-4-22.8-5.8c-7.7-1.8-15.4-3.4-23.1-4.7
			c-2.4-0.4-4.9-0.8-7.4-1.2c-5.6-3-10.8-6.7-15.6-11c-6-5.5-11.3-11.9-15.6-18.8c-4.3-7-7.7-14.4-10.3-22.2
			c-2.5-7.8-4.3-15.8-5.3-23.9c-1.1-8.1-1.4-16.3-1.1-24.4c0.3-8.2,1.3-16.3,2.8-24.3c0.3-2,0.8-4,1.2-6c0.4-2,1-4,1.5-5.9
			c0.5-2,1.1-3.9,1.7-5.9l0.4-1.5l0.5-1.4c0.3-1,0.7-1.9,1-2.9c2.9-7.6,6.8-14.8,11.2-21.6c8.9-13.6,19.8-25.9,31.6-37.2
			c11.8-11.2,24.6-21.5,38.1-30.6c13.5-9.1,27.8-17.1,42.8-23.2c7.5-3,15.3-5.4,23.2-6.9c3.9-0.7,7.9-1.2,11.9-1.2
			c3.8,0,7.6,0.4,11.3,1.3c2.4,4.7,5.4,9.1,8.7,13.2c4.1,5.1,8.5,9.9,12.9,14.7c2.2,2.4,4.4,4.7,6.7,7.1c2.3,2.3,4.6,4.6,7,6.8
			c9.4,8.9,19.5,17.2,30,24.8c5.3,3.8,10.7,7.4,16.4,10.7c2.8,1.7,5.8,3.2,8.8,4.6l2.3,1c0.8,0.3,1.6,0.6,2.4,0.9
			c0.4,0.2,0.8,0.3,1.3,0.4l1.3,0.3c0.4,0.1,0.9,0.2,1.4,0.3l1.1,0.1c-0.3,5.4-0.5,10.8-0.7,16.2l-0.3,9.1l-0.3,9.1
			c-0.1,3-0.2,6.1-0.4,9.1c-0.1,3-0.1,6.1,0,9.1l0.2,4.6c0.1,1.5,0.2,3,0.4,4.6c0.2,2.3,0.5,4.6,0.9,6.9l0,0
			c0.1,0.6,0.2,1.2,0.3,1.8c-2.4,7.6-6.6,14.3-11.6,20.3c-2.7,3.3-5.6,6.4-8.7,9.3c-3.1,2.9-6.3,5.7-9.7,8.3
			c-6.7,5.2-13.8,9.9-21.2,14.2c-7.4,4.3-15.1,8-23.1,11.1c-8,3.1-16.2,5.6-24.5,7.3c-8.4,1.8-16.9,2.8-25.4,2.7
			c-8.5,0-17.1-1-25.3-3.5c-8.2-2.5-15.9-6.5-22.5-12.1l-0.3,0.3c3.2,2.9,6.7,5.5,10.5,7.7c3.8,2.2,7.8,3.9,11.9,5.3
			c8.2,2.8,17,4.1,25.7,4.4c8.7,0.2,17.4-0.6,26-2.2c8.6-1.6,17-3.9,25.2-6.9c16.3-6,32.2-13.9,45.7-25.1c6.7-5.6,13-11.8,18.1-19
			c2.6-3.6,4.8-7.4,6.6-11.4c1.3-2.9,2.3-5.9,3-9c0.7,3.1,1.7,6.1,3,9c1.8,4,4,7.8,6.6,11.4c5.1,7.2,11.4,13.4,18.1,19
			c13.5,11.2,29.4,19.2,45.7,25.1c8.2,2.9,16.6,5.3,25.2,6.9c8.6,1.6,17.3,2.4,26,2.2c8.7-0.3,17.4-1.6,25.7-4.4
			c4.1-1.4,8.1-3.2,11.9-5.3c3.8-2.2,7.3-4.7,10.5-7.7l-0.3-0.3c-6.6,5.6-14.3,9.6-22.5,12.1c-8.2,2.5-16.8,3.5-25.3,3.5
			c-8.5,0-17.1-1-25.4-2.7c-8.4-1.8-16.6-4.2-24.5-7.3c-8-3.1-15.7-6.8-23.1-11.1c-7.4-4.3-14.5-8.9-21.2-14.2
			c-3.4-2.6-6.6-5.4-9.7-8.3c-3.1-2.9-6-6-8.7-9.3c-4.9-6-9.2-12.8-11.6-20.3c0.1-0.6,0.2-1.2,0.3-1.8l0,0c0.4-2.3,0.6-4.6,0.9-6.9
			c0.2-1.5,0.3-3,0.4-4.6l0.2-4.6c0.1-3,0.1-6.1,0-9.1c-0.2-3-0.3-6.1-0.4-9.1l-0.3-9.1l-0.3-9.1c-0.2-5.4-0.5-10.8-0.7-16.2
			l1.1-0.1c0.5-0.1,1-0.1,1.4-0.3l1.3-0.3c0.4-0.1,0.9-0.2,1.3-0.4c0.8-0.3,1.6-0.6,2.4-0.9l2.3-1c3-1.4,6-2.9,8.8-4.6
			c5.7-3.3,11.1-6.9,16.4-10.7c10.6-7.6,20.6-15.9,30-24.8c2.4-2.2,4.7-4.5,7-6.8c2.2-2.3,4.5-4.7,6.7-7.1
			c4.4-4.8,8.8-9.5,12.9-14.7c3.3-4.1,6.2-8.5,8.7-13.2c3.6-0.9,7.4-1.3,11.3-1.3c4,0,7.9,0.5,11.9,1.2c7.9,1.4,15.6,3.9,23.2,6.9
			c15,6,29.3,14.1,42.8,23.2c13.5,9.1,26.3,19.4,38.1,30.6c11.8,11.3,22.7,23.5,31.6,37.2c4.4,6.8,8.3,14,11.2,21.6
			c0.4,0.9,0.7,1.9,1,2.9l0.5,1.4l0.4,1.5c0.6,2,1.2,3.9,1.7,5.9c0.5,2,1,3.9,1.5,5.9c0.4,2,0.9,4,1.2,6c1.5,8,2.5,16.1,2.8,24.3
			c0.3,8.2,0,16.3-1.1,24.4c-1,8.1-2.8,16.1-5.3,23.9c-2.6,7.7-6,15.2-10.3,22.2c-4.3,7-9.6,13.3-15.6,18.8c-4.7,4.2-10,7.9-15.6,11
			c-2.5,0.4-4.9,0.8-7.4,1.2c-7.7,1.4-15.4,3-23.1,4.7c-7.7,1.8-15.3,3.7-22.8,5.8c-15.1,4.2-30.1,9.1-44.8,14.7
			c-7.3,2.8-14.6,5.8-21.7,9.1c-7.2,3.2-14.2,6.7-21.1,10.6c-3.4,1.9-6.8,3.9-10.1,6c-3.3,2.1-6.6,4.3-9.8,6.6
			c-3.2,2.3-6.2,4.8-9.2,7.4c-2.8,2.5-5.4,5.2-7.9,8C737.4,757.6,737.3,757.5,737.3,757.5z M409.7,539.8c-6-4.4-11.5-9.5-16.7-14.8
			c-5.5-5.6-10.7-11.4-15.7-17.5c-9.9-12.2-18.7-25.2-26.3-38.9c-0.1-0.3-0.3-0.5-0.4-0.8c0.1,0,0.1-0.1,0.2-0.1
			c10.4-4.8,20.9-9.4,31.4-13.9c21-9,42.3-17.5,63.8-25.2c21.5-7.9,43.2-15.1,65.3-21.1c11-3,22.2-5.6,33.5-7.6
			c5.6-1,11.3-1.8,17-2.1c2.9-0.2,5.7-0.3,8.6-0.1l2.1,0.1c0.7,0,1.4,0.2,2.1,0.3c0.9,0.1,1.8,0.3,2.7,0.5c0.6,4.4,1.8,8.8,3.5,12.9
			c-3-0.5-6.1-0.7-9.1-0.6c-4.2,0.1-8.4,0.6-12.5,1.4c-8.2,1.6-16.1,4.2-23.8,7.3c-15.3,6.3-29.7,14.6-43.2,24
			c-13.5,9.4-26.3,19.8-38.1,31.3c-11.8,11.5-22.6,24-31.5,37.9c-4.4,7-8.3,14.3-11.1,22.1c-0.4,1-0.7,1.9-1,2.9l-0.5,1.5
			L409.7,539.8z M957.2,539.3l-0.5-1.5c-0.3-1-0.6-2-1-2.9c-2.8-7.8-6.7-15.1-11.1-22.1c-8.9-13.9-19.8-26.4-31.5-37.9
			c-11.8-11.5-24.6-22-38.1-31.3c-13.6-9.3-27.9-17.6-43.2-24c-7.7-3.1-15.6-5.8-23.8-7.3c-4.1-0.8-8.3-1.3-12.5-1.4
			c-3,0-6.1,0.1-9.1,0.6c1.7-4.1,3-8.4,3.5-12.9c0.9-0.2,1.8-0.4,2.7-0.5c0.7-0.1,1.4-0.2,2.1-0.3l2.1-0.1c2.9-0.1,5.7-0.1,8.6,0.1
			c5.7,0.4,11.4,1.2,17,2.1c11.3,1.9,22.4,4.6,33.5,7.6c22.1,6,43.8,13.2,65.3,21.1c21.5,7.8,42.8,16.2,63.8,25.2
			c10.5,4.5,21,9.1,31.4,13.9c0.1,0,0.1,0.1,0.2,0.1c-0.1,0.3-0.3,0.5-0.4,0.8c-7.6,13.7-16.4,26.7-26.3,38.9
			c-4.9,6.1-10.2,11.9-15.7,17.5c-5.2,5.3-10.7,10.3-16.7,14.8L957.2,539.3z M340.4,447.6c-3.2-7.1-6.1-14.4-8.6-21.8
			c-1.1-3-2-5.9-2.9-8.9c17-4.3,34.1-8.2,51.4-11.7c21.8-4.4,43.7-8.1,65.7-10.9c22-2.8,44.2-4.9,66.4-5.6
			c21.8-0.7,43.7-0.3,65.2,3.2c-0.2,0.3-0.4,0.5-0.5,0.8l-0.1,0.2l0,0.4c0,1.7,0.1,3.5,0.3,5.2c-0.9-0.2-1.7-0.4-2.6-0.5
			c-0.7-0.1-1.4-0.3-2.1-0.3l-2.1-0.2c-2.9-0.2-5.7-0.2-8.6,0c-5.7,0.3-11.4,1-17.1,1.9c-11.3,1.8-22.5,4.4-33.6,7.3
			c-22.2,5.8-44,12.9-65.6,20.5c-21.6,7.8-42.9,16.3-63.9,25.3c-10.5,4.5-21,9.2-31.4,14c-0.1,0-0.2,0.1-0.3,0.1
			C346.5,460.3,343.3,454,340.4,447.6z M386.3,670.3c-1.7-4.3-3.3-8.6-4.8-13c-3-8.8-5.7-17.7-8.3-26.6
			c-5.2-17.9-9.8-35.9-13.9-54.1c-4.1-18.2-7.7-36.5-10.3-54.9c-1.3-9.2-2.3-18.5-2.7-27.8c-0.2-4.6-0.2-9.3,0.2-13.9
			c0.2-2.3,0.5-4.6,1.1-6.9c0.4-1.6,0.9-3.3,1.8-4.7c0.3-0.1,0.6-0.3,0.9-0.4c0.2,0.3,0.3,0.6,0.5,0.8c7.7,13.7,16.6,26.7,26.5,38.8
			c5,6.1,10.2,11.9,15.8,17.5c5.3,5.2,10.8,10.3,16.8,14.7l-0.3,1.1c-0.5,2-1.2,4-1.6,6c-0.5,2-1,4-1.4,6c-0.4,2-0.9,4-1.2,6.1
			c-1.4,8.1-2.3,16.3-2.5,24.5c-0.2,8.2,0.2,16.5,1.3,24.6c1.1,8.1,3,16.2,5.6,24c2.7,7.8,6.2,15.3,10.6,22.2
			c4.4,6.9,9.8,13.3,15.9,18.7c4.8,4.2,10,7.8,15.6,10.7c-13-2.1-26.2-3.6-39.5-3.8c-4,0-7.9,0-11.9,0.3c-2.9,0.2-5.8,0.6-8.7,1.1
			c-0.9-1.4-1.7-3-2.5-4.7C388.1,674.6,387.2,672.5,386.3,670.3z M396.3,747.8c-2.8-7.2-5.3-14.6-7.4-22c-2.1-7.5-3.9-15-4.9-22.6
			c-0.5-3.8-0.8-7.6-0.4-11.1c0.1-0.9,0.3-1.7,0.5-2.4c0.2-0.7,0.6-1.2,0.8-1.4c0,0,0.1,0,0.1,0c0,0,0,0,0,0c0,0,0.1,0,0.1-0.1
			l0.6-0.3c0.4-0.2,0.8-0.4,1.2-0.5l1.3-0.5l1.3-0.4c3.5-1,7.3-1.5,11.1-1.9c3.8-0.3,7.7-0.4,11.5-0.4c7.7,0.1,15.5,0.6,23.2,1.4
			c7.7,0.8,15.5,1.9,23.2,3.2c15.4,2.6,30.6,5.9,45.8,9.8c15.1,3.9,30.1,8.5,44.8,13.8c7.4,2.6,14.6,5.5,21.8,8.5
			c7.2,3.1,14.3,6.4,21.2,10c3.5,1.8,6.9,3.7,10.2,5.7c3.4,2,6.6,4.1,9.9,6.3c3.2,2.2,6.3,4.6,9.3,7.1c2.9,2.4,5.6,5,8.1,7.7
			c-0.9,1.8-1.3,3.8-1.4,5.7c-0.2,2.1-0.1,4.1-0.1,6.1c0.3,8.2,0.6,16.4,1.7,24.3c0.5,4,1.1,7.9,1.5,11.9c0.2,2,0.3,4,0.3,5.9
			c-0.1,2-0.3,4-1,5.8c-0.3,1-0.8,1.8-1.2,2.7c-0.2,0.5-0.5,1-0.6,1.5l-0.2,0.8c-0.1,0.3-0.1,0.5-0.1,0.8c-0.2,2,0.4,4,1.3,5.7
			c-0.3,0.8-0.8,1.4-1.3,2c-0.7,0.7-1.4,1.4-2.1,2c-1.5,1.3-3.1,2.4-4.7,3.6c-3.2,2.2-6.6,4.3-9.9,6.3c-6.7,4-13.6,7.8-20.6,11.5
			c-13.9,7.3-28,14.3-42.2,21c-14.2,6.7-28.5,13.2-42.9,19.4c-14.4,6.2-28.9,12.3-43.7,17.5c-3.7,1.3-7.4,2.5-11.1,3.6
			c-1.9,0.5-3.7,1.1-5.6,1.5c-1.9,0.4-3.7,0.8-5.4,0.8c-3.6,0.1-7.2-0.5-10.5-2c-3.3-1.5-6.4-3.6-9.2-6.1
			c-5.5-5.1-9.7-11.6-12.6-18.5c-1.4-3.5-2.6-7.1-3.3-10.8c-0.7-3.7-1-7.4-0.7-11.1c0-0.9,0.2-1.8,0.4-2.7c0.2-0.9,0.4-1.8,0.7-2.6
			l0.4-1.3c0.2-0.5,0.4-1.1,0.5-1.6c0.3-1.1,0.5-2.1,0.6-3.2c0.6-4.2,0.5-8.2,0.3-12.3c-0.4-8-1.5-15.8-2.2-23.6
			c-0.4-3.9-0.7-7.8-0.8-11.6c-0.1-3.8,0-7.6,0.7-11.2c0.7-3.5,2.1-6.8,4.5-8.6c2.4-1.8,5.9-2,9.5-1.5l22.1,3.4l-20.8-8.3
			c-1.4-0.5-2.8-1.5-4.1-2.7c-1.3-1.2-2.5-2.6-3.7-4c-2.3-2.9-4.3-6.2-6.2-9.5C402.2,762.1,399.1,755,396.3,747.8z M972.6,772.8
			c2.1,3,4.1,6.2,5.9,9.5c3.7,6.5,7.1,13.3,10.3,20.2c6.4,13.7,12.3,27.7,18,41.8c5.7,14.1,11.1,28.3,16.3,42.5
			c5.1,13.8,10,27.6,14.8,41.5h-354h-0.8h-354c4.8-13.9,9.7-27.8,14.8-41.5c5.3-14.2,10.7-28.4,16.3-42.5
			c5.7-14.1,11.5-28.1,18-41.8c3.2-6.8,6.6-13.6,10.3-20.2c1.9-3.3,3.8-6.5,5.9-9.5c1.1-1.5,2.2-3,3.3-4.3c0.5-0.6,1-1.2,1.6-1.7
			c0.7,1.5,1.5,2.9,2.3,4.4c1.9,3.5,4.1,6.9,6.6,10.2c1,1.3,2,2.5,3.2,3.7c-0.7,0.2-1.3,0.3-2,0.6c-1.1,0.4-2.2,1-3.2,1.7
			c-2,1.4-3.5,3.4-4.4,5.4c-1,2-1.6,4.1-2,6.2c-0.8,4.2-0.9,8.3-0.8,12.3c0.1,4,0.4,8,0.8,11.9c0.8,7.9,1.8,15.7,2.3,23.4
			c0.2,3.8,0.3,7.7-0.3,11.3c-0.1,0.9-0.3,1.8-0.5,2.6c-0.1,0.4-0.2,0.8-0.4,1.2l-0.5,1.5c-0.4,1-0.5,2.1-0.8,3.1
			c-0.1,1.1-0.4,2.1-0.4,3.2c-0.4,4.2,0,8.4,0.8,12.4c0.8,4,2.1,7.9,3.6,11.7c3.2,7.5,7.8,14.4,13.9,20c3.1,2.8,6.6,5.1,10.4,6.8
			c3.9,1.7,8.2,2.5,12.4,2.3c2.2-0.1,4.2-0.6,6.2-1c2-0.5,3.9-1,5.8-1.6c3.8-1.2,7.5-2.5,11.3-3.8c7.4-2.7,14.7-5.7,22-8.7
			c7.3-3.1,14.5-6.2,21.7-9.4c14.3-6.5,28.6-13.2,42.7-20.2c14.1-7,28-14.3,41.8-22c6.9-3.9,13.7-7.8,20.3-12
			c3.3-2.1,6.6-4.3,9.8-6.7c1.6-1.2,3.1-2.4,4.6-3.7c0.7-0.7,1.4-1.4,2.1-2.1c0.5-0.6,1-1.3,1.3-2c0,0.1,0.1,0.2,0.1,0.3
			c2,3.7,5.2,6.5,8.3,9c3.2,2.5,6.8,4.6,10.3,6.6c3.6,2,7.3,3.6,11.1,5.2c7.4,2.9,15.1,5.2,23.3,6v0.1c0.1,0,0.3,0,0.4,0
			c0.1,0,0.3,0,0.4,0v-0.1c8.2-0.8,15.9-3.1,23.3-6c3.8-1.5,7.6-3.2,11.1-5.2c3.6-1.9,7.1-4.1,10.3-6.6c3.2-2.5,6.3-5.3,8.3-9
			c0-0.1,0.1-0.2,0.1-0.3c0.3,0.8,0.8,1.4,1.3,2c0.6,0.8,1.3,1.4,2.1,2.1c1.5,1.3,3,2.5,4.6,3.7c3.2,2.4,6.4,4.5,9.8,6.7
			c6.7,4.2,13.5,8.2,20.3,12c13.7,7.7,27.7,15,41.8,22c14.1,7,28.3,13.8,42.7,20.2c7.2,3.2,14.4,6.4,21.7,9.4c7.3,3,14.6,6,22,8.7
			c3.7,1.4,7.5,2.7,11.3,3.8c1.9,0.6,3.8,1.1,5.8,1.6c2,0.5,4,0.9,6.2,1c4.3,0.2,8.6-0.6,12.4-2.3c3.9-1.7,7.4-4,10.4-6.8
			c6.1-5.6,10.7-12.6,13.9-20c1.6-3.8,2.8-7.7,3.6-11.7c0.8-4,1.2-8.2,0.8-12.4c0-1.1-0.3-2.1-0.4-3.2c-0.3-1-0.4-2.1-0.8-3.1
			l-0.5-1.5c-0.1-0.4-0.3-0.8-0.4-1.2c-0.2-0.8-0.4-1.7-0.5-2.6c-0.5-3.6-0.5-7.4-0.3-11.3c0.4-7.7,1.5-15.5,2.3-23.4
			c0.4-3.9,0.7-7.9,0.8-11.9c0.1-4,0-8.1-0.8-12.3c-0.4-2.1-1-4.2-2-6.2c-1-2-2.5-4-4.4-5.4c-1-0.7-2.1-1.3-3.2-1.7
			c-0.7-0.2-1.3-0.4-2-0.6c1.2-1.2,2.2-2.4,3.2-3.7c2.5-3.3,4.6-6.7,6.6-10.2c0.8-1.4,1.6-2.9,2.3-4.4c0.5,0.5,1.1,1.1,1.6,1.7
			C970.4,769.9,971.6,771.3,972.6,772.8z M980.2,687.3c0.4,0.1,0.8,0.3,1.2,0.5l0.6,0.3c0,0,0.1,0,0.1,0.1c0,0,0,0,0,0
			c0,0,0,0,0.1,0c0.2,0.1,0.6,0.7,0.8,1.4c0.2,0.7,0.4,1.5,0.5,2.4c0.4,3.5,0,7.4-0.4,11.1c-1,7.6-2.8,15.1-4.9,22.6
			c-2.1,7.5-4.6,14.8-7.4,22c-2.8,7.2-6,14.3-9.7,21c-1.9,3.3-3.9,6.6-6.2,9.5c-1.1,1.5-2.4,2.8-3.7,4c-1.3,1.2-2.7,2.2-4.1,2.7
			l-20.8,8.3l22.1-3.4c3.5-0.5,7.1-0.3,9.5,1.5c2.4,1.7,3.8,5,4.5,8.6c0.7,3.6,0.8,7.4,0.7,11.2c-0.1,3.8-0.4,7.7-0.8,11.6
			c-0.7,7.8-1.8,15.6-2.2,23.6c-0.2,4-0.3,8.1,0.3,12.3c0.2,1,0.4,2.1,0.6,3.2c0.1,0.5,0.3,1.1,0.5,1.6l0.4,1.3
			c0.3,0.8,0.5,1.7,0.7,2.6c0.1,0.9,0.3,1.8,0.4,2.7c0.3,3.6,0.1,7.4-0.7,11.1c-0.7,3.7-1.8,7.3-3.3,10.8c-2.9,7-7.2,13.5-12.6,18.5
			c-2.8,2.5-5.8,4.6-9.2,6.1c-3.3,1.5-7,2.1-10.5,2c-1.7,0-3.6-0.4-5.4-0.8c-1.9-0.4-3.7-0.9-5.6-1.5c-3.7-1.1-7.4-2.3-11.1-3.6
			c-14.7-5.2-29.2-11.3-43.7-17.5c-14.4-6.2-28.7-12.7-42.9-19.4c-14.2-6.7-28.3-13.6-42.2-21c-6.9-3.7-13.8-7.5-20.6-11.5
			c-3.4-2-6.7-4.1-9.9-6.3c-1.6-1.1-3.2-2.3-4.7-3.6c-0.7-0.6-1.5-1.3-2.1-2c-0.5-0.6-1-1.2-1.3-2c0.9-1.7,1.5-3.7,1.3-5.7
			c0-0.3,0-0.5-0.1-0.8l-0.2-0.8c-0.1-0.5-0.3-1-0.6-1.5c-0.4-1-0.9-1.8-1.2-2.7c-0.6-1.9-0.9-3.9-1-5.8c-0.1-2,0.1-4,0.3-5.9
			c0.4-4,1-7.9,1.5-11.9c1.1-8,1.4-16.2,1.7-24.3c0-2,0.1-4.1-0.1-6.1c-0.2-1.9-0.6-3.9-1.4-5.7c2.5-2.8,5.3-5.3,8.1-7.7
			c3-2.5,6.1-4.9,9.3-7.1c3.2-2.2,6.5-4.3,9.9-6.3c3.4-2,6.8-3.9,10.2-5.7c6.9-3.6,14-6.9,21.2-10c7.2-3.1,14.5-5.9,21.8-8.5
			c14.7-5.3,29.6-9.9,44.8-13.8c15.1-3.9,30.4-7.3,45.8-9.8c7.7-1.3,15.4-2.4,23.2-3.2c7.7-0.8,15.5-1.4,23.2-1.4
			c3.9,0,7.7,0.1,11.5,0.4c3.8,0.3,7.6,0.8,11.1,1.9l1.3,0.4L980.2,687.3z M1017.7,468.4c0.8,1.5,1.4,3.1,1.8,4.7
			c0.6,2.3,0.9,4.6,1.1,6.9c0.4,4.6,0.4,9.3,0.2,13.9c-0.4,9.3-1.5,18.6-2.7,27.8c-2.6,18.4-6.2,36.7-10.3,54.9
			c-4.1,18.2-8.7,36.2-13.9,54.1c-2.6,8.9-5.3,17.8-8.3,26.6c-1.5,4.4-3.1,8.7-4.8,13c-0.9,2.1-1.8,4.3-2.7,6.3
			c-0.8,1.6-1.6,3.2-2.5,4.7c-2.9-0.6-5.8-0.9-8.7-1.1c-4-0.3-8-0.4-11.9-0.3c-13.3,0.2-26.4,1.7-39.5,3.8c5.6-3,10.8-6.6,15.6-10.7
			c6.1-5.5,11.5-11.8,15.9-18.7c4.4-7,7.9-14.4,10.6-22.2c2.6-7.8,4.5-15.8,5.6-24c1.2-8.1,1.6-16.4,1.3-24.6
			c-0.2-8.2-1.1-16.4-2.5-24.5c-0.3-2-0.8-4-1.2-6.1c-0.4-2-0.9-4-1.4-6c-0.5-2-1.1-4-1.6-6l-0.3-1.1c6-4.4,11.5-9.4,16.8-14.7
			c5.5-5.5,10.8-11.4,15.8-17.5c9.9-12.1,18.8-25.2,26.5-38.8c0.2-0.3,0.3-0.6,0.5-0.8C1017.1,468.1,1017.4,468.2,1017.7,468.4z
			 M1035.2,425.8c-2.6,7.4-5.4,14.7-8.6,21.8c-2.9,6.4-6,12.7-9.4,18.9c-0.1,0-0.2-0.1-0.3-0.1c-10.4-4.8-20.9-9.5-31.4-14
			c-21.1-9-42.4-17.5-63.9-25.3c-21.6-7.7-43.4-14.7-65.6-20.5c-11.1-2.9-22.3-5.4-33.6-7.3c-5.7-0.9-11.4-1.6-17.1-1.9
			c-2.9-0.1-5.7-0.2-8.6,0l-2.1,0.2c-0.7,0-1.4,0.2-2.1,0.3c-0.9,0.1-1.7,0.3-2.6,0.5c0.2-1.7,0.3-3.5,0.3-5.2l0-0.4l-0.1-0.2
			c-0.2-0.3-0.4-0.5-0.5-0.8c21.5-3.4,43.5-3.8,65.2-3.2c22.2,0.7,44.3,2.8,66.4,5.6c22,2.8,43.9,6.5,65.7,10.9
			c17.2,3.4,34.3,7.4,51.4,11.7C1037.2,419.8,1036.3,422.8,1035.2,425.8z M1046.3,380.2c-1,7.8-2.6,15.4-4.5,23
			c-0.9,3.8-2,7.6-3.1,11.3c-0.1,0.3-0.2,0.7-0.3,1c-17.1-4.3-34.3-8.1-51.5-11.5c-21.8-4.3-43.8-7.9-65.8-10.6
			c-22.1-2.7-44.2-4.7-66.4-5.3c-21.8-0.6-43.8-0.1-65.4,3.5c-0.6-0.9-1.3-1.8-2-2.7c4.9-3.3,10.3-5.8,15.9-7.9
			c5.8-2.2,11.7-4.1,17.7-5.7c12-3.3,24.2-5.6,36.5-7.6c24.6-3.9,49.4-6,74.2-7.3c24.8-1.4,49.7-1.9,74.6-1.7
			c13.9,0.1,27.9,0.4,41.8,0.9C1047.8,366.6,1047.2,373.4,1046.3,380.2z M1047.9,358.2c-13.9-0.6-27.9-1-41.8-1.1
			c-24.9-0.2-49.8,0.3-74.7,1.7c-24.9,1.5-49.7,3.8-74.3,7.9c-12.3,2.1-24.5,4.5-36.5,7.9c-6,1.7-11.9,3.7-17.7,6
			c-5.5,2.2-10.9,4.8-15.8,8.2c-2.2-2.6-4.7-5-7.3-7.1c-3.8-3.1-7.9-5.8-12.1-8.1c-4.3-2.3-8.7-4.3-13.3-6.1
			c-4.5-1.8-9.2-3.3-13.8-4.6c-9.3-2.7-18.9-4.7-28.5-6.2c-4.8-0.7-9.6-1.4-14.5-1.9c-4.6-0.4-9.2-0.8-13.8-1v0c-0.1,0-0.3,0-0.4,0
			c-0.1,0-0.3,0-0.4,0v0c-4.6,0.2-9.2,0.5-13.8,1c-4.9,0.5-9.7,1.1-14.5,1.9c-9.6,1.5-19.1,3.5-28.5,6.2c-4.7,1.3-9.3,2.9-13.8,4.6
			c-4.5,1.8-9,3.7-13.3,6.1c-4.3,2.3-8.4,5-12.1,8.1c-2.6,2.1-5.1,4.5-7.3,7.1c-4.9-3.4-10.3-6-15.8-8.2c-5.8-2.3-11.7-4.3-17.7-6
			c-12-3.4-24.2-5.8-36.5-7.9c-24.6-4.1-49.4-6.4-74.3-7.9c-24.9-1.4-49.8-1.9-74.7-1.7c-13.9,0.1-27.9,0.5-41.8,1.1
			c-0.1-8.3,0.2-16.6,1-24.8c0.8-7.8,1.9-15.5,3.4-23.2c1.4-7.7,3.3-15.3,5.3-22.9c4.1-15.1,9.3-29.9,15.1-44.4
			c2.9-7.3,6-14.5,9.1-21.6c3-6.8,6.1-13.6,9-20.5c0.1-0.2,0.2-0.4,0.2-0.6c0.1-0.2,0.1-0.3,0.2-0.5l0,0c0,0,0,0,0,0l-1.6-0.6
			c0,0.1-0.1,0.2-0.1,0.2c-0.5,1.2-1.2,2.3-2,3.3c-0.8,1.1-1.8,2.2-2.8,3.1c-2,2-4.3,3.8-6.6,5.5c-4.7,3.4-9.7,6.3-14.8,8.9
			c-5.2,2.6-10.5,4.8-16,6.6c-5.5,1.7-11.1,3-16.8,3.2c-2.8,0.1-5.7-0.1-8.3-1c-1.3-0.4-2.6-1-3.7-1.7c-1.1-0.7-2.1-1.7-2.9-2.7
			c-0.8-1.1-1.4-2.3-1.8-3.6c-0.1-0.3-0.2-0.6-0.3-1c-0.1-0.3-0.2-0.7-0.2-1c-0.1-0.7-0.2-1.4-0.3-2.1c-0.2-2.8,0-5.6,0.5-8.4
			c0.5-2.8,1.4-5.5,2.1-8.3l1.5-4c0.1-0.3,0.2-0.7,0.4-1l0.5-1l0.9-1.9c2.5-5.1,5.7-9.9,9.5-14.2c3.8-4.3,8.3-7.9,13.1-11
			c4.8-3.2,9.9-5.8,15.2-8.1c10.6-4.7,21.7-7.9,32.9-11.2c5.6-1.6,11.2-3.3,16.7-5.1c5.6-1.8,11.1-3.9,16.4-6.5
			c2.6-1.3,5.3-2.7,7.7-4.4l1.8-1.3c0.6-0.5,1.2-0.9,1.8-1.4c1.2-0.9,2.3-1.9,3.3-2.9c4.4-3.8,8.9-7.4,13.5-10.9
			c18.6-13.9,38.8-25.5,59.7-35.4c10.5-5,21.2-9.5,32-13.6c10.9-4.1,21.9-7.7,33-11c5.6-1.6,11.1-3.2,16.8-4.6
			c5.6-1.5,11.3-2.7,16.9-4c2.8-0.7,5.7-1.2,8.5-1.8c2.8-0.6,5.7-1.2,8.5-1.7c5.7-1,11.4-2.1,17.2-2.9c22.8-3.4,45.8-5.5,68.8-6.3
			c23,0.8,46,2.9,68.8,6.3c5.7,0.8,11.4,1.9,17.2,2.9c2.9,0.5,5.7,1.1,8.5,1.7c2.8,0.6,5.7,1.1,8.5,1.8c5.7,1.3,11.3,2.5,16.9,4
			c5.6,1.4,11.2,3,16.8,4.6c11.1,3.3,22.1,6.9,33,11c10.8,4.1,21.5,8.6,32,13.6c20.9,9.9,41.1,21.6,59.7,35.4
			c4.6,3.5,9.2,7.1,13.5,10.9c1.1,0.9,2.1,1.9,3.3,2.9c0.6,0.5,1.2,1,1.8,1.4l1.8,1.3c2.5,1.7,5.1,3.1,7.7,4.4
			c5.3,2.6,10.8,4.6,16.4,6.5c5.6,1.8,11.2,3.5,16.7,5.1c11.2,3.3,22.3,6.6,32.9,11.2c5.3,2.3,10.4,5,15.2,8.1
			c4.8,3.1,9.3,6.8,13.1,11c3.8,4.2,7,9,9.5,14.2l0.9,1.9l0.5,1c0.1,0.3,0.3,0.7,0.4,1l1.5,4c0.8,2.8,1.7,5.5,2.1,8.3
			c0.5,2.8,0.8,5.6,0.5,8.4c0,0.7-0.2,1.4-0.3,2.1c-0.1,0.3-0.2,0.7-0.2,1c-0.1,0.3-0.2,0.7-0.3,1c-0.4,1.3-1,2.5-1.8,3.6
			c-0.8,1.1-1.8,2-2.9,2.7c-1.1,0.7-2.4,1.3-3.7,1.7c-2.6,0.8-5.5,1-8.3,1c-5.7-0.2-11.3-1.5-16.8-3.2c-5.5-1.8-10.8-4-16-6.6
			c-5.2-2.6-10.1-5.5-14.8-8.9c-2.3-1.7-4.6-3.5-6.6-5.5c-1-1-2-2-2.8-3.1c-0.8-1.1-1.5-2.2-2-3.3c0-0.1-0.1-0.1-0.1-0.2l-1.6,0.6
			c0,0,0,0,0,0l0,0c0.1,0.2,0.1,0.3,0.2,0.5c0.1,0.2,0.2,0.4,0.2,0.6c2.9,6.9,6,13.7,9,20.5c3.2,7.2,6.2,14.4,9.1,21.6
			c5.8,14.5,11,29.3,15.1,44.4c2,7.6,3.9,15.2,5.3,22.9c1.4,7.7,2.6,15.4,3.4,23.2C1047.7,341.7,1048.1,349.9,1047.9,358.2z"/>
		<circle cx="775.6" cy="481.1" r="1.7"/>
		<circle cx="812.8" cy="478.1" r="1.7"/>
		<circle cx="744.2" cy="519.1" r="1.7"/>
		<circle cx="782.7" cy="509.1" r="1.7"/>
		<circle cx="827.9" cy="509.1" r="1.7"/>
		<circle cx="868.9" cy="514.1" r="1.7"/>
		<circle cx="854.7" cy="557.6" r="1.7"/>
		<circle cx="837.1" cy="539.2" r="1.7"/>
		<circle cx="796.9" cy="545.9" r="1.7"/>
		<circle cx="807" cy="519.1" r="1.7"/>
		<circle cx="768.5" cy="536.7" r="1.7"/>
		<circle cx="813.7" cy="561.8" r="1.7"/>
		<circle cx="776" cy="566" r="1.7"/>
		<circle cx="848.8" cy="584.4" r="1.7"/>
		<path d="M470.8,746.4c7.2,0.5,14.4,1.4,21.6,2.5c14.3,2.2,28.5,5.2,42.6,8.9c14,3.6,27.9,7.9,41.4,13.2c6.7,2.7,13.4,5.6,19.7,9.2
			c3.2,1.8,6.2,3.7,9.1,5.9c1.4,1.1,2.8,2.3,4,3.6c1.2,1.3,2.4,2.7,3.3,4.3c-0.8-1.6-2-3.1-3.2-4.4c-1.2-1.3-2.6-2.6-4-3.7
			c-2.8-2.3-5.9-4.3-9-6.1c-6.3-3.6-12.9-6.7-19.6-9.4c-13.5-5.5-27.4-9.8-41.4-13.5c-14.1-3.6-28.3-6.6-42.7-8.7
			c-7.2-1-14.4-1.8-21.7-2.2c-3.6-0.2-7.3-0.2-10.9-0.1c-3.6,0.1-7.3,0.4-10.8,1.3c3.5-0.8,7.2-1,10.8-1.1
			C463.5,746.1,467.2,746.2,470.8,746.4z"/>
		<path d="M539.6,806.5c-7.8,3-15.9,5.4-24,7.4c-8.1,2-16.4,3.7-24.6,5.1c-4.1,0.7-8.3,1.3-12.5,1.8c-2.1,0.3-4.2,0.5-6.3,0.7
			c-2.1,0.2-4.2,0.3-6.3,0.2c2.1,0.2,4.2,0.1,6.3,0c2.1-0.1,4.2-0.3,6.3-0.5c4.2-0.4,8.4-1,12.5-1.6c8.3-1.3,16.6-3,24.7-5
			c8.1-2.1,16.3-4.5,24.1-7.6c3.9-1.6,7.7-3.3,11.4-5.4c3.6-2.1,7.2-4.5,10.1-7.6c-3,2.9-6.6,5.2-10.3,7.2
			C547.3,803.3,543.5,805,539.6,806.5z"/>
		<path d="M578.4,281c-0.7-0.6-1.4-1.1-2-1.7c-0.3-0.3-0.6-0.6-0.9-0.9c0.1-0.2,0.1-0.3,0.2-0.5l-0.8-0.2c-1.8-2.1-3.2-4.5-4.6-6.9
			c-1.7-3.1-3.3-6.3-5-9.5c-1.7-3.2-3.6-6.4-5.8-9.3c-2.2-3-4.8-5.7-7.7-8.1c-2.9-2.4-6.2-4.3-9.6-5.9c-3.4-1.5-7-2.6-10.6-3.4
			c-3.6-0.8-7.3-1.3-11-1.5c-3.7-0.2-7.4-0.1-11.1,0.2c-3.7,0.4-7.3,1-10.9,2c-7.1,1.9-13.9,4.9-20.2,8.4
			c-6.4,3.4-12.5,7.2-18.9,10.3c-6.4,3.2-13.1,5.6-20.3,6.2l2.7,0l2.7-0.2l2.7-0.4l2.7-0.5c3.6-0.8,7-2,10.4-3.3
			c0.6-0.2,1.1-0.5,1.7-0.7c0,1,0,2.1,0.1,3.1l0.1,2.7c0.1,0.9,0.2,1.8,0.2,2.7c0.1,1.8,0.4,3.6,0.7,5.4c0.3,1.8,0.6,3.6,1.1,5.3
			c0.8,3.5,1.9,7,3.3,10.3c1.4,3.3,3.1,6.5,5.1,9.5c2,3,4.4,5.7,6.9,8.2c2.6,2.5,5.4,4.7,8.4,6.6c6,3.9,12.6,6.7,19.4,8.7
			c1.7,0.5,3.4,1,5.2,1.4c1.7,0.4,3.5,0.7,5.3,0.7c3.6,0.2,7.1-0.2,10.6-0.9c7-1.5,13.6-4.4,19.7-8.1c6.1-3.8,11.7-8.4,16.4-13.8
			c4.4-5,8-10.7,10.3-17.1c0.2,0.2,0.4,0.3,0.6,0.5c2.8,2.4,6.4,3.8,9.9,4.2c-1.7-0.5-3.4-1-5-1.9C579.8,282,579.1,281.5,578.4,281z
			 M547.6,309.5c-5.8,3.9-12.3,6.9-19.2,8.6c-3.4,0.8-7,1.2-10.5,1c-3.5-0.1-7-1.1-10.4-2c-6.8-2-13.4-4.8-19.2-8.8
			c-5.8-4-11-9-14.6-15c-3.7-6-6.1-12.7-7.2-19.6c-0.3-1.7-0.5-3.5-0.7-5.2c-0.1-1.7-0.3-3.5-0.2-5.2c-0.1-3.4,0.2-6.8,0.5-10.2
			c4.6-2.2,9.1-4.5,13.7-6.7c1.1-0.5,2.2-1,3.3-1.6c-0.5,4-0.3,8.1,0.2,12.1c0.6,4.8,1.9,9.6,3.6,14.2c1.7,4.6,4,9,6.7,13.1
			c2.7,4.1,5.9,7.9,9.4,11.3c3.6,3.4,7.6,6.4,12,8.7c4.4,2.3,9.1,4,14.1,4.7c4.9,0.7,9.9,0.5,14.7-0.6c3.7-0.9,7.3-2.2,10.6-4
			C552.2,306.2,550,308,547.6,309.5z M571.6,276.8c-1.3,6.6-4.5,12.9-8.7,18.5c-2.3,3-4.8,5.7-7.6,8.3c-3.8,1.5-7.8,2.7-11.8,3.2
			c-4.7,0.7-9.4,0.5-14-0.4c-4.6-0.9-9-2.6-13-4.9c-4.1-2.3-7.8-5.1-11.2-8.3c-3.4-3.2-6.4-6.8-9.1-10.7c-2.7-3.9-5-8-6.9-12.3
			c-3.5-8-5.7-16.6-5.9-25.5c2-0.9,4-1.8,6.1-2.6c3.3-1.3,6.6-2.4,10-3.2c3.4-0.8,6.8-1.5,10.3-1.8c3.5-0.3,7-0.3,10.5-0.1
			c3.5,0.2,7,0.7,10.4,1.4c3.4,0.7,6.7,1.7,9.9,3c3.2,1.3,6.2,3.1,8.9,5.1c2.7,2.1,5.2,4.5,7.4,7.2c4.4,5.4,7.7,11.8,11.6,17.9
			c1.2,1.8,2.5,3.6,3.9,5.2L571.6,276.8z"/>
		<path d="M537,245.2c-1.2-0.6-2.4-1-3.7-1.3c-1.3-0.3-2.6-0.3-3.9-0.2c-1.3,0.2-2.6,0.5-3.8,1.2c-1.2,0.7-2.2,1.7-2.8,3
			c-0.6,1.3-0.7,2.7-0.5,4c0.2,1.3,0.8,2.5,1.5,3.6c1.5,2.2,3.6,3.8,5.8,4.8c2.3,1,4.9,1.5,7.4,1.2c2.5-0.3,5-1.5,6.1-3.8
			c1.1-2.3,0.7-5.1-0.6-7.3C541.3,248.2,539.3,246.4,537,245.2z M543,257.7c-0.5,1.1-1.4,2-2.5,2.6c-1.1,0.6-2.3,0.9-3.5,1
			c-2.4,0.1-4.8-0.5-7-1.6c-2.1-1.1-4-2.7-5.3-4.7c-1.3-2-1.7-4.5-0.7-6.4c1-2,3.3-3,5.5-3.1c1.1-0.1,2.3,0,3.4,0.2
			c1.1,0.2,2.2,0.6,3.3,1.1c2.1,1,4.1,2.3,5.6,4.2c0.7,0.9,1.3,2,1.5,3.2C543.6,255.3,543.5,256.6,543,257.7z"/>
		<circle cx="591.4" cy="481.1" r="1.7"/>
		<circle cx="554.2" cy="478.1" r="1.7"/>
		<circle cx="622.8" cy="519.1" r="1.7"/>
		<circle cx="584.3" cy="509.1" r="1.7"/>
		<circle cx="539.1" cy="509.1" r="1.7"/>
		<circle cx="570.1" cy="545.9" r="1.7"/>
		<circle cx="560" cy="519.1" r="1.7"/>
		<circle cx="598.5" cy="536.7" r="1.7"/>
		<circle cx="553.3" cy="561.8" r="1.7"/>
		<circle cx="591" cy="566" r="1.7"/>
		<circle cx="518.2" cy="584.4" r="1.7"/>
	</g>
</g>
</svg>
