<?xml version="1.0" encoding="utf-8"?>
<!-- Generator: Adobe Illustrator 23.0.2, SVG Export Plug-In . SVG Version: 6.00 Build 0)  -->
<svg version="1.1" id="Mr._Bigotes" xmlns="http://www.w3.org/2000/svg" xmlns:xlink="http://www.w3.org/1999/xlink" x="0px"
	 y="0px" width="1366px" height="900px" viewBox="0 0 1366 900" style="enable-background:new 0 0 1366 900;" xml:space="preserve">
<path style="fill:#604129;stroke:#000000;stroke-width:3;stroke-miterlimit:10;" d="M1081,169.2c-4.2-13.3-11.1-24.9-29.4-36.6
	c-12.3-7.9-63.2-22.6-70.3-25.4c-12.5-5-18.8-10.3-22.2-13.5C911.5,48.9,796.8,0,683,0S454.5,48.9,406.8,93.7
	c-3.4,3.2-9.7,8.5-22.2,13.5c-7.1,2.8-58,17.5-70.3,25.4c-18.3,11.7-25.2,23.3-29.4,36.6c-3.8,12.3-5.2,22.6,3.9,28.1
	c7.7,4.7,22.2,1.2,32.6-2.1c9.7-3,31-14.1,38.7-26.2c-9.4,21.5-45.8,92.9-43,160.1c2.3,54.2,19.9,85.8,32.5,108.4
	c-21.8,15.1,25.1,192.3,39.9,217.8l8.4,82.5c-15.8-1.4-56.8,125.4-69.8,162.1h709.4c-13-36.7-54-163.5-69.8-162.1l8.4-82.5
	c14.8-25.5,61.7-202.7,39.9-217.8c12.6-22.6,30.2-54.2,32.5-108.4c2.9-67.2-33.5-138.6-43-160.1c7.7,12.1,29,23.2,38.7,26.2
	c10.5,3.2,24.9,6.8,32.6,2.1C1086.2,191.8,1084.9,181.5,1081,169.2z"/>
<path style="fill:#9A7058;stroke:#000000;stroke-width:3;stroke-miterlimit:10;" d="M955.5,505.8c-28.4-73.2-140.9-137.3-171-122.2
	h-203c-30.1-15-142.6,49-171,122.2c-26.8,69.1,6.3,132.9,39.4,148.7l180.7,114.9h104.8l180.7-114.9
	C949.2,638.7,982.3,574.9,955.5,505.8z"/>
<g>
	<ellipse cx="590.3" cy="451" rx="1.7" ry="1.7"/>
	<ellipse cx="553.1" cy="448" rx="1.7" ry="1.7"/>
	<ellipse cx="583.2" cy="479.1" rx="1.7" ry="1.7"/>
	<ellipse cx="621.6" cy="489.2" rx="1.7" ry="1.7"/>
	<ellipse cx="597.3" cy="506.8" rx="1.7" ry="1.7"/>
	<ellipse cx="558.9" cy="489.2" rx="1.7" ry="1.7"/>
	<ellipse cx="538" cy="479.1" rx="1.7" ry="1.7"/>
	<ellipse cx="497" cy="484.2" rx="1.7" ry="1.7"/>
	<ellipse cx="528.8" cy="509.4" rx="1.7" ry="1.7"/>
	<ellipse cx="569" cy="516.1" rx="1.7" ry="1.7"/>
	<ellipse cx="589.9" cy="536.3" rx="1.7" ry="1.7"/>
	<ellipse cx="552.2" cy="532" rx="1.7" ry="1.7"/>
	<ellipse cx="511.2" cy="527.8" rx="1.7" ry="1.7"/>
	<ellipse cx="517.1" cy="554.7" rx="1.7" ry="1.7"/>
</g>
<path style="fill:none;stroke:#000000;stroke-width:3;stroke-miterlimit:10;" d="M581.5,360C464.7,298.9,87.9,327,0,401.8"/>
<path style="fill:none;stroke:#000000;stroke-width:3;stroke-miterlimit:10;" d="M579.8,362.5C490.3,345.3,184,385.4,81.7,510.8"/>
<path style="fill:none;stroke:#000000;stroke-width:3;stroke-miterlimit:10;" d="M581.5,369.6c-60.3-21.3-420.9,128.5-478.8,246.8"
	/>
<path style="fill:#FF0000;stroke:#000000;stroke-width:3;stroke-miterlimit:10;" d="M628.7,729.3c-66.1-62.9-192.5-76.4-221.6-76.3
	c-7.8,0-22.5,1-25.5,5c-5.9,7.5,5.5,44,8.6,53.9s14.6,38.8,23.6,43.7c2.7,1.5,8.8,4.3,19.3,7.4c-13.1-3.6-18.7-4.5-23.8-3.9
	c-5.1,0.6-9.3,8.2-9.5,17c-0.2,7,4.3,33.7,4.3,47.6c0,9-5.2,14.7-4.3,24.5c1.5,15.9,13.3,33.9,24.4,40.1c9.2,5.1,18.7,3.7,31.6,0
	c26.7-7.6,156.2-65.7,173.2-88.2h17.2l-0.1-70.7L628.7,729.3z"/>
<path style="fill:none;stroke:#000000;stroke-width:3;stroke-miterlimit:10;" d="M611.4,764.9c-19.8-27.3-122.3-52.6-162.7-47.1"/>
<path style="fill:none;stroke:#000000;stroke-width:3;stroke-miterlimit:10;" d="M560.2,764.9c-17.3,16.2-61.7,26.3-94.5,27.9"/>
<path style="fill:none;stroke:#000000;stroke-miterlimit:10;" d="M349.8,437.6c2.8,12.2,36.7,57.3,59.2,72.4"/>
<g>
	<ellipse cx="775.7" cy="451" rx="1.7" ry="1.7"/>
	<ellipse cx="812.9" cy="448" rx="1.7" ry="1.7"/>
	<ellipse cx="782.8" cy="479.1" rx="1.7" ry="1.7"/>
	<ellipse cx="744.4" cy="489.2" rx="1.7" ry="1.7"/>
	<ellipse cx="768.7" cy="506.8" rx="1.7" ry="1.7"/>
	<ellipse cx="807.1" cy="489.2" rx="1.7" ry="1.7"/>
	<ellipse cx="828" cy="479.1" rx="1.7" ry="1.7"/>
	<ellipse cx="869" cy="484.2" rx="1.7" ry="1.7"/>
	<ellipse cx="837.2" cy="509.4" rx="1.7" ry="1.7"/>
	<ellipse cx="797" cy="516.1" rx="1.7" ry="1.7"/>
	<ellipse cx="776.1" cy="536.3" rx="1.7" ry="1.7"/>
	<ellipse cx="813.8" cy="532" rx="1.7" ry="1.7"/>
	<ellipse cx="854.8" cy="527.8" rx="1.7" ry="1.7"/>
	<ellipse cx="848.9" cy="554.7" rx="1.7" ry="1.7"/>
</g>
<path style="fill:none;stroke:#000000;stroke-width:3;stroke-miterlimit:10;" d="M784.5,360c116.8-61.1,493.6-32.9,581.5,41.8"/>
<path style="fill:none;stroke:#000000;stroke-width:3;stroke-miterlimit:10;" d="M786.2,362.5c89.5-17.2,395.8,22.9,498.1,148.3"/>
<path style="fill:none;stroke:#000000;stroke-width:3;stroke-miterlimit:10;" d="M784.5,369.6c60.3-21.3,420.9,128.5,478.8,246.8"/>
<path style="fill:#5B435B;stroke:#000000;stroke-width:3;stroke-miterlimit:10;" d="M683,325.3c-53.7,0-93.6,15.8-105.9,37.3
	c7.1,56.6,92.8,106.5,105.9,106.5s98.8-49.8,105.9-106.5C776.6,341,736.7,325.3,683,325.3z"/>
<path style="fill:#FF0000;stroke:#000000;stroke-width:3;stroke-miterlimit:10;" d="M737.3,729.3c66.1-62.9,192.5-76.4,221.6-76.3
	c7.8,0,22.5,1,25.5,5c5.9,7.5-5.5,44-8.6,53.9c-3.1,9.9-14.6,38.8-23.6,43.7c-2.7,1.5-9.1,3.6-19.3,7.4c12.9-3,18.7-4.5,23.8-3.9
	c5.1,0.6,9.3,8.2,9.5,17c0.2,7-4.3,33.7-4.3,47.6c0,9,5.2,14.7,4.3,24.5c-1.5,15.9-13.3,33.9-24.4,40.1c-9.2,5.1-18.7,3.7-31.6,0
	c-26.7-7.6-156.2-65.7-173.2-88.2h-17.2l0.1-70.7L737.3,729.3z"/>
<path style="fill:#FF0000;stroke:#000000;stroke-width:3;stroke-miterlimit:10;" d="M734.2,777.1c-0.5-10.7,6.6-35,4.3-44.7
	c-3.4-14.8-28.2-27.3-55.4-27.3c-27.2,0-52.1,12.5-55.5,27.3c-2.2,9.7,4.8,34.1,4.3,44.7c-0.5,9.1-2.5,9.9-3.9,16.7
	c-2.6,12.9,29.6,31.5,55,31.5s57.6-18.6,55-31.5C736.7,787,734.6,786.2,734.2,777.1z"/>
<path style="fill:none;stroke:#000000;stroke-width:3;stroke-miterlimit:10;" d="M754.6,764.9c19.8-27.3,122.3-52.6,162.7-47.1"/>
<path style="fill:none;stroke:#000000;stroke-width:3;stroke-miterlimit:10;" d="M805.8,764.9c17.3,16.2,61.7,26.3,94.5,27.9"/>
<path style="fill:none;stroke:#000000;stroke-width:3;stroke-miterlimit:10;" d="M683,540.6"/>
<path style="fill:none;stroke:#000000;stroke-miterlimit:10;" d="M1016.2,437.6c-2.8,12.2-36.7,57.3-59.2,72.4"/>
<line style="fill:none;stroke:#000000;stroke-width:3;stroke-miterlimit:10;" x1="683" y1="540.6" x2="683" y2="469.1"/>
<path style="fill:#FFFFFF;stroke:#000000;stroke-width:3;stroke-miterlimit:10;" d="M560.8,208.5c-10.5-0.4-25.5-17.1-50.2-9.8
	c-39.2,11.5-45.8,49.7-51.4,59.4c18.4,24.1,37.8,32.7,64.9,26.7C557.1,277.4,571.9,240,560.8,208.5z"/>
<path d="M510.7,198.7c24.7-7.2,39.7,9.5,50.2,9.8c3,8.6,4.1,17.7,3.4,26.4c-6.5,22.2-23.7,30.9-40.6,31
	c-17.1,0.1-36.4-4.6-55.4-29.1l0,0C475.1,222.5,486.9,205.7,510.7,198.7z"/>
<ellipse transform="matrix(0.9941 -0.1089 0.1089 0.9941 -20.5891 59.4762)" style="fill:#FFFFFF;" cx="534.2" cy="218.2" rx="11.4" ry="8.5"/>
<path style="fill:none;stroke:#000000;stroke-width:3;stroke-miterlimit:10;" d="M444.6,278.8c6.8-5.2,12.5-16.1,14.6-20.8"/>
<path style="fill:none;stroke:#000000;stroke-width:3;stroke-miterlimit:10;" d="M573.9,206.3c-5,2.4-9.4,3.1-13.1,2.2"/>
<path style="fill:#FFFFFF;stroke:#000000;stroke-width:3;stroke-miterlimit:10;" d="M805.2,208.5c10.5-0.4,25.5-17.1,50.2-9.8
	c39.2,11.5,45.8,49.7,51.4,59.4c-18.4,24.1-37.8,32.7-64.9,26.7C808.9,277.4,794.1,240,805.2,208.5z"/>
<path d="M855.3,198.7c-24.7-7.2-39.7,9.5-50.2,9.8c-3,8.6-4.1,17.7-3.4,26.4c6.5,22.2,23.7,30.9,40.6,31
	c17.1,0.1,36.4-4.6,55.4-29.1l0,0C890.9,222.5,879.1,205.7,855.3,198.7z"/>
<ellipse transform="matrix(0.1089 -0.9941 0.9941 0.1089 524.2335 1021.2861)" style="fill:#FFFFFF;" cx="831.8" cy="218.2" rx="8.5" ry="11.4"/>
<path style="fill:none;stroke:#000000;stroke-width:3;stroke-miterlimit:10;" d="M921.4,278.8c-6.8-5.2-12.5-16.1-14.6-20.8"/>
<path style="fill:none;stroke:#000000;stroke-width:3;stroke-miterlimit:10;" d="M792.1,206.3c5,2.4,9.4,3.1,13.1,2.2"/>
<path style="fill:none;stroke:#000000;stroke-width:3;stroke-miterlimit:10;" d="M808.8,612.3c0-23.5-60.2-68-125.8-71.7
	c-65.6,3.7-125.8,48.2-125.8,71.7"/>
</svg>
