<?xml version="1.0" encoding="utf-8"?>
<!-- Generator: Adobe Illustrator 23.0.2, SVG Export Plug-In . SVG Version: 6.00 Build 0)  -->
<svg version="1.1" xmlns="http://www.w3.org/2000/svg" xmlns:xlink="http://www.w3.org/1999/xlink" x="0px" y="0px" width="4042px"
	 height="1000px" viewBox="0 0 4042 1000" style="enable-background:new 0 0 4042 1000;" xml:space="preserve">
<g id="Texto">
	<g>
		<path style="fill:#FF0000;" d="M2243.8,226.7c-80.7-17.1-144.3,112.4-149.2,185.7c0-19.5-22-141.7-144.3-175.9
			s-398.8,12.2-440.4,217.5s53.8,259,178.6,249.2s212.8-146.6,210.4-210.1s-40.4-113.1-134.6-70.9c-70.9,31.8-80.7,139.5-58.7,134.4
			c24-5.6,91.5-131.2,134.6-88c33,33.2-9.8,88-39.1,119.7c-51.9,56.2-215.5,97.3-227.5-41.5c-19.8-228.5,316.1-315.2,382.9-228.5
			c59,76.5-12.2,263.9-70.9,332.3c-52.1,60.8-127,36.7-124.8,73.3c1.2,20.8,42.8,28.1,126-11c83.2-39.1,141.9-168.6,154.1-246.8
			c24.5,92.9-75.8,227.2-9.8,210.1c66.1-17.1,102.8-210.1,134.6-259c-17.1,34.2-51.4,185.7-53.8,254.1s58.7,119.7,73.4,105.1
			s-4.9-31.8-14.7-95.3S2324.6,243.8,2243.8,226.7z"/>
		<path style="fill:#FF0000;" d="M2341.7,522.3c-31.8,2.4-53.8,26.9-63.6,26.9s-27.4-22.7-39.1-12.2c-22,19.5,22,66,17.1,127.1
			c-4.9,61.1-26.9,92.9-4.9,95.3c22,2.4,70.9-63.5,63.6-112.4c-7.3-48.9,26.9-66,53.8-53.8s53.8,9.8,51.4-19.5
			C2417.5,544.3,2373.5,519.9,2341.7,522.3z"/>
		<ellipse style="fill:#FF0000;" cx="2353.9" cy="737.4" rx="14.7" ry="17.1"/>
		<ellipse style="fill:#FF0000;" cx="4027.3" cy="737.4" rx="14.7" ry="17.1"/>
		<path style="fill:#FF0000;" d="M2870.1,209.6c-90.5-24.4-214.6,2-261.8,34.2c-52.1,35.7-21.3,143.9-12.2,163.7
			c10.3,22.2,27.4,82.3-17.1,92.9c6.1,29.1,61.2,17.1,70.9-53.8c9.8-70.9-28.9-89.2-9.8-136.8c27.4-68.9,105.4-43.3,117.4-26.9
			c-46.5,24.4-58.7,205.3-61.2,249.2c-3.9,70.9-41.6,168.6-90.5,171c-48.9,2.4-58.7-107.5,9.8-100.2c-24.5-39.1-89.3,24.7-78.3,85.5
			c9.5,53,51.1,66,107.6,53.8c47.7-10.3,116.7-150.5,119.9-229.7c3.2-78.2-2.4-144.2,9.8-178.4s70.9-46.4,102.8-19.5
			c31.8,26.9,29.4,65,26.9,88c-2.4,23.2-31.6,76-66.1,80.6c-27.6,3.7-46.5-4.9-46.5,17.1s41.6,7.3,61.2,12.2
			c19.6,4.9,51.4,41.5,53.8,83.1s-14.7,100.2-41.6,110c-27.9,10-78.3,4.4-90.5-31.8c-9.8-29.3,9.8-73.3,29.4-75.7
			c-29.4-19.5-68.5,48.9-58.7,102.6c9.8,53.8,100.1,67.9,146.8,51.3c34.3-12.2,85.6-90.4,75.8-173.5c-9.8-83.1-46.5-85.5-63.6-88
			c44-4.9,75.8-31.8,78.3-95.3C2985.1,331.7,2960.7,234,2870.1,209.6z"/>
		<path style="fill:#FF0000;" d="M3092.8,563.9c-19.6-46.4-75.8-58.6-90.5-46.4c-19.6,17.1,22,51.3,19.6,95.3s-29.4,80.6-19.6,112.4
			c9.8,31.8,53.8,31.8,58.7,17.1c4.9-14.7-9.8-34.2-14.7-63.5S3112.3,610.3,3092.8,563.9z"/>
		<path style="fill:#FF0000;" d="M3065.9,495.5c22,17.1,39.1-9.8,29.4-29.3c-9.8-19.5-40.1-42.8-48.9-22
			C3038.9,461.2,3043.8,478.4,3065.9,495.5z"/>
		<path style="fill:#FF0000;" d="M3286,500.3c-36.7-9.8-17.1,31.8-7.3,48.9c-60.9-65.2-123.8-9.8-144.3,34.2
			c-20.1,43-34.3,134.4,4.9,163.7s100.3,4.9,117.4-56.2c4.9,22-22,117.3-46.5,207.7s-100.3,53.8-124.8,39.1
			c2.4,53.8,48.9,85.5,132.1,41.5s105.2-388.5,115-422.7C3342.3,522.3,3322.7,510.1,3286,500.3z M3194,712.4
			c-33.5,10.5-45.5-13-34.3-79.7c12.2-72.3,84.4-88.7,98.1-56.9C3269.4,603,3235.4,699.5,3194,712.4z"/>
		<g>
			<path style="fill:none;" d="M3160,632.8c-11.3,66.7,0.7,90.2,34.3,79.7c41.3-13,75.1-109.2,63.9-136.6
				C3244.2,543.8,3172.3,560.2,3160,632.8z"/>
		</g>
		<path style="fill:#FF0000;" d="M3457.3,524.8c-100.3,4.9-115,146.6-90.5,197.9c24.5,51.3,115,46.4,146.8-34.2
			C3545.4,607.9,3501.3,524.8,3457.3,524.8z M3475.9,663.6c-15.4,38.9-59,41.3-70.9,16.6c-11.7-24.7-4.6-93.1,43.8-95.5
			C3469.8,584.6,3491.1,624.7,3475.9,663.6z"/>
		<g>
			<path style="fill:none;" d="M3448.7,584.6c-48.4,2.4-55.5,70.9-43.8,95.5c11.7,24.7,55.5,22.5,70.9-16.6
				C3491.1,624.7,3469.8,584.6,3448.7,584.6z"/>
		</g>
		<path style="fill:#FF0000;" d="M3689.7,446.6c9.8-4.9,39.1-53.8,24.5-56.2s-31.8,0-41.6-7.3c12.2-14.7,22-85.5,14.7-112.4
			c-7.3-26.9-46.5-36.7-70.9-44c-24.5-7.3-29.4,19.5-9.8,51.3c19.6,31.8,0,95.3-4.9,100.2c-9.8-4.9-36.7-19.5-48.9-9.8
			s-7.3,56.2,4.9,63.5c12.2,7.3,22-4.9,31.8,0c-4.9,12.2-44.3,175.9-31.8,219.9c4.9,36.7,29.6,81.4,66.1,88
			c36.9,6.6,24.5-19.5,7.3-31.8c-17.1-12.2-31.8-14.7-34.3-63.5s41.6-193,58.7-210.1C3672.6,441.7,3679.9,451.5,3689.7,446.6z"/>
		<path style="fill:#FF0000;" d="M3760.7,488.1c-41.6,7.3-97.9,105.1-90.5,185.7c7.3,80.6,66.1,78.2,83.2,78.2
			c17.1,0,56.3-14.7,68.5-26.9s-2.4-34.2-29.4-19.5c-26.9,14.7-63.6,22-75.8-29.3c-12.2-51.3,9.8-139.3,56.3-134.4
			c46.5,4.9,22,68.4-24.5,75.7c-19.6,4.9-24.5,34.2,7.3,34.2c31.8,0,80.7-31.8,83.2-75.7S3802.2,480.8,3760.7,488.1z"/>
		<path style="fill:#FF0000;" d="M4027.3,524.8c-4.9-39.1-53.8-63.5-85.6-56.2c-31.8,7.3-75.8,44-53.8,100.2
			c22,56.2,44,95.3,34.3,122.2s-26.9,26.9-39.1,9.8c-15.2-21.3-36.7-4.9-22,24.4c14.7,29.3,78.3,19.5,97.9-4.9
			c19.6-24.4,12.2-105.1-7.3-131.9c-19.6-26.9-7.3-73.3,19.6-68.4s31.8,22,31.8,34.2S4032.2,563.9,4027.3,524.8z"/>
	</g>
</g>
<g id="Mr._Bigotes">
	<g>
		<path style="fill:#604129;stroke:#000000;stroke-width:3;stroke-miterlimit:10;" d="M1081,219.2c-4.2-13.3-11.1-24.9-29.4-36.6
			c-12.3-7.9-63.2-22.6-70.3-25.4c-12.5-5-18.8-10.3-22.2-13.5C911.5,98.9,796.8,50,683,50s-228.6,48.9-276.2,93.7
			c-3.4,3.2-9.7,8.5-22.2,13.5c-7.1,2.8-58,17.5-70.3,25.4c-18.3,11.7-25.2,23.3-29.4,36.6c-3.8,12.3-5.2,22.6,3.9,28.1
			c7.7,4.7,22.2,1.2,32.6-2.1c9.7-3,31-14.1,38.7-26.2c-9.4,21.5-45.8,92.9-43,160.1c2.3,54.2,19.9,85.8,32.5,108.4
			c-21.8,15.1,25.1,192.3,39.9,217.8l8.4,82.5c-15.8-1.4-56.8,125.4-69.8,162.1h709.4c-13-36.7-54-163.5-69.8-162.1l8.4-82.5
			c14.8-25.5,61.7-202.7,39.9-217.8c12.6-22.6,30.2-54.2,32.5-108.4c2.9-67.2-33.5-138.6-43-160.1c7.7,12.1,29,23.2,38.7,26.2
			c10.5,3.2,24.9,6.8,32.6,2.1C1086.2,241.8,1084.9,231.5,1081,219.2z"/>
		<path style="fill:#9A7058;stroke:#000000;stroke-width:3;stroke-miterlimit:10;" d="M955.5,555.8
			c-28.4-73.2-140.9-137.3-171-122.2h-203c-30.1-15-142.6,49-171,122.2c-26.8,69.1,6.3,132.9,39.4,148.7l180.7,114.9h104.8
			l180.7-114.9C949.2,688.7,982.3,624.9,955.5,555.8z"/>
		<g>
			<ellipse cx="590.3" cy="501" rx="1.7" ry="1.7"/>
			<ellipse cx="553.1" cy="498" rx="1.7" ry="1.7"/>
			<ellipse cx="583.2" cy="529.1" rx="1.7" ry="1.7"/>
			<ellipse cx="621.6" cy="539.2" rx="1.7" ry="1.7"/>
			<ellipse cx="597.3" cy="556.8" rx="1.7" ry="1.7"/>
			<ellipse cx="558.9" cy="539.2" rx="1.7" ry="1.7"/>
			<ellipse cx="538" cy="529.1" rx="1.7" ry="1.7"/>
			<ellipse cx="497" cy="534.2" rx="1.7" ry="1.7"/>
			<ellipse cx="528.8" cy="559.4" rx="1.7" ry="1.7"/>
			<ellipse cx="569" cy="566.1" rx="1.7" ry="1.7"/>
			<ellipse cx="589.9" cy="586.3" rx="1.7" ry="1.7"/>
			<ellipse cx="552.2" cy="582" rx="1.7" ry="1.7"/>
			<ellipse cx="511.2" cy="577.8" rx="1.7" ry="1.7"/>
			<ellipse cx="517.1" cy="604.7" rx="1.7" ry="1.7"/>
		</g>
		<path style="fill:none;stroke:#000000;stroke-width:3;stroke-miterlimit:10;" d="M581.5,410C464.7,348.9,87.9,377,0,451.8"/>
		<path style="fill:none;stroke:#000000;stroke-width:3;stroke-miterlimit:10;" d="M579.8,412.5C490.3,395.3,184,435.4,81.7,560.8"
			/>
		<path style="fill:none;stroke:#000000;stroke-width:3;stroke-miterlimit:10;" d="M581.5,419.6c-60.3-21.3-420.9,128.5-478.8,246.8
			"/>
		<path style="fill:#FFFFFF;stroke:#000000;stroke-width:3;stroke-miterlimit:10;" d="M572.8,296.7c-7.9-6.9-9.2-29.3-32.9-39.1
			c-37.7-15.6-66.8,10.1-77.2,14.1c-0.8,30.3,9,49.2,33.9,61.5C526.8,348.1,561.8,328.2,572.8,296.7z"/>
		<path d="M539.9,257.7c23.8,9.8,25,32.2,32.9,39.1c-3,8.6-7.9,16.4-13.9,22.8c-19,13.2-37.8,9.2-51.1-1.2
			c-13.4-10.6-25.5-26.4-24.9-57.4v0C497.2,254,516.9,248.2,539.9,257.7z"/>
		
			<ellipse transform="matrix(0.5376 -0.8432 0.8432 0.5376 16.9837 574.5013)" style="fill:#FFFFFF;" cx="532.3" cy="271.8" rx="8.5" ry="11.4"/>
		<path style="fill:#FF0000;stroke:#000000;stroke-width:3;stroke-miterlimit:10;" d="M628.7,779.3
			c-66.1-62.9-192.5-76.4-221.6-76.3c-7.8,0-22.5,1-25.5,5c-5.9,7.5,5.5,44,8.6,53.9s14.6,38.8,23.6,43.7c2.7,1.5,8.8,4.3,19.3,7.4
			c-13.1-3.6-18.7-4.5-23.8-3.9c-5.1,0.6-9.3,8.2-9.5,17c-0.2,7,4.3,33.7,4.3,47.6c0,9-5.2,14.7-4.3,24.5
			c1.5,15.9,13.3,33.9,24.4,40.1c9.2,5.1,18.7,3.7,31.6,0c26.7-7.6,156.2-65.7,173.2-88.2h17.2l-0.1-70.7L628.7,779.3z"/>
		<path style="fill:none;stroke:#000000;stroke-width:3;stroke-miterlimit:10;" d="M611.4,814.9c-19.8-27.3-122.3-52.6-162.7-47.1"
			/>
		<path style="fill:none;stroke:#000000;stroke-width:3;stroke-miterlimit:10;" d="M560.2,814.9c-17.3,16.2-61.7,26.3-94.5,27.9"/>
		<path style="fill:none;stroke:#000000;stroke-miterlimit:10;" d="M349.8,487.6c2.8,12.2,36.7,57.3,59.2,72.4"/>
		<path style="fill:none;stroke:#000000;stroke-width:3;stroke-miterlimit:10;" d="M438.2,278.8c8.6,0.2,19.8-4.8,24.4-7.1"/>
		<path style="fill:none;stroke:#000000;stroke-width:3;stroke-miterlimit:10;" d="M584.4,303.2c-5.4-1.2-9.2-3.5-11.6-6.5"/>
		<g>
			<ellipse cx="775.7" cy="501" rx="1.7" ry="1.7"/>
			<ellipse cx="812.9" cy="498" rx="1.7" ry="1.7"/>
			<ellipse cx="782.8" cy="529.1" rx="1.7" ry="1.7"/>
			<ellipse cx="744.4" cy="539.2" rx="1.7" ry="1.7"/>
			<ellipse cx="768.7" cy="556.8" rx="1.7" ry="1.7"/>
			<ellipse cx="807.1" cy="539.2" rx="1.7" ry="1.7"/>
			<ellipse cx="828" cy="529.1" rx="1.7" ry="1.7"/>
			<ellipse cx="869" cy="534.2" rx="1.7" ry="1.7"/>
			<ellipse cx="837.2" cy="559.4" rx="1.7" ry="1.7"/>
			<ellipse cx="797" cy="566.1" rx="1.7" ry="1.7"/>
			<ellipse cx="776.1" cy="586.3" rx="1.7" ry="1.7"/>
			<ellipse cx="813.8" cy="582" rx="1.7" ry="1.7"/>
			<ellipse cx="854.8" cy="577.8" rx="1.7" ry="1.7"/>
			<ellipse cx="848.9" cy="604.7" rx="1.7" ry="1.7"/>
		</g>
		<path style="fill:none;stroke:#000000;stroke-width:3;stroke-miterlimit:10;" d="M784.5,410c116.8-61.1,493.6-32.9,581.5,41.8"/>
		<path style="fill:none;stroke:#000000;stroke-width:3;stroke-miterlimit:10;" d="M786.2,412.5c89.5-17.2,395.8,22.9,498.1,148.3"
			/>
		<path style="fill:none;stroke:#000000;stroke-width:3;stroke-miterlimit:10;" d="M784.5,419.6c60.3-21.3,420.9,128.5,478.8,246.8"
			/>
		<path style="fill:#5B435B;stroke:#000000;stroke-width:3;stroke-miterlimit:10;" d="M683,375.3c-53.7,0-93.6,15.8-105.9,37.3
			c7.1,56.6,92.8,106.5,105.9,106.5s98.8-49.8,105.9-106.5C776.6,391,736.7,375.3,683,375.3z"/>
		<path style="fill:#FFFFFF;stroke:#000000;stroke-width:3;stroke-miterlimit:10;" d="M793.2,296.7c7.9-6.9,9.2-29.3,32.9-39.1
			c37.7-15.6,66.8,10.1,77.2,14.1c0.8,30.3-9,49.2-33.9,61.5C839.2,348.1,804.2,328.2,793.2,296.7z"/>
		<path d="M826.1,257.7c-23.8,9.8-25,32.2-32.9,39.1c3,8.6,7.9,16.4,13.9,22.8c19,13.2,37.8,9.2,51.1-1.2
			c13.4-10.6,25.5-26.4,24.9-57.4v0C868.8,254,849.1,248.2,826.1,257.7z"/>
		
			<ellipse transform="matrix(0.8432 -0.5376 0.5376 0.8432 -15.3801 490.7982)" style="fill:#FFFFFF;" cx="833.7" cy="271.8" rx="11.4" ry="8.5"/>
		<path style="fill:#FF0000;stroke:#000000;stroke-width:3;stroke-miterlimit:10;" d="M737.3,779.3c66.1-62.9,192.5-76.4,221.6-76.3
			c7.8,0,22.5,1,25.5,5c5.9,7.5-5.5,44-8.6,53.9c-3.1,9.9-14.6,38.8-23.6,43.7c-2.7,1.5-9.1,3.6-19.3,7.4c12.9-3,18.7-4.5,23.8-3.9
			c5.1,0.6,9.3,8.2,9.5,17c0.2,7-4.3,33.7-4.3,47.6c0,9,5.2,14.7,4.3,24.5c-1.5,15.9-13.3,33.9-24.4,40.1c-9.2,5.1-18.7,3.7-31.6,0
			c-26.7-7.6-156.2-65.7-173.2-88.2h-17.2l0.1-70.7L737.3,779.3z"/>
		<path style="fill:#FF0000;stroke:#000000;stroke-width:3;stroke-miterlimit:10;" d="M734.2,827.1c-0.5-10.7,6.6-35,4.3-44.7
			c-3.4-14.8-28.2-27.3-55.4-27.3c-27.2,0-52.1,12.5-55.5,27.3c-2.2,9.7,4.8,34.1,4.3,44.7c-0.5,9.1-2.5,9.9-3.9,16.7
			c-2.6,12.9,29.6,31.5,55,31.5s57.6-18.6,55-31.5C736.7,837,734.6,836.2,734.2,827.1z"/>
		<path style="fill:none;stroke:#000000;stroke-width:3;stroke-miterlimit:10;" d="M754.6,814.9c19.8-27.3,122.3-52.6,162.7-47.1"/>
		<path style="fill:none;stroke:#000000;stroke-width:3;stroke-miterlimit:10;" d="M805.8,814.9c17.3,16.2,61.7,26.3,94.5,27.9"/>
		<path style="fill:none;stroke:#000000;stroke-width:3;stroke-miterlimit:10;" d="M856.4,649.7c-59.4,50-166.1-21.4-173.4-59.1
			c-7.3,37.7-114,109.1-173.4,59.1"/>
		<path style="fill:none;stroke:#000000;stroke-miterlimit:10;" d="M1016.2,487.6c-2.8,12.2-36.7,57.3-59.2,72.4"/>
		<path style="fill:none;stroke:#000000;stroke-width:3;stroke-miterlimit:10;" d="M927.8,278.8c-8.6,0.2-19.8-4.8-24.4-7.1"/>
		<path style="fill:none;stroke:#000000;stroke-width:3;stroke-miterlimit:10;" d="M781.6,303.2c5.4-1.2,9.2-3.5,11.6-6.5"/>
		<line style="fill:none;stroke:#000000;stroke-width:3;stroke-miterlimit:10;" x1="683" y1="590.6" x2="683" y2="519.1"/>
	</g>
</g>
</svg>
