<?xml version="1.0" encoding="utf-8"?>
<!-- Generator: Adobe Illustrator 23.0.2, SVG Export Plug-In . SVG Version: 6.00 Build 0)  -->
<svg version="1.1" xmlns="http://www.w3.org/2000/svg" xmlns:xlink="http://www.w3.org/1999/xlink" x="0px" y="0px" width="1366px"
	 height="1366px" viewBox="0 0 1366 1366" style="enable-background:new 0 0 1366 1366;" xml:space="preserve">
<g id="Texto">
	<g>
		<path style="fill:#FF0000;" d="M459,1005.3c-34.3-7.3-61.3,47.8-63.4,78.9c0-8.3-9.4-60.2-61.3-74.8
			c-52-14.5-169.4,5.2-187.1,92.4s22.9,110.1,75.9,105.9s90.4-62.3,89.4-89.3c-1-27-17.2-48.1-57.2-30.1
			c-30.1,13.5-34.3,59.3-24.9,57.1c10.2-2.4,38.9-55.8,57.2-37.4c14,14.1-4.2,37.4-16.6,50.9c-22,23.9-91.6,41.3-96.7-17.7
			c-8.4-97.1,134.3-134,162.7-97.1c25.1,32.5-5.2,112.2-30.1,141.2c-22.1,25.9-53.9,15.6-53,31.2c0.5,8.8,18.2,11.9,53.5-4.7
			c35.3-16.6,60.3-71.7,65.5-104.9c10.4,39.5-32.2,96.6-4.2,89.3c28.1-7.3,43.7-89.3,57.2-110.1c-7.3,14.5-21.8,78.9-22.9,108
			c-1,29.1,24.9,50.9,31.2,44.7c6.2-6.2-2.1-13.5-6.2-40.5S493.3,1012.6,459,1005.3z"/>
		<path style="fill:#FF0000;" d="M500.6,1131c-13.5,1-22.9,11.4-27,11.4s-11.6-9.7-16.6-5.2c-9.4,8.3,9.4,28,7.3,54
			c-2.1,26-11.4,39.5-2.1,40.5c9.4,1,30.1-27,27-47.8s11.4-28,22.9-22.8c11.4,5.2,22.9,4.2,21.8-8.3
			C532.8,1140.3,514.1,1130,500.6,1131z"/>
		<ellipse style="fill:#FF0000;" cx="505.8" cy="1222.4" rx="6.2" ry="7.3"/>
		<ellipse style="fill:#FF0000;" cx="1216.8" cy="1222.4" rx="6.2" ry="7.3"/>
		<path style="fill:#FF0000;" d="M725.1,998.1c-38.5-10.4-91.2,0.8-111.2,14.5c-22.1,15.2-9,61.2-5.2,69.6c4.4,9.5,11.6,35-7.3,39.5
			c2.6,12.4,26,7.3,30.1-22.8c4.2-30.1-12.3-37.9-4.2-58.2c11.6-29.3,44.8-18.4,49.9-11.4c-19.7,10.4-24.9,87.2-26,105.9
			c-1.7,30.1-17.7,71.7-38.5,72.7c-20.8,1-24.9-45.7,4.2-42.6c-10.4-16.6-37.9,10.5-33.3,36.3c4.1,22.5,21.7,28,45.7,22.8
			c20.3-4.4,49.6-64,50.9-97.6c1.4-33.2-1-61.3,4.2-75.8s30.1-19.7,43.7-8.3c13.5,11.4,12.5,27.6,11.4,37.4
			c-1,9.9-13.4,32.3-28.1,34.3c-11.7,1.6-19.7-2.1-19.7,7.3s17.7,3.1,26,5.2c8.3,2.1,21.8,17.7,22.9,35.3s-6.2,42.6-17.7,46.7
			c-11.8,4.3-33.3,1.9-38.5-13.5c-4.2-12.5,4.2-31.2,12.5-32.2c-12.5-8.3-29.1,20.8-24.9,43.6c4.2,22.8,42.5,28.9,62.4,21.8
			c14.6-5.2,36.4-38.4,32.2-73.7c-4.2-35.3-19.7-36.3-27-37.4c18.7-2.1,32.2-13.5,33.3-40.5C774,1050,763.6,1008.4,725.1,998.1z"/>
		<path style="fill:#FF0000;" d="M819.7,1148.6c-8.3-19.7-32.2-24.9-38.5-19.7c-8.3,7.3,9.4,21.8,8.3,40.5s-12.5,34.3-8.3,47.8
			c4.2,13.5,22.9,13.5,24.9,7.3c2.1-6.2-4.2-14.5-6.2-27C797.9,1185,828,1168.4,819.7,1148.6z"/>
		<path style="fill:#FF0000;" d="M808.3,1119.6c9.4,7.3,16.6-4.2,12.5-12.5c-4.2-8.3-17-18.2-20.8-9.3
			C796.8,1105,798.9,1112.3,808.3,1119.6z"/>
		<path style="fill:#FF0000;" d="M901.8,1121.6c-15.6-4.2-7.3,13.5-3.1,20.8c-25.9-27.7-52.6-4.2-61.3,14.5
			c-8.5,18.3-14.6,57.1,2.1,69.6c16.6,12.5,42.6,2.1,49.9-23.9c2.1,9.3-9.4,49.8-19.7,88.3c-10.4,38.4-42.6,22.8-53,16.6
			c1,22.8,20.8,36.3,56.1,17.7c35.3-18.7,44.7-165.1,48.9-179.7C925.7,1131,917.4,1125.8,901.8,1121.6z M862.7,1211.8
			c-14.2,4.5-19.3-5.5-14.6-33.9c5.2-30.7,35.9-37.7,41.7-24.2C894.8,1165.3,880.3,1206.3,862.7,1211.8z"/>
		<g>
			<path style="fill:none;" d="M848.3,1177.9c-4.8,28.4,0.3,38.3,14.6,33.9c17.6-5.5,31.9-46.4,27.1-58.1
				C884,1140.1,853.5,1147.1,848.3,1177.9z"/>
		</g>
		<path style="fill:#FF0000;" d="M974.6,1132c-42.6,2.1-48.9,62.3-38.5,84.1c10.4,21.8,48.9,19.7,62.4-14.5
			C1012,1167.3,993.3,1132,974.6,1132z M982.5,1191c-6.5,16.5-25,17.6-30.1,7.1c-5-10.5-2-39.6,18.6-40.6
			C979.9,1157.5,988.9,1174.5,982.5,1191z"/>
		<g>
			<path style="fill:none;" d="M970.9,1157.5c-20.6,1-23.6,30.1-18.6,40.6s23.6,9.6,30.1-7.1
				C988.9,1174.5,979.9,1157.5,970.9,1157.5z"/>
		</g>
		<path style="fill:#FF0000;" d="M1073.3,1098.8c4.2-2.1,16.6-22.8,10.4-23.9c-6.2-1-13.5,0-17.7-3.1c5.2-6.2,9.4-36.3,6.2-47.8
			c-3.1-11.4-19.7-15.6-30.1-18.7c-10.4-3.1-12.5,8.3-4.2,21.8c8.3,13.5,0,40.5-2.1,42.6c-4.2-2.1-15.6-8.3-20.8-4.2
			c-5.2,4.2-3.1,23.9,2.1,27c5.2,3.1,9.4-2.1,13.5,0c-2.1,5.2-18.8,74.8-13.5,93.5c2.1,15.6,12.6,34.6,28.1,37.4
			c15.7,2.8,10.4-8.3,3.1-13.5c-7.3-5.2-13.5-6.2-14.6-27c-1-20.8,17.7-82,24.9-89.3C1066,1096.7,1069.2,1100.9,1073.3,1098.8z"/>
		<path style="fill:#FF0000;" d="M1103.5,1116.5c-17.7,3.1-41.6,44.7-38.5,78.9c3.1,34.3,28.1,33.2,35.3,33.2
			c7.3,0,23.9-6.2,29.1-11.4c5.2-5.2-1-14.5-12.5-8.3c-11.4,6.2-27,9.3-32.2-12.5c-5.2-21.8,4.2-59.2,23.9-57.1
			c19.7,2.1,9.4,29.1-10.4,32.2c-8.3,2.1-10.4,14.5,3.1,14.5c13.5,0,34.3-13.5,35.3-32.2C1137.8,1135.1,1121.1,1113.3,1103.5,1116.5
			z"/>
		<path style="fill:#FF0000;" d="M1216.8,1132c-2.1-16.6-22.9-27-36.4-23.9c-13.5,3.1-32.2,18.7-22.9,42.6
			c9.4,23.9,18.7,40.5,14.6,51.9s-11.4,11.4-16.6,4.2c-6.4-9-15.6-2.1-9.4,10.4c6.2,12.5,33.3,8.3,41.6-2.1
			c8.3-10.4,5.2-44.7-3.1-56.1c-8.3-11.4-3.1-31.2,8.3-29.1c11.4,2.1,13.5,9.3,13.5,14.5C1206.4,1149.7,1218.8,1148.6,1216.8,1132z"
			/>
	</g>
</g>
<g id="Mr._Bigotes">
	<g>
		<path style="fill:#604129;stroke:#000000;stroke-width:3;stroke-miterlimit:10;" d="M1081,201.2c-4.2-13.3-11.1-24.9-29.4-36.6
			c-12.3-7.9-63.2-22.6-70.3-25.4c-12.5-5-18.8-10.3-22.2-13.5C911.5,80.9,796.8,32,683,32s-228.6,48.9-276.2,93.7
			c-3.4,3.2-9.7,8.5-22.2,13.5c-7.1,2.8-58,17.5-70.3,25.4c-18.3,11.7-25.2,23.3-29.4,36.6c-3.8,12.3-5.2,22.6,3.9,28.1
			c7.7,4.7,22.2,1.2,32.6-2.1c9.7-3,31-14.1,38.7-26.2c-9.4,21.5-45.8,92.9-43,160.1c2.3,54.2,19.9,85.8,32.5,108.4
			c-21.8,15.1,25.1,192.3,39.9,217.8l8.4,82.5c-15.8-1.4-56.8,125.4-69.8,162.1h709.4c-13-36.7-54-163.5-69.8-162.1l8.4-82.5
			c14.8-25.5,61.7-202.7,39.9-217.8c12.6-22.6,30.2-54.2,32.5-108.4c2.9-67.2-33.5-138.6-43-160.1c7.7,12.1,29,23.2,38.7,26.2
			c10.5,3.2,24.9,6.8,32.6,2.1C1086.2,223.8,1084.9,213.5,1081,201.2z"/>
		<path style="fill:#9A7058;stroke:#000000;stroke-width:3;stroke-miterlimit:10;" d="M955.5,537.8
			c-28.4-73.2-140.9-137.3-171-122.2h-203c-30.1-15-142.6,49-171,122.2c-26.8,69.1,6.3,132.9,39.4,148.7l180.7,114.9h104.8
			l180.7-114.9C949.2,670.7,982.3,606.9,955.5,537.8z"/>
		<g>
			<ellipse cx="590.3" cy="483" rx="1.7" ry="1.7"/>
			<ellipse cx="553.1" cy="480" rx="1.7" ry="1.7"/>
			<ellipse cx="583.2" cy="511.1" rx="1.7" ry="1.7"/>
			<ellipse cx="621.6" cy="521.2" rx="1.7" ry="1.7"/>
			<ellipse cx="597.3" cy="538.8" rx="1.7" ry="1.7"/>
			<ellipse cx="558.9" cy="521.2" rx="1.7" ry="1.7"/>
			<ellipse cx="538" cy="511.1" rx="1.7" ry="1.7"/>
			<ellipse cx="497" cy="516.2" rx="1.7" ry="1.7"/>
			<ellipse cx="528.8" cy="541.4" rx="1.7" ry="1.7"/>
			<ellipse cx="569" cy="548.1" rx="1.7" ry="1.7"/>
			<ellipse cx="589.9" cy="568.3" rx="1.7" ry="1.7"/>
			<ellipse cx="552.2" cy="564" rx="1.7" ry="1.7"/>
			<ellipse cx="511.2" cy="559.8" rx="1.7" ry="1.7"/>
			<ellipse cx="517.1" cy="586.7" rx="1.7" ry="1.7"/>
		</g>
		<path style="fill:none;stroke:#000000;stroke-width:3;stroke-miterlimit:10;" d="M581.5,392C464.7,330.9,87.9,359,0,433.8"/>
		<path style="fill:none;stroke:#000000;stroke-width:3;stroke-miterlimit:10;" d="M579.8,394.5C490.3,377.3,184,417.4,81.7,542.8"
			/>
		<path style="fill:none;stroke:#000000;stroke-width:3;stroke-miterlimit:10;" d="M581.5,401.6c-60.3-21.3-420.9,128.5-478.8,246.8
			"/>
		<path style="fill:#FFFFFF;stroke:#000000;stroke-width:3;stroke-miterlimit:10;" d="M572.8,278.7c-7.9-6.9-9.2-29.3-32.9-39.1
			c-37.7-15.6-66.8,10.1-77.2,14.1c-0.8,30.3,9,49.2,33.9,61.5C526.8,330.1,561.8,310.2,572.8,278.7z"/>
		<path d="M539.9,239.7c23.8,9.8,25,32.2,32.9,39.1c-3,8.6-7.9,16.4-13.9,22.8c-19,13.2-37.8,9.2-51.1-1.2
			c-13.4-10.6-25.5-26.4-24.9-57.4v0C497.2,236,516.9,230.2,539.9,239.7z"/>
		
			<ellipse transform="matrix(0.5376 -0.8432 0.8432 0.5376 32.1615 566.1779)" style="fill:#FFFFFF;" cx="532.3" cy="253.8" rx="8.5" ry="11.4"/>
		<path style="fill:#FF0000;stroke:#000000;stroke-width:3;stroke-miterlimit:10;" d="M628.7,761.3
			c-66.1-62.9-192.5-76.4-221.6-76.3c-7.8,0-22.5,1-25.5,5c-5.9,7.5,5.5,44,8.6,53.9s14.6,38.8,23.6,43.7c2.7,1.5,8.8,4.3,19.3,7.4
			c-13.1-3.6-18.7-4.5-23.8-3.9c-5.1,0.6-9.3,8.2-9.5,17c-0.2,7,4.3,33.7,4.3,47.6c0,9-5.2,14.7-4.3,24.5
			c1.5,15.9,13.3,33.9,24.4,40.1c9.2,5.1,18.7,3.7,31.6,0c26.7-7.6,156.2-65.7,173.2-88.2h17.2l-0.1-70.7L628.7,761.3z"/>
		<path style="fill:none;stroke:#000000;stroke-width:3;stroke-miterlimit:10;" d="M611.4,796.9c-19.8-27.3-122.3-52.6-162.7-47.1"
			/>
		<path style="fill:none;stroke:#000000;stroke-width:3;stroke-miterlimit:10;" d="M560.2,796.9c-17.3,16.2-61.7,26.3-94.5,27.9"/>
		<path style="fill:none;stroke:#000000;stroke-miterlimit:10;" d="M349.8,469.6c2.8,12.2,36.7,57.3,59.2,72.4"/>
		<path style="fill:none;stroke:#000000;stroke-width:3;stroke-miterlimit:10;" d="M438.2,260.8c8.6,0.2,19.8-4.8,24.4-7.1"/>
		<path style="fill:none;stroke:#000000;stroke-width:3;stroke-miterlimit:10;" d="M584.4,285.2c-5.4-1.2-9.2-3.5-11.6-6.5"/>
		<g>
			<ellipse cx="775.7" cy="483" rx="1.7" ry="1.7"/>
			<ellipse cx="812.9" cy="480" rx="1.7" ry="1.7"/>
			<ellipse cx="782.8" cy="511.1" rx="1.7" ry="1.7"/>
			<ellipse cx="744.4" cy="521.2" rx="1.7" ry="1.7"/>
			<ellipse cx="768.7" cy="538.8" rx="1.7" ry="1.7"/>
			<ellipse cx="807.1" cy="521.2" rx="1.7" ry="1.7"/>
			<ellipse cx="828" cy="511.1" rx="1.7" ry="1.7"/>
			<ellipse cx="869" cy="516.2" rx="1.7" ry="1.7"/>
			<ellipse cx="837.2" cy="541.4" rx="1.7" ry="1.7"/>
			<ellipse cx="797" cy="548.1" rx="1.7" ry="1.7"/>
			<ellipse cx="776.1" cy="568.3" rx="1.7" ry="1.7"/>
			<ellipse cx="813.8" cy="564" rx="1.7" ry="1.7"/>
			<ellipse cx="854.8" cy="559.8" rx="1.7" ry="1.7"/>
			<ellipse cx="848.9" cy="586.7" rx="1.7" ry="1.7"/>
		</g>
		<path style="fill:none;stroke:#000000;stroke-width:3;stroke-miterlimit:10;" d="M784.5,392c116.8-61.1,493.6-32.9,581.5,41.8"/>
		<path style="fill:none;stroke:#000000;stroke-width:3;stroke-miterlimit:10;" d="M786.2,394.5c89.5-17.2,395.8,22.9,498.1,148.3"
			/>
		<path style="fill:none;stroke:#000000;stroke-width:3;stroke-miterlimit:10;" d="M784.5,401.6c60.3-21.3,420.9,128.5,478.8,246.8"
			/>
		<path style="fill:#5B435B;stroke:#000000;stroke-width:3;stroke-miterlimit:10;" d="M683,357.3c-53.7,0-93.6,15.8-105.9,37.3
			c7.1,56.6,92.8,106.5,105.9,106.5s98.8-49.8,105.9-106.5C776.6,373,736.7,357.3,683,357.3z"/>
		<path style="fill:#FFFFFF;stroke:#000000;stroke-width:3;stroke-miterlimit:10;" d="M793.2,278.7c7.9-6.9,9.2-29.3,32.9-39.1
			c37.7-15.6,66.8,10.1,77.2,14.1c0.8,30.3-9,49.2-33.9,61.5C839.2,330.1,804.2,310.2,793.2,278.7z"/>
		<path d="M826.1,239.7c-23.8,9.8-25,32.2-32.9,39.1c3,8.6,7.9,16.4,13.9,22.8c19,13.2,37.8,9.2,51.1-1.2
			c13.4-10.6,25.5-26.4,24.9-57.4v0C868.8,236,849.1,230.2,826.1,239.7z"/>
		
			<ellipse transform="matrix(0.8432 -0.5376 0.5376 0.8432 -5.7036 487.976)" style="fill:#FFFFFF;" cx="833.7" cy="253.8" rx="11.4" ry="8.5"/>
		<path style="fill:#FF0000;stroke:#000000;stroke-width:3;stroke-miterlimit:10;" d="M737.3,761.3c66.1-62.9,192.5-76.4,221.6-76.3
			c7.8,0,22.5,1,25.5,5c5.9,7.5-5.5,44-8.6,53.9c-3.1,9.9-14.6,38.8-23.6,43.7c-2.7,1.5-9.1,3.6-19.3,7.4c12.9-3,18.7-4.5,23.8-3.9
			c5.1,0.6,9.3,8.2,9.5,17c0.2,7-4.3,33.7-4.3,47.6c0,9,5.2,14.7,4.3,24.5c-1.5,15.9-13.3,33.9-24.4,40.1c-9.2,5.1-18.7,3.7-31.6,0
			c-26.7-7.6-156.2-65.7-173.2-88.2h-17.2l0.1-70.7L737.3,761.3z"/>
		<path style="fill:#FF0000;stroke:#000000;stroke-width:3;stroke-miterlimit:10;" d="M734.2,809.1c-0.5-10.7,6.6-35,4.3-44.7
			c-3.4-14.8-28.2-27.3-55.4-27.3c-27.2,0-52.1,12.5-55.5,27.3c-2.2,9.7,4.8,34.1,4.3,44.7c-0.5,9.1-2.5,9.9-3.9,16.7
			c-2.6,12.9,29.6,31.5,55,31.5s57.6-18.6,55-31.5C736.7,819,734.6,818.2,734.2,809.1z"/>
		<path style="fill:none;stroke:#000000;stroke-width:3;stroke-miterlimit:10;" d="M754.6,796.9c19.8-27.3,122.3-52.6,162.7-47.1"/>
		<path style="fill:none;stroke:#000000;stroke-width:3;stroke-miterlimit:10;" d="M805.8,796.9c17.3,16.2,61.7,26.3,94.5,27.9"/>
		<path style="fill:none;stroke:#000000;stroke-width:3;stroke-miterlimit:10;" d="M856.4,631.7c-59.4,50-166.1-21.4-173.4-59.1
			c-7.3,37.7-114,109.1-173.4,59.1"/>
		<path style="fill:none;stroke:#000000;stroke-miterlimit:10;" d="M1016.2,469.6c-2.8,12.2-36.7,57.3-59.2,72.4"/>
		<path style="fill:none;stroke:#000000;stroke-width:3;stroke-miterlimit:10;" d="M927.8,260.8c-8.6,0.2-19.8-4.8-24.4-7.1"/>
		<path style="fill:none;stroke:#000000;stroke-width:3;stroke-miterlimit:10;" d="M781.6,285.2c5.4-1.2,9.2-3.5,11.6-6.5"/>
		<line style="fill:none;stroke:#000000;stroke-width:3;stroke-miterlimit:10;" x1="683" y1="572.6" x2="683" y2="501.1"/>
	</g>
</g>
</svg>
