<?xml version="1.0" encoding="utf-8"?>
<!-- Generator: Adobe Illustrator 23.0.2, SVG Export Plug-In . SVG Version: 6.00 Build 0)  -->
<svg version="1.1" id="Capa_1" xmlns="http://www.w3.org/2000/svg" xmlns:xlink="http://www.w3.org/1999/xlink" x="0px" y="0px"
	 width="425px" height="100px" viewBox="0 0 425 100" style="enable-background:new 0 0 425 100;" xml:space="preserve">
<g>
	<path style="fill:#AB87FF;" d="M425,46c-35,0-65,50-100,50H0V0h425V46z"/>
	<path style="fill:#FF0000;" d="M425,50c-35,0-65,50-100,50H0v-4h325c35,0,65-50,100-50V50z"/>
</g>
<g>
	<path style="fill:#FF0000;" d="M203.8,21.8c-7.2-1.5-12.9,10.1-13.4,16.6c0-1.7-2-12.7-12.9-15.7s-35.7,1.1-39.4,19.5
		s4.8,23.2,16,22.3c11.2-0.9,19-13.1,18.8-18.8c-0.2-5.7-3.6-10.1-12-6.3c-6.3,2.8-7.2,12.5-5.3,12c2.1-0.5,8.2-11.7,12-7.9
		c3,3-0.9,7.9-3.5,10.7c-4.6,5-19.3,8.7-20.4-3.7C142,30,172.1,22.2,178,30c5.3,6.8-1.1,23.6-6.3,29.7c-4.7,5.4-11.4,3.3-11.2,6.6
		c0.1,1.9,3.8,2.5,11.3-1c7.4-3.5,12.7-15.1,13.8-22.1c2.2,8.3-6.8,20.3-0.9,18.8c5.9-1.5,9.2-18.8,12-23.2
		c-1.5,3.1-4.6,16.6-4.8,22.7c-0.2,6.1,5.3,10.7,6.6,9.4s-0.4-2.8-1.3-8.5C196.3,56.8,211,23.3,203.8,21.8z"/>
	<path style="fill:#FF0000;" d="M212.5,48.3c-2.8,0.2-4.8,2.4-5.7,2.4c-0.9,0-2.5-2-3.5-1.1c-2,1.7,2,5.9,1.5,11.4s-2.4,8.3-0.4,8.5
		s6.3-5.7,5.7-10.1c-0.7-4.4,2.4-5.9,4.8-4.8c2.4,1.1,4.8,0.9,4.6-1.7C219.3,50.2,215.4,48,212.5,48.3z"/>
	<ellipse style="fill:#FF0000;" cx="213.6" cy="67.5" rx="1.3" ry="1.5"/>
	<ellipse style="fill:#FF0000;" cx="363.3" cy="67.5" rx="1.3" ry="1.5"/>
	<path style="fill:#FF0000;" d="M259.8,20.3c-8.1-2.2-19.2,0.2-23.4,3.1c-4.7,3.2-1.9,12.9-1.1,14.6c0.9,2,2.5,7.4-1.5,8.3
		c0.5,2.6,5.5,1.5,6.3-4.8c0.9-6.3-2.6-8-0.9-12.2c2.5-6.2,9.4-3.9,10.5-2.4c-4.2,2.2-5.3,18.4-5.5,22.3c-0.4,6.3-3.7,15.1-8.1,15.3
		s-5.3-9.6,0.9-9c-2.2-3.5-8,2.2-7,7.7c0.9,4.7,4.6,5.9,9.6,4.8c4.3-0.9,10.4-13.5,10.7-20.6c0.3-7-0.2-12.9,0.9-16s6.3-4.2,9.2-1.7
		c2.8,2.4,2.6,5.8,2.4,7.9c-0.2,2.1-2.8,6.8-5.9,7.2c-2.5,0.3-4.2-0.4-4.2,1.5s3.7,0.7,5.5,1.1c1.8,0.4,4.6,3.7,4.8,7.4
		c0.2,3.7-1.3,9-3.7,9.8c-2.5,0.9-7,0.4-8.1-2.8c-0.9-2.6,0.9-6.6,2.6-6.8c-2.6-1.7-6.1,4.4-5.3,9.2c0.9,4.8,9,6.1,13.1,4.6
		c3.1-1.1,7.7-8.1,6.8-15.5s-4.2-7.7-5.7-7.9c3.9-0.4,6.8-2.8,7-8.5C270.1,31.2,267.9,22.5,259.8,20.3z"/>
	<path style="fill:#FF0000;" d="M279.7,52c-1.8-4.2-6.8-5.2-8.1-4.2c-1.8,1.5,2,4.6,1.8,8.5c-0.2,3.9-2.6,7.2-1.8,10.1
		c0.9,2.8,4.8,2.8,5.3,1.5c0.4-1.3-0.9-3.1-1.3-5.7C275.1,59.6,281.5,56.1,279.7,52z"/>
	<path style="fill:#FF0000;" d="M277.3,45.9c2,1.5,3.5-0.9,2.6-2.6c-0.9-1.7-3.6-3.8-4.4-2C274.9,42.8,275.3,44.3,277.3,45.9z"/>
	<path style="fill:#FF0000;" d="M297,46.3c-3.3-0.9-1.5,2.8-0.7,4.4c-5.5-5.8-11.1-0.9-12.9,3.1c-1.8,3.8-3.1,12,0.4,14.6
		c3.5,2.6,9,0.4,10.5-5c0.4,2-2,10.5-4.2,18.6s-9,4.8-11.2,3.5c0.2,4.8,4.4,7.7,11.8,3.7s9.4-34.8,10.3-37.8
		C302,48.3,300.3,47.2,297,46.3z M288.8,65.3c-3,0.9-4.1-1.2-3.1-7.1c1.1-6.5,7.6-7.9,8.8-5.1C295.5,55.5,292.5,64.1,288.8,65.3z"/>
	<g>
		<path style="fill:none;" d="M285.7,58.1c-1,6,0.1,8.1,3.1,7.1c3.7-1.2,6.7-9.8,5.7-12.2C293.3,50.2,286.8,51.7,285.7,58.1z"/>
	</g>
	<path style="fill:#FF0000;" d="M312.3,48.5c-9,0.4-10.3,13.1-8.1,17.7s10.3,4.2,13.1-3.1C320.2,55.9,316.3,48.5,312.3,48.5z
		 M314,60.9c-1.4,3.5-5.3,3.7-6.3,1.5c-1.1-2.2-0.4-8.3,3.9-8.5C313.5,53.8,315.4,57.4,314,60.9z"/>
	<g>
		<path style="fill:none;" d="M311.6,53.8c-4.3,0.2-5,6.3-3.9,8.5c1.1,2.2,5,2,6.3-1.5C315.4,57.4,313.5,53.8,311.6,53.8z"/>
	</g>
	<path style="fill:#FF0000;" d="M333.1,41.5c0.9-0.4,3.5-4.8,2.2-5c-1.3-0.2-2.8,0-3.7-0.7c1.1-1.3,2-7.7,1.3-10.1s-4.2-3.3-6.3-3.9
		c-2.2-0.7-2.6,1.7-0.9,4.6c1.8,2.8,0,8.5-0.4,9c-0.9-0.4-3.3-1.7-4.4-0.9c-1.1,0.9-0.7,5,0.4,5.7s2-0.4,2.8,0
		c-0.4,1.1-4,15.7-2.8,19.7c0.4,3.3,2.6,7.3,5.9,7.9c3.3,0.6,2.2-1.7,0.7-2.8c-1.5-1.1-2.8-1.3-3.1-5.7c-0.2-4.4,3.7-17.3,5.3-18.8
		C331.6,41,332.3,41.9,333.1,41.5z"/>
	<path style="fill:#FF0000;" d="M339.5,45.2c-3.7,0.7-8.8,9.4-8.1,16.6c0.7,7.2,5.9,7,7.4,7c1.5,0,5-1.3,6.1-2.4s-0.2-3.1-2.6-1.7
		c-2.4,1.3-5.7,2-6.8-2.6c-1.1-4.6,0.9-12.5,5-12c4.2,0.4,2,6.1-2.2,6.8c-1.8,0.4-2.2,3.1,0.7,3.1c2.8,0,7.2-2.8,7.4-6.8
		C346.7,49.1,343.2,44.5,339.5,45.2z"/>
	<path style="fill:#FF0000;" d="M363.3,48.5c-0.4-3.5-4.8-5.7-7.7-5c-2.8,0.7-6.8,3.9-4.8,9s3.9,8.5,3.1,10.9
		c-0.9,2.4-2.4,2.4-3.5,0.9c-1.4-1.9-3.3-0.4-2,2.2c1.3,2.6,7,1.7,8.8-0.4c1.8-2.2,1.1-9.4-0.7-11.8c-1.8-2.4-0.7-6.6,1.8-6.1
		c2.4,0.4,2.8,2,2.8,3.1S363.8,52,363.3,48.5z"/>
</g>
<g>
	<path style="fill:#604129;stroke:#000000;stroke-width:0.75;stroke-miterlimit:10;" d="M99.7,21.1c-0.4-1.2-1-2.2-2.6-3.3
		c-1.1-0.7-5.7-2-6.3-2.3c-1.1-0.4-1.7-0.9-2-1.2C84.6,10.4,74.3,6,64.1,6s-20.4,4.4-24.7,8.4c-0.3,0.3-0.9,0.8-2,1.2
		c-0.6,0.3-5.2,1.6-6.3,2.3c-1.6,1-2.3,2.1-2.6,3.3c-0.3,1.1-0.5,2,0.4,2.5c0.7,0.4,2,0.1,2.9-0.2c0.9-0.3,2.8-1.3,3.5-2.3
		c-0.8,1.9-4.1,8.3-3.8,14.3c0.2,4.8,1.8,7.7,2.9,9.7c-2,1.4,2.2,17.2,3.6,19.5l0.7,7.4c-1.4-0.1-5.1,11.2-6.2,14.5h63.5
		C94.7,83.2,91,71.9,89.6,72l0.7-7.4c1.3-2.3,5.5-18.1,3.6-19.5c1.1-2,2.7-4.9,2.9-9.7c0.3-6-3-12.4-3.8-14.3
		c0.7,1.1,2.6,2.1,3.5,2.3c0.9,0.3,2.2,0.6,2.9,0.2C100.2,23.2,100.1,22.2,99.7,21.1z"/>
	<path style="fill:#9A7058;stroke:#000000;stroke-width:0.75;stroke-miterlimit:10;" d="M88.5,51.3C85.9,44.7,75.9,39,73.2,40.3H55
		c-2.7-1.3-12.8,4.4-15.3,10.9c-2.4,6.2,0.6,11.9,3.5,13.3l16.2,10.3h9.4L85,64.6C87.9,63.1,90.9,57.4,88.5,51.3z"/>
	<g>
		<circle cx="55.8" cy="46.4" r="0.2"/>
		<circle cx="52.5" cy="46.1" r="0.2"/>
		<circle cx="55.2" cy="48.9" r="0.2"/>
		<circle cx="58.6" cy="49.8" r="0.2"/>
		<circle cx="56.4" cy="51.3" r="0.2"/>
		<circle cx="53" cy="49.8" r="0.2"/>
		<circle cx="51.1" cy="48.9" r="0.2"/>
		<circle cx="47.5" cy="49.3" r="0.2"/>
		<circle cx="50.3" cy="51.6" r="0.2"/>
		<circle cx="53.9" cy="52.2" r="0.2"/>
		<circle cx="55.8" cy="54" r="0.2"/>
		<circle cx="52.4" cy="53.6" r="0.2"/>
		<circle cx="48.7" cy="53.2" r="0.2"/>
		<circle cx="49.3" cy="55.6" r="0.2"/>
	</g>
	<path style="fill:none;stroke:#000000;stroke-width:0.75;stroke-miterlimit:10;" d="M55,38.2c-10.5-5.5-44.2-2.9-52,3.7"/>
	<path style="fill:none;stroke:#000000;stroke-width:0.75;stroke-miterlimit:10;" d="M54.9,38.4c-8-1.5-35.4,2-44.6,13.3"/>
	<path style="fill:none;stroke:#000000;stroke-width:0.75;stroke-miterlimit:10;" d="M55,39.1c-5.4-1.9-37.7,11.5-42.8,22.1"/>
	<path style="fill:#FFFFFF;stroke:#000000;stroke-width:0.75;stroke-miterlimit:10;" d="M54.3,28.1c-0.7-0.6-0.8-2.6-2.9-3.5
		c-3.4-1.4-6,0.9-6.9,1.3c-0.1,2.7,0.8,4.4,3,5.5C50.1,32.7,53.3,30.9,54.3,28.1z"/>
	<path d="M51.3,24.6c2.1,0.9,2.2,2.9,2.9,3.5c-0.3,0.8-0.7,1.5-1.2,2c-1.7,1.2-3.4,0.8-4.6-0.1c-1.2-0.9-2.3-2.4-2.2-5.1v0
		C47.5,24.3,49.3,23.7,51.3,24.6z"/>
	
		<ellipse transform="matrix(0.5376 -0.8432 0.8432 0.5376 1.6198 54.6382)" style="fill:#FFFFFF;" cx="50.6" cy="25.8" rx="0.8" ry="1"/>
	<path style="fill:#FF0000;stroke:#000000;stroke-width:0.75;stroke-miterlimit:10;" d="M59.3,71.3c-5.9-5.6-17.2-6.8-19.8-6.8
		c-0.7,0-2,0.1-2.3,0.4c-0.5,0.7,0.5,3.9,0.8,4.8c0.3,0.9,1.3,3.5,2.1,3.9c0.2,0.1,0.8,0.4,1.7,0.7c-1.2-0.3-1.7-0.4-2.1-0.3
		c-0.5,0.1-0.8,0.7-0.8,1.5c0,0.6,0.4,3,0.4,4.3c0,0.8-0.5,1.3-0.4,2.2c0.1,1.4,1.2,3,2.2,3.6c0.8,0.5,1.7,0.3,2.8,0
		c2.4-0.7,14-5.9,15.5-7.9h1.5l0-6.3L59.3,71.3z"/>
	<path style="fill:none;stroke:#000000;stroke-width:0.75;stroke-miterlimit:10;" d="M57.7,74.4c-1.8-2.4-10.9-4.7-14.6-4.2"/>
	<path style="fill:none;stroke:#000000;stroke-width:0.75;stroke-miterlimit:10;" d="M53.1,74.4c-1.5,1.5-5.5,2.4-8.5,2.5"/>
	<path style="fill:none;stroke:#000000;stroke-width:0.25;stroke-miterlimit:10;" d="M34.3,45.2c0.2,1.1,3.3,5.1,5.3,6.5"/>
	<path style="fill:none;stroke:#000000;stroke-width:0.75;stroke-miterlimit:10;" d="M42.2,26.5c0.8,0,1.8-0.4,2.2-0.6"/>
	<path style="fill:none;stroke:#000000;stroke-width:0.75;stroke-miterlimit:10;" d="M55.3,28.7c-0.5-0.1-0.8-0.3-1-0.6"/>
	<g>
		<circle cx="72.4" cy="46.4" r="0.2"/>
		<circle cx="75.7" cy="46.1" r="0.2"/>
		<circle cx="73" cy="48.9" r="0.2"/>
		<circle cx="69.6" cy="49.8" r="0.2"/>
		<circle cx="71.8" cy="51.3" r="0.2"/>
		<circle cx="75.2" cy="49.8" r="0.2"/>
		<circle cx="77.1" cy="48.9" r="0.2"/>
		<circle cx="80.8" cy="49.3" r="0.2"/>
		<circle cx="77.9" cy="51.6" r="0.2"/>
		<circle cx="74.3" cy="52.2" r="0.2"/>
		<circle cx="72.4" cy="54" r="0.2"/>
		<circle cx="75.8" cy="53.6" r="0.2"/>
		<circle cx="79.5" cy="53.2" r="0.2"/>
		<circle cx="79" cy="55.6" r="0.2"/>
	</g>
	<path style="fill:none;stroke:#000000;stroke-width:0.75;stroke-miterlimit:10;" d="M73.2,38.2c10.5-5.5,44.2-2.9,52,3.7"/>
	<path style="fill:none;stroke:#000000;stroke-width:0.75;stroke-miterlimit:10;" d="M73.3,38.4c8-1.5,35.4,2,44.6,13.3"/>
	<path style="fill:none;stroke:#000000;stroke-width:0.75;stroke-miterlimit:10;" d="M73.2,39.1c5.4-1.9,37.7,11.5,42.8,22.1"/>
	<path style="fill:#5B435B;stroke:#000000;stroke-width:0.75;stroke-miterlimit:10;" d="M64.1,35.1c-4.8,0-8.4,1.4-9.5,3.3
		c0.6,5.1,8.3,9.5,9.5,9.5c1.2,0,8.8-4.5,9.5-9.5C72.5,36.5,68.9,35.1,64.1,35.1z"/>
	<path style="fill:#FFFFFF;stroke:#000000;stroke-width:0.75;stroke-miterlimit:10;" d="M74,28.1c0.7-0.6,0.8-2.6,2.9-3.5
		c3.4-1.4,6,0.9,6.9,1.3c0.1,2.7-0.8,4.4-3,5.5C78.1,32.7,75,30.9,74,28.1z"/>
	<path d="M76.9,24.6c-2.1,0.9-2.2,2.9-2.9,3.5c0.3,0.8,0.7,1.5,1.2,2c1.7,1.2,3.4,0.8,4.6-0.1c1.2-0.9,2.3-2.4,2.2-5.1v0
		C80.7,24.3,79,23.7,76.9,24.6z"/>
	
		<ellipse transform="matrix(0.8432 -0.5376 0.5376 0.8432 -1.7263 45.7656)" style="fill:#FFFFFF;" cx="77.6" cy="25.8" rx="1" ry="0.8"/>
	<path style="fill:#FF0000;stroke:#000000;stroke-width:0.75;stroke-miterlimit:10;" d="M69,71.3c5.9-5.6,17.2-6.8,19.8-6.8
		c0.7,0,2,0.1,2.3,0.4c0.5,0.7-0.5,3.9-0.8,4.8s-1.3,3.5-2.1,3.9c-0.2,0.1-0.8,0.3-1.7,0.7c1.2-0.3,1.7-0.4,2.1-0.3
		c0.5,0.1,0.8,0.7,0.8,1.5c0,0.6-0.4,3-0.4,4.3c0,0.8,0.5,1.3,0.4,2.2c-0.1,1.4-1.2,3-2.2,3.6c-0.8,0.5-1.7,0.3-2.8,0
		c-2.4-0.7-14-5.9-15.5-7.9h-1.5l0-6.3L69,71.3z"/>
	<path style="fill:#FF0000;stroke:#000000;stroke-width:0.75;stroke-miterlimit:10;" d="M68.7,75.5c0-1,0.6-3.1,0.4-4
		c-0.3-1.3-2.5-2.4-5-2.4c-2.4,0-4.7,1.1-5,2.4c-0.2,0.9,0.4,3,0.4,4c0,0.8-0.2,0.9-0.3,1.5c-0.2,1.2,2.7,2.8,4.9,2.8
		c2.3,0,5.2-1.7,4.9-2.8C68.9,76.4,68.7,76.3,68.7,75.5z"/>
	<path style="fill:none;stroke:#000000;stroke-width:0.75;stroke-miterlimit:10;" d="M70.5,74.4c1.8-2.4,10.9-4.7,14.6-4.2"/>
	<path style="fill:none;stroke:#000000;stroke-width:0.75;stroke-miterlimit:10;" d="M75.1,74.4c1.5,1.5,5.5,2.4,8.5,2.5"/>
	<path style="fill:none;stroke:#000000;stroke-width:0.75;stroke-miterlimit:10;" d="M79.6,59.7c-5.3,4.5-14.9-1.9-15.5-5.3
		c-0.7,3.4-10.2,9.8-15.5,5.3"/>
	<path style="fill:none;stroke:#000000;stroke-width:0.25;stroke-miterlimit:10;" d="M93.9,45.2c-0.2,1.1-3.3,5.1-5.3,6.5"/>
	<path style="fill:none;stroke:#000000;stroke-width:0.75;stroke-miterlimit:10;" d="M86,26.5c-0.8,0-1.8-0.4-2.2-0.6"/>
	<path style="fill:none;stroke:#000000;stroke-width:0.75;stroke-miterlimit:10;" d="M72.9,28.7c0.5-0.1,0.8-0.3,1-0.6"/>
	<line style="fill:none;stroke:#000000;stroke-width:0.75;stroke-miterlimit:10;" x1="64.1" y1="54.4" x2="64.1" y2="48"/>
</g>
</svg>
