<?xml version="1.0" encoding="utf-8"?>
<!-- Generator: Adobe Illustrator 23.0.2, SVG Export Plug-In . SVG Version: 6.00 Build 0)  -->
<svg version="1.1" id="Capa_1" xmlns="http://www.w3.org/2000/svg" xmlns:xlink="http://www.w3.org/1999/xlink" x="0px" y="0px"
	 width="68px" height="46px" viewBox="0 0 68 46" style="enable-background:new 0 0 68 46;" xml:space="preserve">
<g>
	<path style="fill:#604129;stroke:#000000;stroke-width:0.5;stroke-miterlimit:10;" d="M53,9.7C52.8,9,52.4,8.5,51.6,8
		c-0.6-0.4-2.9-1.1-3.3-1.2c-0.6-0.2-0.9-0.5-1-0.6C45,4,39.7,1.8,34.4,1.8S23.7,4,21.5,6.1c-0.2,0.2-0.5,0.4-1,0.6
		c-0.3,0.1-2.7,0.8-3.3,1.2C16.3,8.5,16,9,15.8,9.7c-0.2,0.6-0.2,1.1,0.2,1.3c0.4,0.2,1,0.1,1.5-0.1c0.5-0.1,1.4-0.7,1.8-1.2
		c-0.4,1-2.1,4.3-2,7.5c0.1,2.5,0.9,4,1.5,5.1c-1,0.7,1.2,9,1.9,10.2l0.4,3.9c-0.7-0.1-2.7,5.9-3.3,7.6h33.1
		c-0.6-1.7-2.5-7.6-3.3-7.6l0.4-3.9c0.7-1.2,2.9-9.5,1.9-10.2c0.6-1.1,1.4-2.5,1.5-5.1c0.1-3.1-1.6-6.5-2-7.5
		c0.4,0.6,1.4,1.1,1.8,1.2c0.5,0.2,1.2,0.3,1.5,0.1C53.2,10.7,53.1,10.2,53,9.7z"/>
	<path style="fill:#9A7058;stroke:#000000;stroke-width:0.5;stroke-miterlimit:10;" d="M47.1,25.4c-1.3-3.4-6.6-6.4-8-5.7h-9.5
		c-1.4-0.7-6.7,2.3-8,5.7c-1.3,3.2,0.3,6.2,1.8,6.9l8.4,5.4h4.9l8.4-5.4C46.8,31.6,48.3,28.6,47.1,25.4z"/>
	<g>
		<circle cx="30.1" cy="22.8" r="0.1"/>
		<circle cx="28.3" cy="22.7" r="0.1"/>
		<circle cx="29.7" cy="24.1" r="0.1"/>
		<circle cx="31.5" cy="24.6" r="0.1"/>
		<circle cx="30.4" cy="25.4" r="0.1"/>
		<circle cx="28.6" cy="24.6" r="0.1"/>
		<circle cx="27.6" cy="24.1" r="0.1"/>
		<circle cx="25.7" cy="24.4" r="0.1"/>
		<circle cx="27.2" cy="25.5" r="0.1"/>
		<circle cx="29.1" cy="25.8" r="0.1"/>
		<circle cx="30" cy="26.8" r="0.1"/>
		<circle cx="28.3" cy="26.6" r="0.1"/>
		<circle cx="26.4" cy="26.4" r="0.1"/>
		<circle cx="26.6" cy="27.7" r="0.1"/>
	</g>
	<path style="fill:none;stroke:#000000;stroke-width:0.5;stroke-miterlimit:10;" d="M29.6,18.6c-5.5-2.9-23-1.5-27.1,2"/>
	<path style="fill:none;stroke:#000000;stroke-width:0.5;stroke-miterlimit:10;" d="M29.6,18.7c-4.2-0.8-18.5,1.1-23.2,6.9"/>
	<path style="fill:none;stroke:#000000;stroke-width:0.5;stroke-miterlimit:10;" d="M29.6,19C26.8,18,10,25,7.3,30.5"/>
	<path style="fill:#FFFFFF;stroke:#000000;stroke-width:0.5;stroke-miterlimit:10;" d="M29.2,13.3c-0.4-0.3-0.4-1.4-1.5-1.8
		c-1.8-0.7-3.1,0.5-3.6,0.7c0,1.4,0.4,2.3,1.6,2.9C27.1,15.7,28.7,14.7,29.2,13.3z"/>
	<path d="M27.7,11.5c1.1,0.5,1.2,1.5,1.5,1.8c-0.1,0.4-0.4,0.8-0.6,1.1c-0.9,0.6-1.8,0.4-2.4-0.1c-0.6-0.5-1.2-1.2-1.2-2.7v0
		C25.7,11.3,26.6,11,27.7,11.5z"/>
	
		<ellipse transform="matrix(0.5376 -0.8432 0.8432 0.5376 2.431 28.663)" style="fill:#FFFFFF;" cx="27.3" cy="12.1" rx="0.4" ry="0.5"/>
	<path style="fill:#FF0000;stroke:#000000;stroke-width:0.5;stroke-miterlimit:10;" d="M31.8,35.8c-3.1-2.9-9-3.6-10.3-3.6
		c-0.4,0-1,0-1.2,0.2c-0.3,0.4,0.3,2.1,0.4,2.5s0.7,1.8,1.1,2c0.1,0.1,0.4,0.2,0.9,0.3c-0.6-0.2-0.9-0.2-1.1-0.2s-0.4,0.4-0.4,0.8
		c0,0.3,0.2,1.6,0.2,2.2c0,0.4-0.2,0.7-0.2,1.1c0.1,0.7,0.6,1.6,1.1,1.9c0.4,0.2,0.9,0.2,1.5,0c1.2-0.4,7.3-3.1,8.1-4.1h0.8l0-3.3
		L31.8,35.8z"/>
	<path style="fill:none;stroke:#000000;stroke-width:0.5;stroke-miterlimit:10;" d="M31,37.5c-0.9-1.3-5.7-2.5-7.6-2.2"/>
	<path style="fill:none;stroke:#000000;stroke-width:0.5;stroke-miterlimit:10;" d="M28.7,37.5c-0.8,0.8-2.9,1.2-4.4,1.3"/>
	<path style="fill:none;stroke:#000000;stroke-width:0.25;stroke-miterlimit:10;" d="M18.8,22.2c0.1,0.6,1.7,2.7,2.8,3.4"/>
	<path style="fill:none;stroke:#000000;stroke-width:0.5;stroke-miterlimit:10;" d="M23,12.4c0.4,0,0.9-0.2,1.1-0.3"/>
	<path style="fill:none;stroke:#000000;stroke-width:0.5;stroke-miterlimit:10;" d="M29.8,13.6c-0.3-0.1-0.4-0.2-0.5-0.3"/>
	<g>
		<circle cx="38.7" cy="22.8" r="0.1"/>
		<circle cx="40.4" cy="22.7" r="0.1"/>
		<circle cx="39" cy="24.1" r="0.1"/>
		<circle cx="37.2" cy="24.6" r="0.1"/>
		<circle cx="38.4" cy="25.4" r="0.1"/>
		<circle cx="40.2" cy="24.6" r="0.1"/>
		<circle cx="41.1" cy="24.1" r="0.1"/>
		<circle cx="43.1" cy="24.4" r="0.1"/>
		<circle cx="41.6" cy="25.5" r="0.1"/>
		<circle cx="39.7" cy="25.8" r="0.1"/>
		<circle cx="38.7" cy="26.8" r="0.1"/>
		<circle cx="40.5" cy="26.6" r="0.1"/>
		<circle cx="42.4" cy="26.4" r="0.1"/>
		<circle cx="42.1" cy="27.7" r="0.1"/>
	</g>
	<path style="fill:none;stroke:#000000;stroke-width:0.5;stroke-miterlimit:10;" d="M39.1,18.6c5.5-2.9,23-1.5,27.1,2"/>
	<path style="fill:none;stroke:#000000;stroke-width:0.5;stroke-miterlimit:10;" d="M39.2,18.7c4.2-0.8,18.5,1.1,23.2,6.9"/>
	<path style="fill:none;stroke:#000000;stroke-width:0.5;stroke-miterlimit:10;" d="M39.1,19c2.8-1,19.6,6,22.3,11.5"/>
	<path style="fill:#5B435B;stroke:#000000;stroke-width:0.5;stroke-miterlimit:10;" d="M34.4,16.9c-2.5,0-4.4,0.7-4.9,1.7
		c0.3,2.6,4.3,5,4.9,5c0.6,0,4.6-2.3,4.9-5C38.8,17.7,36.9,16.9,34.4,16.9z"/>
	<path style="fill:#FFFFFF;stroke:#000000;stroke-width:0.5;stroke-miterlimit:10;" d="M39.5,13.3c0.4-0.3,0.4-1.4,1.5-1.8
		c1.8-0.7,3.1,0.5,3.6,0.7c0,1.4-0.4,2.3-1.6,2.9C41.7,15.7,40,14.7,39.5,13.3z"/>
	<path d="M41.1,11.5c-1.1,0.5-1.2,1.5-1.5,1.8c0.1,0.4,0.4,0.8,0.6,1.1c0.9,0.6,1.8,0.4,2.4-0.1c0.6-0.5,1.2-1.2,1.2-2.7v0
		C43.1,11.3,42.1,11,41.1,11.5z"/>
	
		<ellipse transform="matrix(0.8432 -0.5376 0.5376 0.8432 -1.940234e-02 24.1635)" style="fill:#FFFFFF;" cx="41.4" cy="12.1" rx="0.5" ry="0.4"/>
	<path style="fill:#FF0000;stroke:#000000;stroke-width:0.5;stroke-miterlimit:10;" d="M36.9,35.8c3.1-2.9,9-3.6,10.3-3.6
		c0.4,0,1,0,1.2,0.2c0.3,0.4-0.3,2.1-0.4,2.5c-0.1,0.5-0.7,1.8-1.1,2c-0.1,0.1-0.4,0.2-0.9,0.3c0.6-0.1,0.9-0.2,1.1-0.2
		c0.2,0,0.4,0.4,0.4,0.8c0,0.3-0.2,1.6-0.2,2.2c0,0.4,0.2,0.7,0.2,1.1c-0.1,0.7-0.6,1.6-1.1,1.9c-0.4,0.2-0.9,0.2-1.5,0
		c-1.2-0.4-7.3-3.1-8.1-4.1h-0.8l0-3.3L36.9,35.8z"/>
	<path style="fill:#FF0000;stroke:#000000;stroke-width:0.5;stroke-miterlimit:10;" d="M36.8,38c0-0.5,0.3-1.6,0.2-2.1
		c-0.2-0.7-1.3-1.3-2.6-1.3s-2.4,0.6-2.6,1.3C31.7,36.4,32,37.5,32,38c0,0.4-0.1,0.5-0.2,0.8c-0.1,0.6,1.4,1.5,2.6,1.5
		s2.7-0.9,2.6-1.5C36.9,38.5,36.8,38.5,36.8,38z"/>
	<path style="fill:none;stroke:#000000;stroke-width:0.5;stroke-miterlimit:10;" d="M37.7,37.5c0.9-1.3,5.7-2.5,7.6-2.2"/>
	<path style="fill:none;stroke:#000000;stroke-width:0.5;stroke-miterlimit:10;" d="M40.1,37.5c0.8,0.8,2.9,1.2,4.4,1.3"/>
	<path style="fill:none;stroke:#000000;stroke-width:0.5;stroke-miterlimit:10;" d="M42.5,29.8c-2.8,2.3-7.8-1-8.1-2.8
		c-0.3,1.8-5.3,5.1-8.1,2.8"/>
	<path style="fill:none;stroke:#000000;stroke-width:0.25;stroke-miterlimit:10;" d="M49.9,22.2c-0.1,0.6-1.7,2.7-2.8,3.4"/>
	<path style="fill:none;stroke:#000000;stroke-width:0.5;stroke-miterlimit:10;" d="M45.8,12.4c-0.4,0-0.9-0.2-1.1-0.3"/>
	<path style="fill:none;stroke:#000000;stroke-width:0.5;stroke-miterlimit:10;" d="M39,13.6c0.3-0.1,0.4-0.2,0.5-0.3"/>
	<line style="fill:none;stroke:#000000;stroke-width:0.5;stroke-miterlimit:10;" x1="34.4" y1="27" x2="34.4" y2="23.7"/>
</g>
</svg>
